<svg width="51" height="51" viewBox="0 0 51 51" fill="none" xmlns="http://www.w3.org/2000/svg">
<rect width="51" height="51" rx="25.5" fill="#C4CDD5"/>
<path d="M30.9375 30.4844C30.9375 30.7532 30.8578 31.0161 30.7084 31.2396C30.559 31.4632 30.3467 31.6374 30.0983 31.7403C29.8499 31.8432 29.5766 31.8701 29.3129 31.8176C29.0492 31.7652 28.807 31.6357 28.6169 31.4456C28.4268 31.2555 28.2973 31.0133 28.2449 30.7496C28.1924 30.4859 28.2193 30.2126 28.3222 29.9642C28.4251 29.7158 28.5993 29.5035 28.8229 29.3541C29.0464 29.2047 29.3093 29.125 29.5781 29.125C29.9387 29.125 30.2844 29.2682 30.5393 29.5232C30.7943 29.7781 30.9375 30.1238 30.9375 30.4844ZM21.4219 21.875C21.6907 21.875 21.9536 21.7953 22.1771 21.6459C22.4007 21.4965 22.5749 21.2842 22.6778 21.0358C22.7807 20.7874 22.8076 20.5141 22.7551 20.2504C22.7027 19.9867 22.5732 19.7445 22.3831 19.5544C22.193 19.3643 21.9508 19.2348 21.6871 19.1824C21.4234 19.1299 21.1501 19.1568 20.9017 19.2597C20.6533 19.3626 20.441 19.5368 20.2916 19.7604C20.1422 19.9839 20.0625 20.2468 20.0625 20.5156C20.0625 20.8762 20.2057 21.2219 20.4607 21.4768C20.7156 21.7318 21.0613 21.875 21.4219 21.875ZM36.375 16.4375V34.5625C36.375 35.0432 36.184 35.5042 35.8441 35.8441C35.5042 36.184 35.0432 36.375 34.5625 36.375H16.4375C15.9568 36.375 15.4958 36.184 15.1559 35.8441C14.816 35.5042 14.625 35.0432 14.625 34.5625V16.4375C14.625 15.9568 14.816 15.4958 15.1559 15.1559C15.4958 14.816 15.9568 14.625 16.4375 14.625H34.5625C35.0432 14.625 35.5042 14.816 35.8441 15.1559C36.184 15.4958 36.375 15.9568 36.375 16.4375ZM18.25 20.5156C18.25 21.143 18.436 21.7562 18.7846 22.2778C19.1331 22.7994 19.6285 23.206 20.2081 23.4461C20.7876 23.6861 21.4254 23.7489 22.0407 23.6266C22.656 23.5042 23.2211 23.2021 23.6647 22.7585C24.1083 22.3149 24.4104 21.7497 24.5328 21.1344C24.6552 20.5191 24.5924 19.8814 24.3523 19.3018C24.1122 18.7222 23.7057 18.2268 23.1841 17.8783C22.6625 17.5298 22.0492 17.3438 21.4219 17.3438C20.5806 17.3438 19.7739 17.6779 19.179 18.2728C18.5842 18.8676 18.25 19.6744 18.25 20.5156ZM32.75 30.4844C32.75 29.857 32.564 29.2438 32.2154 28.7222C31.8669 28.2006 31.3715 27.794 30.7919 27.5539C30.2124 27.3139 29.5746 27.2511 28.9593 27.3734C28.344 27.4958 27.7789 27.7979 27.3353 28.2415C26.8917 28.6851 26.5896 29.2503 26.4672 29.8656C26.3448 30.4809 26.4076 31.1186 26.6477 31.6982C26.8878 32.2778 27.2943 32.7732 27.8159 33.1217C28.3375 33.4702 28.9508 33.6562 29.5781 33.6562C30.4194 33.6562 31.2261 33.3221 31.821 32.7272C32.4158 32.1324 32.75 31.3256 32.75 30.4844ZM32.4849 18.5151C32.4008 18.4308 32.3008 18.364 32.1908 18.3184C32.0808 18.2728 31.9628 18.2493 31.8438 18.2493C31.7247 18.2493 31.6067 18.2728 31.4967 18.3184C31.3867 18.364 31.2867 18.4308 31.2026 18.5151L18.5151 31.2026C18.345 31.3726 18.2495 31.6033 18.2495 31.8438C18.2495 32.0842 18.345 32.3149 18.5151 32.4849C18.6851 32.655 18.9158 32.7505 19.1562 32.7505C19.3967 32.7505 19.6274 32.655 19.7974 32.4849L32.4849 19.7974C32.5692 19.7133 32.636 19.6133 32.6816 19.5033C32.7272 19.3933 32.7507 19.2753 32.7507 19.1562C32.7507 19.0372 32.7272 18.9192 32.6816 18.8092C32.636 18.6992 32.5692 18.5992 32.4849 18.5151Z" fill="white"/>
</svg>
