<svg width="24" height="24" viewBox="0 0 24 24" fill="none" xmlns="http://www.w3.org/2000/svg">
<rect x="0.5" y="0.5" width="23" height="23" rx="11.5" stroke="#DFE3E8"/>
<g opacity="0.2">
<path d="M5.97699 9.02297C5.92469 8.97073 5.8832 8.90869 5.85489 8.8404C5.82658 8.77212 5.81201 8.69892 5.81201 8.625C5.81201 8.55108 5.82658 8.47788 5.85489 8.4096C5.8832 8.34131 5.92469 8.27927 5.97699 8.22703L8.22699 5.97703C8.30565 5.89828 8.40592 5.84463 8.51509 5.82289C8.62427 5.80115 8.73744 5.81229 8.84027 5.8549C8.94311 5.89751 9.03099 5.96968 9.0928 6.06226C9.1546 6.15484 9.18754 6.26368 9.18745 6.375V8.0625H17.625C17.7741 8.0625 17.9172 8.12176 18.0227 8.22725C18.1282 8.33274 18.1875 8.47582 18.1875 8.625C18.1875 8.77418 18.1282 8.91726 18.0227 9.02275C17.9172 9.12824 17.7741 9.1875 17.625 9.1875H9.18745V10.875C9.18754 10.9863 9.1546 11.0952 9.0928 11.1877C9.03099 11.2803 8.94311 11.3525 8.84027 11.3951C8.73744 11.4377 8.62427 11.4489 8.51509 11.4271C8.40592 11.4054 8.30565 11.3517 8.22699 11.273L5.97699 9.02297ZM18.0229 14.977L15.7729 12.727C15.6943 12.6483 15.594 12.5946 15.4848 12.5729C15.3756 12.5511 15.2625 12.5623 15.1596 12.6049C15.0568 12.6475 14.9689 12.7197 14.9071 12.8123C14.8453 12.9048 14.8124 13.0137 14.8125 13.125V14.8125H6.37495C6.22577 14.8125 6.0827 14.8718 5.97721 14.9773C5.87172 15.0827 5.81245 15.2258 5.81245 15.375C5.81245 15.5242 5.87172 15.6673 5.97721 15.7727C6.0827 15.8782 6.22577 15.9375 6.37495 15.9375H14.8125V17.625C14.8124 17.7363 14.8453 17.8452 14.9071 17.9377C14.9689 18.0303 15.0568 18.1025 15.1596 18.1451C15.2625 18.1877 15.3756 18.1989 15.4848 18.1771C15.594 18.1554 15.6943 18.1017 15.7729 18.023L18.0229 15.773C18.0752 15.7207 18.1167 15.6587 18.145 15.5904C18.1733 15.5221 18.1879 15.4489 18.1879 15.375C18.1879 15.3011 18.1733 15.2279 18.145 15.1596C18.1167 15.0913 18.0752 15.0293 18.0229 14.977Z" fill="#161C24"/>
</g>
</svg>
