<svg width="18" height="18" viewBox="0 0 18 18" fill="none" xmlns="http://www.w3.org/2000/svg">
<g opacity="0.2">
<path d="M2.97699 6.02297C2.92469 5.97073 2.8832 5.90869 2.85489 5.8404C2.82658 5.77212 2.81201 5.69892 2.81201 5.625C2.81201 5.55108 2.82658 5.47788 2.85489 5.4096C2.8832 5.34131 2.92469 5.27927 2.97699 5.22703L5.22699 2.97703C5.30565 2.89828 5.40592 2.84463 5.51509 2.82289C5.62427 2.80115 5.73744 2.81229 5.84027 2.8549C5.94311 2.89751 6.03099 2.96968 6.0928 3.06226C6.1546 3.15484 6.18754 3.26368 6.18745 3.375V5.0625H14.625C14.7741 5.0625 14.9172 5.12176 15.0227 5.22725C15.1282 5.33274 15.1875 5.47582 15.1875 5.625C15.1875 5.77418 15.1282 5.91726 15.0227 6.02275C14.9172 6.12824 14.7741 6.1875 14.625 6.1875H6.18745V7.875C6.18754 7.98632 6.1546 8.09516 6.0928 8.18774C6.03099 8.28032 5.94311 8.35249 5.84027 8.3951C5.73744 8.43771 5.62427 8.44885 5.51509 8.42711C5.40592 8.40537 5.30565 8.35173 5.22699 8.27297L2.97699 6.02297ZM15.0229 11.977L12.7729 9.72703C12.6943 9.64828 12.594 9.59463 12.4848 9.57289C12.3756 9.55115 12.2625 9.56229 12.1596 9.6049C12.0568 9.64751 11.9689 9.71968 11.9071 9.81226C11.8453 9.90484 11.8124 10.0137 11.8125 10.125V11.8125H3.37495C3.22577 11.8125 3.0827 11.8718 2.97721 11.9773C2.87172 12.0827 2.81245 12.2258 2.81245 12.375C2.81245 12.5242 2.87172 12.6673 2.97721 12.7727C3.0827 12.8782 3.22577 12.9375 3.37495 12.9375H11.8125V14.625C11.8124 14.7363 11.8453 14.8452 11.9071 14.9377C11.9689 15.0303 12.0568 15.1025 12.1596 15.1451C12.2625 15.1877 12.3756 15.1989 12.4848 15.1771C12.594 15.1554 12.6943 15.1017 12.7729 15.023L15.0229 12.773C15.0752 12.7207 15.1167 12.6587 15.145 12.5904C15.1733 12.5221 15.1879 12.4489 15.1879 12.375C15.1879 12.3011 15.1733 12.2279 15.145 12.1596C15.1167 12.0913 15.0752 12.0293 15.0229 11.977Z" fill="#161C24"/>
</g>
</svg>
