<svg width="83" height="32" viewBox="0 0 83 32" fill="none" xmlns="http://www.w3.org/2000/svg">
<path fill-rule="evenodd" clip-rule="evenodd" d="M21.1706 1.62325C14.1662 3.53418 5.59677 7.70211 1.86911 16.773C0.775279 19.4371 0.0947795 22.5254 1.0665e-05 26.1046C1.0665e-05 26.1046 1.99904 19.4476 10.6337 12.0128C14.4203 8.75127 19.4825 5.34273 26.2097 2.27908C27.9332 1.49466 29.7644 0.731286 31.7127 -1.06673e-05C31.7127 -1.06673e-05 26.9784 0.0368769 21.1706 1.62324V1.62325Z" fill="#FF595A"/>
<path fill-rule="evenodd" clip-rule="evenodd" d="M23.5414 24.3034V26.8444C22.5367 27.5258 21.4111 27.8161 19.8038 27.8161C18.2097 27.8161 17.4666 27.1865 17.4666 25.8383C17.4666 25.3934 17.4666 24.0247 20.3142 24.0247C21.4514 24.0247 22.5322 24.1166 23.5414 24.3034V24.3034ZM20.4981 13.9048C18.5931 13.9048 16.4582 14.1776 14.1471 14.7213L13.9225 14.77V18.7657L14.2854 18.6805C16.5498 18.1504 18.6394 17.8796 20.4981 17.8796C23.5415 17.8796 23.5415 19.3793 23.5415 19.8679V20.8027C22.4676 20.6258 21.3837 20.534 20.3143 20.534C15.1435 20.534 12.5203 22.3377 12.5203 25.8937C12.5203 27.7272 13.3195 31.9998 20.686 31.9998C20.7576 31.9998 27.5988 31.9483 28.4836 27.2296L28.4862 19.789C28.4862 15.8847 25.8003 13.9048 20.4981 13.9048V13.9048Z" fill="#FF595A"/>
<path fill-rule="evenodd" clip-rule="evenodd" d="M77.6909 20.7589V21.1211C77.6909 22.8723 76.8254 23.9814 74.966 23.9814C73.8283 23.9814 72.7522 23.7229 71.7596 23.2204V18.5431C72.7016 18.1795 73.4623 18.0464 74.5565 18.0464C77.4055 18.0464 77.6909 19.674 77.6909 20.7589ZM74.3751 14.0065C68.8656 14.0065 66.8122 15.463 66.8122 15.463V31.5725H71.7597V27.0311C72.9968 27.5006 74.5704 27.7469 75.5945 27.7469C81.7554 27.7469 82.5876 24.1528 82.5876 20.6409C82.5876 16.6584 80.1707 14.0065 74.3751 14.0065H74.3751Z" fill="#FF595A"/>
<path fill-rule="evenodd" clip-rule="evenodd" d="M58.8864 24.3034V26.8444C57.8822 27.5257 56.7564 27.816 55.1493 27.816C53.5551 27.816 52.813 27.1864 52.813 25.8383C52.813 25.3933 52.813 24.0246 55.66 24.0246C56.7966 24.0246 57.8775 24.1165 58.8864 24.3034V24.3034ZM55.8439 13.905C53.9376 13.905 51.803 14.1779 49.492 14.7215L49.2673 14.7703V18.7659L49.6311 18.6808C51.8938 18.1506 53.9848 17.8798 55.8439 17.8798C58.886 17.8798 58.886 19.3795 58.886 19.8681V20.8029C57.8107 20.626 56.7281 20.5342 55.6597 20.5342C50.4894 20.5342 47.8658 22.3379 47.8658 25.8939C47.8658 27.7274 48.6645 32 56.0303 32C56.1041 32 62.9434 31.9485 63.8282 27.2298L63.8308 19.7892C63.8308 15.8849 61.1447 13.905 55.8439 13.905V13.905Z" fill="#FF595A"/>
<path fill-rule="evenodd" clip-rule="evenodd" d="M39.988 20.877H37.1893C35.6088 20.877 35.4281 20.0756 35.4281 19.4699C35.4281 18.4841 36.519 17.9812 38.6704 17.9812C40.87 17.9812 42.937 18.3551 44.8098 19.0935L45.2108 19.251V15.0592L45.0141 14.9921C43.0729 14.3375 40.9823 14.0078 38.7833 14.0078C33.4952 14.0078 30.8098 15.9018 30.8098 19.6328C30.8098 23.2109 32.681 25.0232 36.368 25.0232H39.492C40.5982 25.0232 41.0889 25.4545 41.0889 26.4297C41.0889 26.7979 41.0889 27.9183 38.5673 27.9183C36.1095 27.9183 33.9078 27.5449 32.0356 26.8069L31.6292 26.6501V30.8405L31.8288 30.9062C33.7706 31.5616 35.9845 31.8948 38.4075 31.8948C43.4705 31.8948 46.0337 30.0043 46.0337 26.2685C46.0337 22.6932 44.0011 20.877 39.988 20.877H39.988Z" fill="#FF595A"/>
</svg>
