<svg width="47" height="48" viewBox="0 0 47 48" fill="none" xmlns="http://www.w3.org/2000/svg">
<path d="M16.5298 18.7648C16.9754 18.7487 17.4207 18.7385 17.8665 18.7314C18.0353 18.7265 18.0353 18.7265 18.2075 18.7216C19.0543 18.7174 19.0543 18.7174 19.346 18.9909C19.5465 19.2961 19.5784 19.4434 19.5098 19.8016C19.3351 20.017 19.1957 20.1457 18.9484 20.2694C18.807 20.2822 18.6651 20.2896 18.5232 20.2942C18.4347 20.2974 18.3461 20.3005 18.2548 20.3037C18.1581 20.3068 18.0615 20.3098 17.9619 20.3129C17.7548 20.3203 17.5478 20.3276 17.3407 20.335C17.0162 20.3461 16.6917 20.3569 16.3673 20.3676C14.914 20.4163 13.4715 20.5026 12.0243 20.6437C11.8963 20.6555 11.7684 20.6673 11.6405 20.679C11.3334 20.7079 11.0268 20.7395 10.7202 20.7723C10.5701 20.7865 10.5701 20.7865 10.417 20.8009C9.69953 20.8789 9.13819 20.9964 8.62348 21.5234C8.274 21.9588 8.05208 22.4694 7.81037 22.9694C7.70274 23.1881 7.5951 23.4067 7.48745 23.6253C7.34747 23.9113 7.20789 24.1974 7.06846 24.4837C6.8782 24.8742 6.68656 25.264 6.49456 25.6537C6.44474 25.7569 6.39493 25.8601 6.3436 25.9665C6.29644 26.0621 6.24927 26.1577 6.20067 26.2561C6.15969 26.3403 6.11872 26.4244 6.0765 26.511C5.93048 26.7446 5.80326 26.8652 5.56801 27.0064C5.25382 27.0457 5.07288 27.0405 4.79021 26.8953C4.59639 26.6872 4.58434 26.5337 4.53875 26.2579C4.12539 26.2627 3.71222 26.2716 3.29896 26.2813C3.12292 26.2833 3.12292 26.2833 2.94332 26.2853C2.83054 26.2883 2.71777 26.2913 2.60157 26.2944C2.49769 26.2964 2.39381 26.2984 2.28678 26.3004C1.9461 26.3638 1.83579 26.4426 1.6381 26.7257C1.5783 27.0052 1.5783 27.0052 1.58109 27.3149C1.57807 27.4277 1.57506 27.5405 1.57195 27.6567C1.56996 27.8327 1.56996 27.8327 1.56793 28.0123C1.56377 28.1905 1.56377 28.1905 1.55952 28.3724C1.55291 28.6656 1.54798 28.9588 1.54454 29.2521C1.64398 29.2611 1.64398 29.2611 1.74543 29.2703C1.9307 29.2871 2.11596 29.3041 2.30122 29.3211C2.51553 29.3404 2.72995 29.3585 2.94442 29.376C3.91394 29.4792 3.91394 29.4792 4.20541 29.7902C4.38035 30.154 4.3504 30.27 4.25804 30.6557C4.17962 30.8565 4.09547 31.0552 4.00719 31.2519C3.13375 33.2908 2.97121 35.11 3.01993 37.311C3.02553 37.6407 3.02439 37.9702 3.02332 38.2999C3.01031 40.4725 3.01031 40.4725 3.55842 42.5578C3.87911 43.3576 3.86427 44.1035 3.83113 44.9543C3.81762 45.4542 3.80411 45.954 3.79019 46.469C5.27233 46.469 6.75446 46.469 8.28151 46.469C8.28151 45.975 8.28151 45.4809 8.28151 44.9719C8.03835 44.9806 8.03835 44.9806 7.79027 44.9894C7.48498 45.0003 7.30655 45.0019 7.0377 44.8531C6.85865 44.6716 6.81309 44.5786 6.77855 44.3286C6.76782 44.2671 6.75708 44.2056 6.74602 44.1422C6.79384 43.8935 6.89879 43.7494 7.08083 43.5757C7.46458 43.3497 7.93978 43.4122 8.3716 43.4172C8.485 43.4167 8.5984 43.4162 8.71523 43.4156C9.02556 43.4147 9.33575 43.4159 9.64607 43.4181C9.97116 43.42 10.2962 43.4194 10.6213 43.4192C11.1672 43.4192 11.7131 43.421 12.259 43.424C12.8896 43.4275 13.5202 43.4283 14.1509 43.4277C14.7581 43.4271 15.3654 43.4281 15.9727 43.4299C16.2308 43.4307 16.489 43.4309 16.7471 43.4308C17.1078 43.4307 17.4684 43.433 17.829 43.4355C17.9894 43.4351 17.9894 43.4351 18.1531 43.4346C18.3007 43.4362 18.3007 43.4362 18.4512 43.4379C18.5364 43.4382 18.6217 43.4386 18.7095 43.4389C19.0039 43.4831 19.1795 43.5765 19.4162 43.7555C19.5259 44.1255 19.5477 44.3233 19.3928 44.6795C19.2291 44.8783 19.2291 44.8783 18.9484 44.9719C18.8213 44.9801 18.6938 44.9833 18.5665 44.9831C18.4502 44.9833 18.4502 44.9833 18.3315 44.9835C18.2468 44.9832 18.1621 44.9829 18.0748 44.9825C17.9405 44.9825 17.9405 44.9825 17.8036 44.9825C17.5074 44.9825 17.2113 44.9818 16.9151 44.981C16.7099 44.9808 16.5047 44.9807 16.2995 44.9806C15.7591 44.9803 15.2187 44.9793 14.6783 44.9783C14.1271 44.9774 13.5758 44.9769 13.0245 44.9765C11.9425 44.9754 10.8606 44.9739 9.77861 44.9719C9.78155 45.0518 9.78155 45.0518 9.78455 45.1333C9.7924 45.3777 9.79722 45.6221 9.802 45.8666C9.80514 45.9504 9.80828 46.0342 9.81151 46.1205C9.81996 46.6977 9.74196 47.0266 9.40434 47.4983C8.99591 47.8768 8.70078 47.9773 8.15182 47.9812C8.04875 47.9821 7.94568 47.983 7.83948 47.9839C7.67237 47.9845 7.67237 47.9845 7.50189 47.9851C7.38731 47.9857 7.27274 47.9862 7.15469 47.9867C6.91204 47.9876 6.66939 47.9882 6.42673 47.9886C6.05586 47.9895 5.68503 47.9924 5.31416 47.9954C5.07847 47.996 4.84278 47.9965 4.60709 47.9968C4.49626 47.998 4.38542 47.9991 4.27122 48.0003C3.65238 47.9987 3.17946 47.9818 2.70063 47.5451C2.32341 47.0606 2.28222 46.723 2.28651 46.1276C2.2857 45.9797 2.28472 45.8318 2.28359 45.6839C2.28205 45.4536 2.28133 45.2235 2.28377 44.9932C2.29095 44.1991 2.26862 43.4954 1.96409 42.7544C1.34099 41.233 1.43872 39.6101 1.44887 37.9933C1.45101 37.6362 1.44972 37.2794 1.44503 36.9223C1.39578 33.1665 1.39578 33.1665 2.30022 31.4023C2.38668 31.217 2.43749 31.0423 2.48023 30.8428C2.40786 30.8393 2.33549 30.8358 2.26092 30.8322C1.51781 30.7853 0.91442 30.7351 0.333986 30.2288C-0.0912512 29.7262 0.0193612 29.0813 0.0146728 28.4516C0.013133 28.3004 0.0105923 28.1493 0.00699725 27.9981C-0.0160141 27.0246 -0.023359 26.1833 0.679616 25.4258C1.25046 24.881 1.85974 24.7194 2.62606 24.7129C2.6999 24.7112 2.77374 24.7095 2.84982 24.7078C3.08335 24.7028 3.31686 24.6996 3.55042 24.6964C3.70972 24.6933 3.86902 24.6901 4.02832 24.6868C4.41678 24.6788 4.80523 24.6726 5.19373 24.6672C5.26937 24.5122 5.26937 24.5122 5.34653 24.3542C5.53581 23.9671 5.72638 23.5806 5.91731 23.1943C5.99941 23.0278 6.08117 22.8611 6.16257 22.6942C7.32172 20.3193 7.32172 20.3193 8.46865 19.708C8.52014 19.6777 8.57164 19.6474 8.62469 19.6162C9.35549 19.2327 10.1704 19.2076 10.9775 19.1349C11.14 19.1193 11.3025 19.1038 11.465 19.0882C13.151 18.9301 14.8378 18.8277 16.5298 18.7648Z" fill="white"/>
<path d="M28.0707 18.7221C28.1894 18.7231 28.3082 18.7241 28.4305 18.7251C28.5583 18.7286 28.686 18.7323 28.8138 18.736C28.946 18.7382 29.0783 18.7403 29.2105 18.7423C29.595 18.7487 29.9792 18.7597 30.3635 18.7711C30.4594 18.7733 30.5553 18.7755 30.6541 18.7778C32.1084 18.8122 33.554 18.9605 34.9999 19.1117C35.276 19.1405 35.5522 19.1681 35.8285 19.1954C37.2978 19.3461 38.3656 19.6829 39.3461 20.8296C39.5575 21.1567 39.7305 21.4977 39.9017 21.8472C39.9489 21.9405 39.9961 22.0339 40.0447 22.1301C40.1875 22.4133 40.3283 22.6974 40.4689 22.9817C40.5552 23.1534 40.6416 23.3251 40.7281 23.4967C40.9239 23.8857 41.1181 24.2755 41.3111 24.666C41.4054 24.6668 41.4997 24.6677 41.5968 24.6686C41.9509 24.6724 42.3049 24.6785 42.6589 24.6854C42.8113 24.688 42.9638 24.69 43.1162 24.6913C44.9824 24.7085 44.9824 24.7085 45.7465 25.3111C45.7939 25.3703 45.8413 25.4295 45.8901 25.4906C45.9392 25.5491 45.9883 25.6076 46.0389 25.6678C46.3822 26.2025 46.5015 26.6625 46.5045 27.2947C46.5055 27.3649 46.5064 27.4351 46.5074 27.5075C46.5088 27.655 46.5094 27.8025 46.5094 27.95C46.51 28.1744 46.5151 28.3983 46.5204 28.6226C46.5337 29.8204 46.5337 29.8204 46.1968 30.2305C45.7699 30.6263 45.3134 30.699 44.7497 30.7597C44.68 30.7678 44.6103 30.7759 44.5385 30.7842C44.3672 30.804 44.1959 30.8229 44.0246 30.8416C44.1453 31.1906 44.2662 31.5395 44.3872 31.8884C44.4213 31.9871 44.4554 32.0859 44.4906 32.1876C44.5403 32.331 44.5403 32.331 44.5911 32.4772C44.6367 32.6088 44.6367 32.6088 44.6832 32.743C44.7666 32.9889 44.7666 32.9889 44.8703 33.1963C44.9857 33.5367 44.9901 33.8582 44.9919 34.2136C44.993 34.2881 44.9941 34.3626 44.9952 34.4393C44.9984 34.6855 45.0001 34.9317 45.0016 35.178C45.0025 35.3053 45.0025 35.3053 45.0035 35.4351C45.0069 35.8858 45.0091 36.3364 45.0104 36.787C45.0116 37.1562 45.0148 37.5252 45.02 37.8944C45.0691 41.4959 45.0691 41.4959 44.4534 42.9716C44.1685 43.677 44.2257 44.4447 44.241 45.1929C44.2439 45.4199 44.2459 45.6468 44.2457 45.8739C44.2457 46.0128 44.2475 46.1516 44.2516 46.2904C44.2538 46.8058 44.1196 47.0817 43.8374 47.497C43.429 47.8756 43.1339 47.9761 42.5849 47.98C42.4818 47.9809 42.3788 47.9818 42.2726 47.9827C42.1055 47.9833 42.1055 47.9833 41.935 47.9839C41.8204 47.9844 41.7058 47.985 41.5878 47.9855C41.3451 47.9864 41.1025 47.987 40.8598 47.9874C40.489 47.9883 40.1181 47.9912 39.7473 47.9941C39.5116 47.9947 39.2759 47.9952 39.0402 47.9956C38.9294 47.9968 38.8185 47.9979 38.7043 47.9991C38.0855 47.9974 37.6126 47.9806 37.1337 47.5438C36.8299 47.1536 36.7139 46.8951 36.717 46.4053C36.7174 46.3217 36.7177 46.2382 36.718 46.1522C36.7191 46.0218 36.7191 46.0218 36.7203 45.8888C36.7208 45.8008 36.7212 45.7128 36.7216 45.6222C36.7227 45.405 36.7243 45.1878 36.7262 44.9707C36.5534 44.9716 36.5534 44.9716 36.377 44.9725C35.2921 44.9782 34.2072 44.9824 33.1222 44.9852C32.5644 44.9867 32.0066 44.9887 31.4488 44.9918C30.9107 44.9949 30.3726 44.9966 29.8344 44.9973C29.6289 44.9978 29.4234 44.9988 29.218 45.0003C28.9305 45.0024 28.6431 45.0027 28.3557 45.0025C28.2278 45.004 28.2278 45.004 28.0973 45.0056C27.521 45.0027 27.521 45.0028 27.2245 44.8392C27.0659 44.665 27.0213 44.5599 26.9892 44.3274C26.9731 44.2351 26.9731 44.2351 26.9566 44.141C27.0044 43.8923 27.1094 43.7482 27.2914 43.5745C27.6752 43.3484 28.1504 43.411 28.5822 43.416C28.6956 43.4155 28.809 43.4149 28.9258 43.4144C29.2362 43.4135 29.5464 43.4147 29.8567 43.4169C30.1818 43.4187 30.5068 43.4182 30.8319 43.418C31.3778 43.418 31.9237 43.4198 32.4696 43.4228C33.1002 43.4263 33.7308 43.4271 34.3615 43.4264C34.9687 43.4259 35.576 43.4269 36.1833 43.4287C36.4414 43.4295 36.6996 43.4297 36.9577 43.4296C37.3184 43.4295 37.679 43.4317 38.0396 43.4342C38.1466 43.434 38.2535 43.4337 38.3637 43.4334C38.5113 43.435 38.5113 43.435 38.6618 43.4366C38.7471 43.437 38.8323 43.4373 38.9201 43.4377C39.2145 43.4819 39.3901 43.5752 39.6268 43.7542C39.7365 44.1243 39.7583 44.3221 39.6034 44.6783C39.4397 44.8771 39.4397 44.8771 39.159 44.9707C38.9973 44.977 38.8354 44.9786 38.6736 44.9765C38.525 44.9746 38.3764 44.9726 38.2233 44.9707C38.2233 45.4647 38.2233 45.9588 38.2233 46.4678C39.7054 46.4678 41.1876 46.4678 42.7146 46.4678C42.689 45.4784 42.689 45.4784 42.6556 44.4892C42.6381 43.6899 42.7391 43.071 43.0377 42.3299C43.5616 40.9631 43.4853 39.4935 43.4807 38.051C43.4798 37.7223 43.483 37.3941 43.4903 37.0655C43.5414 34.7313 43.2639 32.7769 42.2468 30.6544C42.2159 30.6236 42.185 30.5927 42.1532 30.5609C42.1721 30.2272 42.1915 29.984 42.3871 29.7074C42.7201 29.4571 43.0393 29.424 43.4456 29.3679C43.5188 29.3562 43.5919 29.3445 43.6673 29.3324C44.1029 29.2662 44.5199 29.2391 44.9603 29.2509C44.9581 28.8375 44.9509 28.4244 44.9427 28.0111C44.9422 27.8937 44.9416 27.7764 44.9411 27.6555C44.9384 27.5427 44.9356 27.4299 44.9329 27.3137C44.9306 27.1579 44.9306 27.1579 44.9284 26.9989C44.8874 26.7105 44.8874 26.7105 44.6648 26.5041C44.3588 26.3271 44.1725 26.3001 43.821 26.2932C43.6586 26.2887 43.6586 26.2887 43.4929 26.2841C43.3808 26.2827 43.2687 26.2814 43.1532 26.2801C43.0393 26.2773 42.9254 26.2745 42.808 26.2716C42.5273 26.265 42.2468 26.2601 41.9661 26.2567C41.941 26.3454 41.9159 26.4342 41.89 26.5257C41.7789 26.8181 41.7789 26.8181 41.4982 27.0052C41.2292 27.0462 41.2292 27.0462 40.9368 27.0052C40.4287 26.6076 40.2032 26.0592 39.928 25.488C39.8779 25.3861 39.8277 25.2843 39.776 25.1794C39.6162 24.8547 39.4577 24.5294 39.2993 24.204C39.1409 23.8789 38.9823 23.554 38.8226 23.2296C38.7235 23.028 38.625 22.8261 38.5274 22.6238C38.0708 21.6704 38.0708 21.6704 37.2291 21.0811C37.1584 21.0525 37.0878 21.0239 37.0149 20.9944C36.5969 20.8418 36.2022 20.7868 35.7616 20.7452C35.6817 20.7375 35.6018 20.7298 35.5194 20.722C35.2531 20.6968 34.9867 20.6725 34.7203 20.6483C34.629 20.6398 34.5377 20.6313 34.4436 20.6226C33.2907 20.5168 32.1404 20.4408 30.983 20.4056C30.8171 20.4004 30.8171 20.4004 30.6478 20.3951C30.1055 20.3788 29.5633 20.3658 29.0208 20.3568C28.8222 20.3518 28.6235 20.3468 28.4249 20.3416C28.3342 20.3412 28.2435 20.3407 28.1501 20.3402C27.7207 20.3273 27.5231 20.314 27.1725 20.0472C26.995 19.8003 26.995 19.8003 26.9365 19.5196C27.0658 18.8993 27.4785 18.7117 28.0707 18.7221Z" fill="white"/>
<path d="M14.5508 0.0579553C15.0042 0.417498 15.0042 0.417498 15.0539 0.789907C15.0366 0.94305 15.0366 0.94305 15.019 1.09929C15.01 1.18781 15.01 1.18781 15.0009 1.27812C14.9865 1.41557 14.9708 1.55288 14.9541 1.69007C14.9214 1.95965 14.892 2.22951 14.8629 2.4995C14.7916 3.15005 14.7152 3.79996 14.6385 4.44989C14.6118 4.67791 14.5852 4.90592 14.5586 5.13394C14.494 5.68767 14.429 6.24135 14.3636 6.79499C14.4774 6.79352 14.5912 6.79205 14.7084 6.79054C15.1312 6.78545 15.5541 6.78223 15.977 6.77957C16.1599 6.77816 16.3428 6.77625 16.5256 6.77382C16.7888 6.7704 17.0519 6.76882 17.3151 6.76758C17.3966 6.76613 17.4781 6.76468 17.5621 6.76319C18.0074 6.76307 18.3078 6.78228 18.6678 7.0757C18.8063 7.35274 18.7984 7.51398 18.7614 7.82426C18.6176 8.10716 18.4332 8.35756 18.2468 8.61376C18.1927 8.69027 18.1387 8.76678 18.0831 8.8456C17.9661 9.01119 17.8487 9.17641 17.7308 9.3413C17.4762 9.69863 17.2263 10.0591 16.9763 10.4196C16.7849 10.6955 16.593 10.971 16.401 11.2465C16.1102 11.6642 15.821 12.083 15.5333 12.5028C15.0508 13.2065 14.5632 13.9066 14.0754 14.6067C13.7015 15.1437 13.3297 15.6821 12.9601 16.2222C11.8119 17.8957 11.8119 17.8957 11.5566 18.0234C11.2631 18.0489 11.0531 18.0469 10.7788 17.9357C10.434 17.5142 10.5194 16.8659 10.5667 16.35C10.5894 16.1442 10.6131 15.9384 10.6377 15.7327C10.6501 15.6231 10.6624 15.5135 10.6752 15.4005C10.7147 15.0525 10.7555 14.7045 10.7963 14.3566C10.8231 14.1218 10.8498 13.8869 10.8764 13.6521C10.9255 13.222 10.9747 12.7919 11.0251 12.362C11.0402 12.233 11.0402 12.233 11.0555 12.1014C11.0913 11.8285 11.1356 11.5576 11.1823 11.2864C11.0074 11.29 11.0074 11.29 10.829 11.2938C10.3956 11.3023 9.96234 11.3076 9.52896 11.312C9.34153 11.3144 9.15412 11.3176 8.96672 11.3216C8.69704 11.3273 8.42748 11.33 8.15775 11.332C8.03243 11.3357 8.03243 11.3357 7.90457 11.3394C7.48415 11.3395 7.30901 11.3299 6.96573 11.0659C6.78455 10.8185 6.78455 10.8185 6.72314 10.5579C6.81261 10.1196 7.0387 9.82551 7.29918 9.46758C7.3532 9.39108 7.40722 9.31457 7.46288 9.23574C7.57982 9.07016 7.69727 8.90493 7.81518 8.74004C8.06971 8.38271 8.31963 8.02225 8.56967 7.66177C8.76105 7.38586 8.95297 7.11031 9.14497 6.83483C9.43578 6.41715 9.72493 5.99838 10.0127 5.57858C10.4951 4.87483 10.9827 4.1747 11.4705 3.47463C11.8445 2.93761 12.2163 2.39921 12.5858 1.85918C13.8761 -0.0214242 13.8761 -0.0214242 14.5508 0.0579553Z" fill="white"/>
<path d="M23.2524 0C23.6369 0.0801036 23.7591 0.218995 24.001 0.526331C24.0468 0.807107 24.0637 1.0344 24.0593 1.31471C24.0599 1.39426 24.0606 1.47381 24.0612 1.55577C24.0627 1.8236 24.0609 2.09131 24.0591 2.35914C24.0595 2.55257 24.0601 2.74601 24.0609 2.93944C24.0625 3.47198 24.0612 4.00449 24.0594 4.53703C24.0579 5.11096 24.0592 5.68488 24.0601 6.25881C24.0614 7.31848 24.0605 8.37814 24.0587 9.43781C24.0569 10.4167 24.0561 11.3956 24.0563 12.3744C24.0563 12.4393 24.0563 12.5042 24.0563 12.5711C24.0563 12.8345 24.0564 13.0979 24.0564 13.3613C24.0569 15.833 24.0548 18.3047 24.0514 20.7764C24.0484 22.9731 24.0473 25.1699 24.0478 27.3666C24.0479 27.5077 24.0479 27.6487 24.0479 27.7898C24.048 27.8595 24.048 27.9292 24.048 28.0011C24.0481 28.3521 24.0482 28.7031 24.0483 29.0541C24.0483 29.1233 24.0483 29.1926 24.0483 29.2639C24.0487 31.0986 24.0478 32.9333 24.0464 34.768C24.0463 34.8333 24.0463 34.8985 24.0463 34.9658C24.0462 35.0309 24.0462 35.096 24.0461 35.1631C24.0461 35.2282 24.046 35.2932 24.046 35.3602C24.0459 35.4911 24.0458 35.622 24.0457 35.753C24.045 36.6665 24.0448 37.5799 24.0449 38.4934C24.0451 39.6705 24.0443 40.8476 24.0419 42.0247C24.0408 42.5926 24.0402 43.1604 24.0407 43.7282C24.0412 44.2475 24.0404 44.7668 24.0385 45.2861C24.0381 45.4745 24.0381 45.6628 24.0387 45.8511C24.0393 46.1063 24.0383 46.3614 24.0368 46.6165C24.0374 46.6904 24.038 46.7642 24.0386 46.8403C24.034 47.2623 23.9836 47.5379 23.7203 47.8728C23.4574 48.0042 23.2629 47.9896 22.9717 47.9663C22.6783 47.7998 22.6123 47.7302 22.5039 47.4049C22.4946 47.149 22.4906 46.8955 22.491 46.6395C22.4908 46.5602 22.4905 46.4809 22.4903 46.3991C22.4896 46.131 22.4895 45.8628 22.4895 45.5946C22.4891 45.4013 22.4887 45.2081 22.4882 45.0148C22.4871 44.4818 22.4866 43.9489 22.4861 43.4159C22.4856 42.8419 22.4845 42.2678 22.4835 41.6938C22.4813 40.3722 22.4799 39.0507 22.4788 37.7291C22.4784 37.272 22.478 36.815 22.4775 36.3579C22.4752 33.9284 22.4731 31.4989 22.4719 29.0695C22.4717 28.5066 22.4714 27.9436 22.4711 27.3807C22.4711 27.3108 22.471 27.2409 22.471 27.1688C22.4699 24.9003 22.467 22.6317 22.4631 20.3632C22.4591 18.0318 22.4566 15.7004 22.4561 13.369C22.456 13.0399 22.4559 12.7108 22.4558 12.3817C22.4558 12.317 22.4558 12.2522 22.4558 12.1855C22.4554 11.1419 22.4535 10.0984 22.4511 9.05492C22.4486 8.00666 22.4479 6.95842 22.4489 5.91015C22.4494 5.34195 22.4491 4.77377 22.4468 4.20557C22.4447 3.68588 22.4448 3.16624 22.4466 2.64654C22.4468 2.45808 22.4463 2.26962 22.4449 2.08116C22.4431 1.82579 22.4442 1.5706 22.446 1.31524C22.4448 1.24133 22.4436 1.16743 22.4424 1.0913C22.4483 0.716254 22.489 0.545173 22.7238 0.246755C22.9717 0.0584812 22.9717 0.0584812 23.2524 0Z" fill="white"/>
<path d="M34.0132 0.0580262C34.3737 0.37475 34.6424 0.734083 34.9021 1.13408C34.9614 1.22434 34.9614 1.22434 35.0219 1.31642C35.9426 2.7283 36.8119 4.17021 37.6341 5.64157C37.7415 5.83356 37.8504 6.02469 37.9596 6.21573C38.7486 7.62023 39.601 9.28416 39.7209 10.9121C39.7282 10.9986 39.7354 11.0851 39.7429 11.1742C39.8129 12.7372 39.1943 14.1735 38.1829 15.345C37.0898 16.497 35.6543 17.1862 34.0692 17.2972C32.369 17.3329 30.9562 16.8492 29.6623 15.731C28.5879 14.7005 27.8542 13.311 27.7149 11.8146C27.7091 11.5107 27.7206 11.2151 27.7441 10.9121C27.7497 10.8264 27.7552 10.7406 27.7609 10.6523C27.8718 9.68821 28.2967 8.7997 28.6798 7.9179C28.709 7.85021 28.7382 7.78251 28.7683 7.71276C29.7829 5.38908 31.182 3.22786 32.5746 1.11654C32.63 1.03197 32.6854 0.9474 32.7425 0.86027C32.7945 0.782366 32.8464 0.704462 32.8999 0.624198C32.9456 0.555363 32.9912 0.486528 33.0383 0.415607C33.3207 0.0531579 33.5746 -0.0033879 34.0132 0.0580262ZM33.639 2.21014C33.5274 2.34235 33.5274 2.34235 33.4211 2.52009C33.3778 2.58869 33.3345 2.65729 33.2899 2.72797C33.243 2.80411 33.1961 2.88025 33.1477 2.95869C33.0984 3.03797 33.0491 3.11725 32.9982 3.19892C30.0493 7.49434 30.0493 7.49434 29.3465 12.4151C29.7097 13.7032 30.4699 14.637 31.6345 15.2898C32.7581 15.8534 33.9345 15.9388 35.1448 15.5932C36.3103 15.1812 37.1984 14.4466 37.756 13.3391C37.982 12.8461 38.17 12.3888 38.2238 11.8478C38.2336 11.7681 38.2434 11.6884 38.2534 11.6062C38.4368 8.75431 35.8906 5.42192 34.4175 3.15246C34.3312 3.0171 34.247 2.88036 34.1645 2.74263C34.1233 2.6739 34.082 2.60516 34.0395 2.53434C34.0029 2.47209 33.9663 2.40985 33.9286 2.34572C33.8948 2.30097 33.861 2.25623 33.8261 2.21014C33.7643 2.21014 33.7026 2.21014 33.639 2.21014Z" fill="white"/>
<path d="M13.0537 3.80029C13.0846 3.80029 13.1155 3.80029 13.1473 3.80029C13.1054 4.73242 13.0497 5.65653 12.9202 6.58121C12.8598 7.05363 12.8258 7.54845 12.9602 8.01094C13.307 8.24217 13.5826 8.23063 13.9847 8.23683C14.0931 8.23954 14.0931 8.23954 14.2038 8.24232C14.4345 8.24791 14.6652 8.25225 14.8959 8.25656C15.0524 8.26014 15.2089 8.26379 15.3654 8.26753C15.7488 8.27651 16.1323 8.28438 16.5158 8.29165C16.3652 8.68978 16.1656 9.00968 15.9134 9.35016C15.8279 9.46777 15.7425 9.58547 15.6572 9.70324C15.6133 9.76388 15.5693 9.82452 15.524 9.887C15.316 10.1767 15.1146 10.4709 14.9134 10.7654C14.4063 11.5066 13.8934 12.2437 13.3795 12.9802C13.2879 13.1116 13.2879 13.1116 13.1945 13.2457C13.1372 13.3279 13.0799 13.4101 13.0209 13.4947C12.8915 13.6826 12.7654 13.8719 12.6411 14.063C12.592 14.1347 12.5429 14.2063 12.4923 14.2801C12.4615 14.2801 12.4306 14.2801 12.3988 14.2801C12.4471 13.3697 12.5181 12.4651 12.6177 11.5588C12.7442 10.7314 12.7442 10.7314 12.4923 9.97591C12.155 9.86348 11.8399 9.86081 11.4883 9.85274C11.383 9.84982 11.383 9.84982 11.2755 9.84684C11.0515 9.84073 10.8274 9.83521 10.6034 9.82971C10.4514 9.82567 10.2994 9.82159 10.1474 9.81746C9.77506 9.80745 9.40267 9.79797 9.03027 9.78877C9.18091 9.39064 9.38051 9.07074 9.63262 8.73026C9.71815 8.61265 9.80355 8.49496 9.88884 8.37718C9.93282 8.31654 9.9768 8.2559 10.0221 8.19342C10.2301 7.90367 10.4315 7.60951 10.6326 7.31502C11.1397 6.57382 11.6527 5.83677 12.1665 5.10024C12.2581 4.96879 12.2581 4.96879 12.3516 4.83468C12.4089 4.75251 12.4662 4.67034 12.5252 4.58568C12.6546 4.39786 12.7807 4.20857 12.905 4.0174C12.9541 3.94576 13.0032 3.87411 13.0537 3.80029Z" fill="#FF595A"/>
<path d="M39.622 28.7562C39.7517 29.0386 39.7599 29.2261 39.7214 29.534C39.5879 29.801 39.4893 29.8878 39.2141 30.0037C38.7592 30.1283 38.3065 30.1789 37.8383 30.2299C37.7332 30.2416 37.6281 30.2533 37.5199 30.2653C35.2263 30.5131 32.9303 30.7023 30.623 30.7437C30.3769 30.7484 30.1309 30.7541 29.8848 30.7611C29.5595 30.7704 29.2341 30.7772 28.9087 30.7821C28.7258 30.7854 28.5429 30.7909 28.3601 30.7963C27.4446 30.8046 27.4446 30.8046 27.155 30.5318C26.9578 30.2228 26.9211 30.0807 26.996 29.7211C27.1896 29.4431 27.3455 29.2788 27.6838 29.2059C27.9638 29.1824 28.241 29.1739 28.522 29.17C28.6265 29.1667 28.731 29.1634 28.8387 29.16C29.1738 29.15 29.5088 29.1431 29.844 29.1363C30.0634 29.1304 30.2827 29.1244 30.5021 29.118C30.9362 29.1058 31.3703 29.0941 31.8045 29.0829C33.5543 29.0363 35.2724 28.9001 37.0104 28.6924C37.291 28.6591 37.5718 28.6269 37.8526 28.5946C37.9369 28.5842 38.0212 28.5738 38.108 28.5631C39.2505 28.4327 39.2505 28.4327 39.622 28.7562Z" fill="white"/>
<path d="M7.77857 28.5262C7.8875 28.5365 7.99642 28.5468 8.10865 28.5574C8.62411 28.6131 9.13945 28.6696 9.65459 28.7282C11.0569 28.8867 12.4571 29.0121 13.8668 29.0817C13.9415 29.0854 14.0163 29.0891 14.0933 29.0929C14.9337 29.1335 15.7739 29.162 16.615 29.1797C16.7288 29.1822 16.7288 29.1822 16.845 29.1848C17.2063 29.1928 17.5675 29.1994 17.9289 29.203C18.0576 29.2053 18.1863 29.2076 18.315 29.21C18.4823 29.2119 18.4823 29.2119 18.6529 29.2138C18.9776 29.255 19.156 29.3374 19.4166 29.532C19.548 29.7949 19.5335 29.9894 19.5102 30.2806C19.3436 30.574 19.2741 30.64 18.9487 30.7484C18.7975 30.7573 18.6459 30.7607 18.4944 30.7609C18.3545 30.7612 18.3545 30.7612 18.2118 30.7615C18.1096 30.7611 18.0073 30.7606 17.9019 30.7601C17.7935 30.7597 17.685 30.7592 17.5732 30.7588C17.2208 30.7564 16.8684 30.7527 16.516 30.7484C16.4047 30.7473 16.2935 30.7461 16.179 30.7449C14.5308 30.7229 12.8948 30.6172 11.2527 30.4794C11.1145 30.468 11.1145 30.468 10.9736 30.4564C10.3562 30.405 9.7399 30.347 9.12399 30.2806C9.03589 30.2711 8.94779 30.2617 8.85702 30.2519C8.59911 30.2229 8.34185 30.1906 8.0845 30.157C8.00736 30.1484 7.93023 30.1397 7.85075 30.1307C7.35701 30.0611 7.10109 29.9439 6.78477 29.532C6.70839 29.1654 6.75649 29.0198 6.94266 28.6957C7.29516 28.4763 7.37957 28.487 7.77857 28.5262Z" fill="white"/>
<path d="M40.1887 33.2761C40.4753 33.4691 40.4753 33.4691 40.6566 33.744C40.6566 34.0656 40.6481 34.2873 40.4492 34.5481C40.2314 34.7197 40.029 34.7773 39.7629 34.8544C39.6608 34.8851 39.5587 34.9159 39.4535 34.9476C39.2392 35.0103 39.0247 35.0727 38.8102 35.1347C37.914 35.3999 37.914 35.3999 37.281 36.0583C37.1676 36.3364 37.1308 36.6048 37.0892 36.9019C37.0736 37.0115 37.0579 37.121 37.0417 37.2338C37.0304 37.3173 37.019 37.4008 37.0074 37.4868C37.0614 37.4861 37.1155 37.4855 37.1712 37.4849C37.7343 37.4787 38.2974 37.4744 38.8606 37.4713C39.0707 37.4699 39.2808 37.468 39.4909 37.4656C39.7931 37.4622 40.0952 37.4606 40.3974 37.4593C40.4912 37.4579 40.585 37.4564 40.6816 37.455C41.5052 37.4548 41.5052 37.4548 41.873 37.7675C42.0044 38.0303 41.9898 38.2248 41.9665 38.516C41.8 38.8095 41.7304 38.8754 41.4051 38.9839C41.2488 38.9939 41.0921 38.9987 40.9355 39.0004C40.8399 39.0016 40.7443 39.0028 40.6459 39.0041C40.5426 39.0048 40.4394 39.0055 40.3331 39.0062C40.2268 39.0069 40.1205 39.0077 40.0111 39.0085C39.786 39.0098 39.561 39.0108 39.336 39.0115C38.9922 39.0131 38.6485 39.0172 38.3047 39.0213C38.0861 39.0223 37.8675 39.0231 37.6488 39.0237C37.4948 39.0262 37.4948 39.0262 37.3378 39.0287C36.6026 39.0266 36.3068 38.9027 35.7617 38.4166C35.3522 37.9464 35.4782 37.2281 35.5103 36.6446C35.6402 35.6562 36.0485 34.875 36.8261 34.241C37.3212 33.9197 37.865 33.7443 38.4226 33.5627C38.5549 33.5196 38.5549 33.5196 38.6898 33.4756C39.2068 33.3179 39.6481 33.2268 40.1887 33.2761Z" fill="white"/>
<path d="M7.06483 33.2747C7.42999 33.3655 7.78098 33.487 8.13502 33.6139C8.27334 33.6604 8.27334 33.6604 8.41445 33.7078C9.3954 34.0524 10.1377 34.483 10.6205 35.4268C10.7335 35.7034 10.8244 35.9803 10.9012 36.2689C10.9183 36.3255 10.9354 36.3821 10.9531 36.4404C11.0778 37.0478 11.0992 37.7288 10.8368 38.2924C10.381 38.7605 10.0605 38.9911 9.40081 39.0005C9.25699 39.0028 9.25699 39.0028 9.11026 39.0051C8.67271 39.0092 8.23518 39.0131 7.79762 39.0152C7.56673 39.0168 7.33585 39.0193 7.10499 39.0229C6.77212 39.028 6.43937 39.0301 6.10647 39.0314C6.00334 39.0336 5.90021 39.0357 5.79395 39.0379C5.07911 39.0359 5.07911 39.0359 4.70728 38.763C4.53846 38.5146 4.53846 38.5146 4.47998 38.2339C4.56191 37.8406 4.68342 37.7257 5.00631 37.4853C5.34955 37.4206 5.68625 37.4309 6.03447 37.4397C6.1335 37.4403 6.23252 37.441 6.33455 37.4417C6.65017 37.4443 6.96563 37.4501 7.2812 37.4561C7.49545 37.4584 7.70969 37.4606 7.92394 37.4625C8.44856 37.4676 8.97308 37.4755 9.49762 37.4853C9.47053 37.2895 9.44259 37.0937 9.41429 36.898C9.39882 36.7889 9.38335 36.6799 9.36741 36.5676C9.27516 36.0836 9.08435 35.8249 8.70411 35.5237C8.23053 35.2154 7.66316 35.1221 7.12203 34.986C6.65414 34.8619 6.28525 34.7604 5.942 34.3975C5.83673 34.0759 5.83673 34.0759 5.84843 33.7425C6.17446 33.2482 6.51045 33.2059 7.06483 33.2747Z" fill="white"/>
<path d="M28.4136 39.676C28.5053 39.676 28.5969 39.676 28.6914 39.676C28.8849 39.6765 29.0784 39.6781 29.2718 39.6808C29.5676 39.6847 29.8631 39.6847 30.1588 39.684C30.3471 39.685 30.5353 39.6862 30.7236 39.6877C30.8118 39.6877 30.9 39.6877 30.9909 39.6877C31.7861 39.702 31.7861 39.702 32.1417 40.0122C32.2514 40.3823 32.2732 40.5801 32.1183 40.9362C31.9546 41.1351 31.9546 41.1351 31.6739 41.2287C31.5366 41.2381 31.399 41.2425 31.2614 41.2437C31.1368 41.2451 31.1368 41.2451 31.0097 41.2465C30.9202 41.2469 30.8307 41.2473 30.7385 41.2477C30.6464 41.2482 30.5542 41.2487 30.4592 41.2493C30.2642 41.2502 30.0693 41.2508 29.8743 41.2511C29.5759 41.252 29.2776 41.2549 28.9792 41.2579C28.7898 41.2585 28.6004 41.259 28.411 41.2594C28.3217 41.2605 28.2324 41.2617 28.1404 41.2629C28.0571 41.2626 27.9737 41.2623 27.8878 41.262C27.8147 41.2623 27.7416 41.2627 27.6662 41.263C27.4097 41.2196 27.2804 41.1209 27.089 40.9479C27.0155 40.7732 27.0155 40.7732 26.9896 40.5854C26.9788 40.5238 26.9681 40.4623 26.957 40.399C27.1029 39.6406 27.8002 39.6653 28.4136 39.676Z" fill="white"/>
<path d="M15.688 39.676C15.7797 39.676 15.8714 39.676 15.9658 39.676C16.1593 39.6765 16.3528 39.6781 16.5462 39.6808C16.842 39.6847 17.1375 39.6847 17.4333 39.684C17.6215 39.685 17.8097 39.6862 17.998 39.6877C18.0862 39.6877 18.1744 39.6877 18.2653 39.6877C19.0605 39.702 19.0605 39.702 19.4161 40.0122C19.5258 40.3823 19.5476 40.5801 19.3927 40.9362C19.229 41.1351 19.229 41.1351 18.9483 41.2287C18.811 41.2381 18.6734 41.2425 18.5358 41.2437C18.4112 41.2451 18.4112 41.2451 18.2841 41.2465C18.1946 41.2469 18.1051 41.2473 18.013 41.2477C17.9208 41.2482 17.8286 41.2487 17.7336 41.2493C17.5387 41.2502 17.3437 41.2508 17.1487 41.2511C16.8503 41.252 16.552 41.2549 16.2536 41.2579C16.0642 41.2585 15.8748 41.259 15.6854 41.2594C15.5961 41.2605 15.5068 41.2617 15.4148 41.2629C15.3315 41.2626 15.2481 41.2623 15.1622 41.262C15.0891 41.2623 15.016 41.2627 14.9406 41.263C14.6841 41.2196 14.5549 41.1209 14.3634 40.9479C14.2899 40.7732 14.2899 40.7732 14.264 40.5854C14.2532 40.5238 14.2425 40.4623 14.2314 40.399C14.3773 39.6406 15.0746 39.6653 15.688 39.676Z" fill="white"/>
</svg>
