<svg width="292" height="181" viewBox="0 0 292 181" fill="none" xmlns="http://www.w3.org/2000/svg">
<g clip-path="url(#clip0_0_57)">
<path d="M32.457 43.4201H14.5463C14.2646 43.4201 14.0381 43.1911 14.0381 42.9063C14.0381 42.6216 14.2646 42.3926 14.5463 42.3926H32.457C32.7388 42.3926 32.9653 42.6216 32.9653 42.9063C32.9653 43.1911 32.7388 43.4201 32.457 43.4201Z" fill="white" stroke="white"/>
<path d="M44.9728 43.4195H41.5167C41.235 43.4195 41.0085 43.1905 41.0085 42.9057C41.0085 42.621 41.235 42.392 41.5167 42.392H44.9728C45.5304 42.392 45.9835 41.934 45.9835 41.3703V37.2456C45.9835 34.0602 43.4161 31.468 40.2621 31.468H1.0165V41.3703C1.0165 41.934 1.46957 42.392 2.02719 42.392H5.48328C5.765 42.392 5.99153 42.621 5.99153 42.9057C5.99153 43.1905 5.765 43.4195 5.48328 43.4195H2.02719C0.90904 43.4195 0 42.5006 0 41.3703V30.9542C0 30.6694 0.226534 30.4404 0.508249 30.4404H40.265C43.9795 30.4404 47.0029 33.4936 47.0029 37.2456V41.3703C47.0029 42.5006 46.0939 43.4195 44.9757 43.4195H44.9728Z" fill="white" stroke="white"/>
<path d="M38.4239 31.4681C38.2874 31.4681 38.148 31.4123 38.0493 31.3007L31.1952 23.7235C31.0064 23.5151 31.0209 23.1892 31.2271 22.9984C31.4333 22.8075 31.7557 22.8222 31.9445 23.0306L38.7986 30.6079C38.9873 30.8163 38.9728 31.1422 38.7666 31.333C38.6679 31.424 38.5459 31.4681 38.4239 31.4681Z" fill="white" stroke="white"/>
<path d="M0.508086 31.4685C0.438383 31.4685 0.36868 31.4538 0.301882 31.4244C0.0463049 31.3099 -0.0698664 31.0075 0.0434006 30.7463L4.46953 20.6237C4.55085 20.4387 4.73382 20.3184 4.93421 20.3184H26.9951C27.2769 20.3184 27.5034 20.5474 27.5034 20.8321C27.5034 21.1169 27.2769 21.3459 26.9951 21.3459H5.2653L0.972771 31.1602C0.888547 31.351 0.702673 31.4655 0.508086 31.4655V31.4685Z" fill="white" stroke="white"/>
<path d="M17.7026 31.4694C17.4209 31.4694 17.1943 31.2404 17.1943 30.9557V20.8331C17.1943 20.5483 17.4209 20.3193 17.7026 20.3193C17.9843 20.3193 18.2108 20.5483 18.2108 20.8331V30.9557C18.2108 31.2404 17.9843 31.4694 17.7026 31.4694Z" fill="white" stroke="white"/>
<path d="M34.6931 24.3259C28.0568 24.3259 22.6606 18.8683 22.6606 12.1629C22.6606 5.45761 28.0597 0 34.6931 0C41.3265 0 46.7255 5.45761 46.7255 12.1629C46.7255 18.8683 41.3265 24.3259 34.6931 24.3259ZM34.6931 1.02752C28.6173 1.02752 23.6771 6.02422 23.6771 12.1629C23.6771 18.3017 28.6202 23.2983 34.6931 23.2983C40.7659 23.2983 45.709 18.3017 45.709 12.1629C45.709 6.02422 40.7688 1.02752 34.6931 1.02752Z" fill="white" stroke="white"/>
<path d="M37.239 15.246C37.1083 15.246 36.9776 15.1961 36.8788 15.0963L34.3376 12.5275C34.2417 12.4306 34.1895 12.3014 34.1895 12.1634V5.92782C34.1895 5.64305 34.416 5.41406 34.6977 5.41406C34.9794 5.41406 35.206 5.64305 35.206 5.92782V11.952L37.5991 14.3711C37.7966 14.5708 37.7966 14.8966 37.5991 15.0963C37.5003 15.1961 37.3696 15.246 37.239 15.246Z" fill="white" stroke="white"/>
<path d="M21.1929 14.9142H12.6572C12.3755 14.9142 12.1489 14.6853 12.1489 14.4005C12.1489 14.1157 12.3755 13.8867 12.6572 13.8867H21.1929C21.4746 13.8867 21.7011 14.1157 21.7011 14.4005C21.7011 14.6853 21.4746 14.9142 21.1929 14.9142Z" fill="white" stroke="white"/>
<path d="M23.9434 8.48162H16.9208C16.6391 8.48162 16.4126 8.25263 16.4126 7.96786C16.4126 7.68309 16.6391 7.4541 16.9208 7.4541H23.9434C24.2251 7.4541 24.4517 7.68309 24.4517 7.96786C24.4517 8.25263 24.2251 8.48162 23.9434 8.48162Z" fill="white" stroke="white"/>
<path d="M10.016 47.9997C7.23658 47.9997 4.97705 45.7156 4.97705 42.9061C4.97705 40.0965 7.23658 37.8125 10.016 37.8125C12.7954 37.8125 15.0549 40.0965 15.0549 42.9061C15.0549 45.7156 12.7954 47.9997 10.016 47.9997ZM10.016 38.84C7.79711 38.84 5.99355 40.6631 5.99355 42.9061C5.99355 45.149 7.79711 46.9721 10.016 46.9721C12.2349 46.9721 14.0384 45.149 14.0384 42.9061C14.0384 40.6631 12.2349 38.84 10.016 38.84Z" fill="white" stroke="white"/>
<path d="M36.9867 47.9997C34.2073 47.9997 31.9478 45.7156 31.9478 42.9061C31.9478 40.0965 34.2073 37.8125 36.9867 37.8125C39.7661 37.8125 42.0256 40.0965 42.0256 42.9061C42.0256 45.7156 39.7661 47.9997 36.9867 47.9997ZM36.9867 38.84C34.7678 38.84 32.9643 40.6631 32.9643 42.9061C32.9643 45.149 34.7678 46.9721 36.9867 46.9721C39.2056 46.9721 41.0091 45.149 41.0091 42.9061C41.0091 40.6631 39.2056 38.84 36.9867 38.84Z" fill="white" stroke="white"/>
<path d="M23.5007 37.4426H20.7446C20.4629 37.4426 20.2363 37.2136 20.2363 36.9288C20.2363 36.644 20.4629 36.415 20.7446 36.415H23.5007C23.7825 36.415 24.009 36.644 24.009 36.9288C24.009 37.2136 23.7825 37.4426 23.5007 37.4426Z" fill="white" stroke="white"/>
</g>
<path d="M12.0108 83.64C12.0108 82.548 11.8115 81.7507 11.4128 81.248C11.0315 80.728 10.4768 80.468 9.7488 80.468C8.8128 80.468 7.93746 80.7193 7.1228 81.222C6.32546 81.7073 5.6668 82.314 5.1468 83.042V93H2.3388V78.44H4.8868L5.1468 80.416C5.42413 80.1387 5.7448 79.87 6.1088 79.61C6.4728 79.3327 6.8628 79.09 7.2788 78.882C7.6948 78.6567 8.14546 78.4833 8.6308 78.362C9.11613 78.2233 9.63613 78.154 10.1908 78.154C11.6468 78.154 12.7821 78.6393 13.5968 79.61C14.4115 80.5633 14.8188 81.8807 14.8188 83.562V93H12.0108V83.64ZM12.3246 97.524C12.3246 97.1427 12.134 96.952 11.7526 96.952H10.7386V94.768H12.6886C13.4686 94.768 14.0406 94.9413 14.4046 95.288C14.7686 95.6347 14.9506 96.224 14.9506 97.056V100.072H12.3246V97.524ZM28.2106 93V83.9C28.2106 82.756 27.9073 81.898 27.3006 81.326C26.7113 80.754 25.8706 80.468 24.7786 80.468C24.3453 80.468 23.9293 80.52 23.5306 80.624C23.132 80.728 22.7593 80.8753 22.4126 81.066C22.0833 81.2567 21.7886 81.482 21.5286 81.742C21.286 81.9847 21.104 82.2447 20.9826 82.522L23.0626 84.342C22.56 84.55 22.1786 84.8447 21.9186 85.226C21.676 85.6073 21.5546 86.1013 21.5546 86.708V93H18.7466V86.864C18.7466 86.344 18.868 85.8673 19.1106 85.434C19.3706 84.9833 19.7086 84.6367 20.1246 84.394L18.0186 82.626C18.1746 82.054 18.452 81.4993 18.8506 80.962C19.2666 80.4247 19.7693 79.948 20.3586 79.532C20.948 79.116 21.6153 78.7867 22.3606 78.544C23.1233 78.284 23.938 78.154 24.8046 78.154C25.81 78.154 26.7026 78.3013 27.4826 78.596C28.2626 78.8733 28.9126 79.2633 29.4326 79.766C29.9526 80.2687 30.3426 80.8753 30.6026 81.586C30.88 82.2793 31.0186 83.0507 31.0186 83.9V93H28.2106ZM37.6039 87.852C37.6039 88.9613 37.8293 89.7587 38.2799 90.244C38.7306 90.7293 39.4153 90.972 40.3339 90.972C41.1486 90.972 41.9113 90.7207 42.6219 90.218C43.3499 89.698 43.8873 89.0653 44.2339 88.32V78.44H47.0419V93H44.4939L44.2339 91.05C43.7833 91.6567 43.1766 92.1853 42.4139 92.636C41.6686 93.0693 40.7499 93.286 39.6579 93.286C38.0806 93.286 36.8759 92.844 36.0439 91.96C35.2119 91.076 34.7959 89.7327 34.7959 87.93V78.44H37.6039V87.852ZM56.9293 93V83.64C56.9293 81.5253 56.0193 80.468 54.1993 80.468C53.4019 80.468 52.6306 80.6153 51.8853 80.91C51.1573 81.2047 50.5159 81.5513 49.9613 81.95L49.2333 79.896C49.8399 79.4453 50.6113 79.0467 51.5473 78.7C52.4833 78.336 53.4539 78.154 54.4593 78.154C56.1926 78.154 57.5013 78.648 58.3853 79.636C59.2866 80.624 59.7373 81.9933 59.7373 83.744V93H56.9293ZM73.2428 83.64C73.2428 82.548 73.0435 81.7507 72.6448 81.248C72.2635 80.728 71.7088 80.468 70.9808 80.468C70.0448 80.468 69.1695 80.7193 68.3548 81.222C67.5575 81.7073 66.8988 82.314 66.3788 83.042V93H63.5708V78.44H66.1188L66.3788 80.416C66.6562 80.1387 66.9768 79.87 67.3408 79.61C67.7048 79.3327 68.0948 79.09 68.5108 78.882C68.9268 78.6567 69.3775 78.4833 69.8628 78.362C70.3482 78.2233 70.8682 78.154 71.4228 78.154C72.8788 78.154 74.0142 78.6393 74.8288 79.61C75.6435 80.5633 76.0508 81.8807 76.0508 83.562V93H73.2428V83.64ZM64.6907 76.516V74.332H73.6087V71.914H76.1827V76.516H64.6907ZM89.4427 78.44H92.2507V87.67C92.2507 89.4727 91.8173 90.8593 90.9507 91.83C90.1013 92.8007 88.862 93.286 87.2327 93.286C86.21 93.286 85.326 93.0693 84.5807 92.636C83.8527 92.1853 83.2633 91.6567 82.8127 91.05L82.5527 93H80.0047V78.44H82.8127V88.32C83.1593 89.048 83.688 89.672 84.3987 90.192C85.1093 90.712 85.872 90.972 86.6867 90.972C88.524 90.972 89.4427 89.8453 89.4427 87.592V78.44ZM80.896 76.516V74.332H89.814V71.914H92.388V76.516H80.896ZM98.966 86.734C99.174 86.2833 99.512 85.902 99.98 85.59C100.448 85.278 101.046 85.122 101.774 85.122H103.438V87.514H101.748C100.257 87.514 99.33 88.1987 98.966 89.568V93H96.158V83.874C96.158 83.0767 96.2966 82.3313 96.574 81.638C96.8686 80.9273 97.2846 80.3207 97.822 79.818C98.3593 79.298 99.018 78.8907 99.798 78.596C100.595 78.3013 101.497 78.154 102.502 78.154C103.507 78.154 104.4 78.3013 105.18 78.596C105.977 78.8907 106.645 79.298 107.182 79.818C107.737 80.3207 108.153 80.9273 108.43 81.638C108.725 82.3313 108.872 83.0767 108.872 83.874V93H106.064V83.874C106.064 82.886 105.761 82.0713 105.154 81.43C104.565 80.7887 103.681 80.468 102.502 80.468C101.341 80.468 100.457 80.7887 99.85 81.43C99.2606 82.0713 98.966 82.886 98.966 83.874V86.734ZM106.348 76.516V71.836H109V76.516H106.348ZM118.828 93V83.64C118.828 81.5253 117.918 80.468 116.098 80.468C115.3 80.468 114.529 80.6153 113.784 80.91C113.056 81.2047 112.414 81.5513 111.86 81.95L111.132 79.896C111.738 79.4453 112.51 79.0467 113.446 78.7C114.382 78.336 115.352 78.154 116.358 78.154C118.091 78.154 119.4 78.648 120.284 79.636C121.185 80.624 121.636 81.9933 121.636 83.744V93H118.828Z" fill="#FFFE00"/>
<path d="M141.517 83.64C141.517 82.548 141.318 81.7507 140.919 81.248C140.538 80.728 139.983 80.468 139.255 80.468C138.319 80.468 137.444 80.7193 136.629 81.222C135.832 81.7073 135.173 82.314 134.653 83.042V93H131.845V78.44H134.393L134.653 80.416C134.931 80.1387 135.251 79.87 135.615 79.61C135.979 79.3327 136.369 79.09 136.785 78.882C137.201 78.6567 137.652 78.4833 138.137 78.362C138.623 78.2233 139.143 78.154 139.697 78.154C141.153 78.154 142.289 78.6393 143.103 79.61C143.918 80.5633 144.325 81.8807 144.325 83.562V93H141.517V83.64ZM141.831 97.524C141.831 97.1427 141.64 96.952 141.259 96.952H140.245V94.768H142.195C142.975 94.768 143.547 94.9413 143.911 95.288C144.275 95.6347 144.457 96.224 144.457 97.056V100.072H141.831V97.524ZM157.717 93V83.9C157.717 82.756 157.414 81.898 156.807 81.326C156.218 80.754 155.377 80.468 154.285 80.468C153.852 80.468 153.436 80.52 153.037 80.624C152.638 80.728 152.266 80.8753 151.919 81.066C151.59 81.2567 151.295 81.482 151.035 81.742C150.792 81.9847 150.61 82.2447 150.489 82.522L152.569 84.342C152.066 84.55 151.685 84.8447 151.425 85.226C151.182 85.6073 151.061 86.1013 151.061 86.708V93H148.253V86.864C148.253 86.344 148.374 85.8673 148.617 85.434C148.877 84.9833 149.215 84.6367 149.631 84.394L147.525 82.626C147.681 82.054 147.958 81.4993 148.357 80.962C148.773 80.4247 149.276 79.948 149.865 79.532C150.454 79.116 151.122 78.7867 151.867 78.544C152.63 78.284 153.444 78.154 154.311 78.154C155.316 78.154 156.209 78.3013 156.989 78.596C157.769 78.8733 158.419 79.2633 158.939 79.766C159.459 80.2687 159.849 80.8753 160.109 81.586C160.386 82.2793 160.525 83.0507 160.525 83.9V93H157.717ZM173.792 93V83.9C173.792 82.756 173.489 81.898 172.882 81.326C172.293 80.754 171.452 80.468 170.36 80.468C169.927 80.468 169.511 80.52 169.112 80.624C168.714 80.728 168.341 80.8753 167.994 81.066C167.665 81.2567 167.37 81.482 167.11 81.742C166.868 81.9847 166.686 82.2447 166.564 82.522L168.644 84.342C168.142 84.55 167.76 84.8447 167.5 85.226C167.258 85.6073 167.136 86.1013 167.136 86.708V93H164.328V86.864C164.328 86.344 164.45 85.8673 164.692 85.434C164.952 84.9833 165.29 84.6367 165.706 84.394L163.6 82.626C163.756 82.054 164.034 81.4993 164.432 80.962C164.848 80.4247 165.351 79.948 165.94 79.532C166.53 79.116 167.197 78.7867 167.942 78.544C168.705 78.284 169.52 78.154 170.386 78.154C171.392 78.154 172.284 78.3013 173.064 78.596C173.844 78.8733 174.494 79.2633 175.014 79.766C175.534 80.2687 175.924 80.8753 176.184 81.586C176.462 82.2793 176.6 83.0507 176.6 83.9V93H173.792ZM186.436 93V83.64C186.436 81.5253 185.526 80.468 183.706 80.468C182.908 80.468 182.137 80.6153 181.392 80.91C180.664 81.2047 180.022 81.5513 179.468 81.95L178.74 79.896C179.346 79.4453 180.118 79.0467 181.054 78.7C181.99 78.336 182.96 78.154 183.966 78.154C185.699 78.154 187.008 78.648 187.892 79.636C188.793 80.624 189.244 81.9933 189.244 83.744V93H186.436ZM197.159 90.998C198.199 90.998 198.988 90.8333 199.525 90.504C200.08 90.1573 200.357 89.6807 200.357 89.074C200.357 88.7447 200.253 88.4587 200.045 88.216C199.855 87.956 199.595 87.7307 199.265 87.54C198.936 87.332 198.572 87.1587 198.173 87.02C197.775 86.8813 197.367 86.7427 196.951 86.604C196.293 86.396 195.677 86.1707 195.105 85.928C194.533 85.6853 194.039 85.3907 193.623 85.044C193.207 84.6973 192.878 84.2813 192.635 83.796C192.393 83.3107 192.271 82.7213 192.271 82.028C192.271 81.456 192.401 80.936 192.661 80.468C192.921 79.9827 193.285 79.5753 193.753 79.246C194.239 78.8993 194.819 78.6307 195.495 78.44C196.171 78.2493 196.917 78.154 197.731 78.154C198.685 78.154 199.569 78.258 200.383 78.466C201.198 78.674 201.935 78.9513 202.593 79.298L201.865 81.378C201.259 81.0487 200.635 80.8147 199.993 80.676C199.352 80.5373 198.659 80.468 197.913 80.468C197.029 80.468 196.319 80.6067 195.781 80.884C195.261 81.1613 195.001 81.5513 195.001 82.054C195.001 82.3487 195.079 82.6087 195.235 82.834C195.409 83.042 195.634 83.2327 195.911 83.406C196.189 83.5793 196.518 83.744 196.899 83.9C197.281 84.0387 197.697 84.1773 198.147 84.316C198.927 84.576 199.621 84.8447 200.227 85.122C200.834 85.3993 201.345 85.7287 201.761 86.11C202.195 86.474 202.524 86.9073 202.749 87.41C202.975 87.9127 203.087 88.502 203.087 89.178C203.087 90.3913 202.611 91.3793 201.657 92.142C200.721 92.9047 199.283 93.286 197.341 93.286C195.296 93.286 193.632 92.9133 192.349 92.168L193.025 90.01C193.615 90.3047 194.256 90.5473 194.949 90.738C195.66 90.9113 196.397 90.998 197.159 90.998ZM209.041 78.44V93H206.233V78.44H209.041ZM223.053 93V84.264C223.053 83.1547 222.741 82.2447 222.117 81.534C221.51 80.8233 220.617 80.468 219.439 80.468C218.035 80.468 216.951 80.9533 216.189 81.924C215.426 82.8947 215.045 84.2207 215.045 85.902C215.045 86.838 215.149 87.6267 215.357 88.268C215.565 88.892 215.833 89.4033 216.163 89.802C216.492 90.1833 216.856 90.4607 217.255 90.634C217.671 90.79 218.078 90.868 218.477 90.868C218.823 90.868 219.144 90.8507 219.439 90.816C219.733 90.764 220.028 90.6687 220.323 90.53L220.843 92.636C220.513 92.8093 220.132 92.9393 219.699 93.026C219.283 93.13 218.806 93.182 218.269 93.182C217.489 93.182 216.735 93.0433 216.007 92.766C215.279 92.4713 214.629 92.0293 214.057 91.44C213.502 90.8333 213.06 90.0707 212.731 89.152C212.401 88.2333 212.237 87.15 212.237 85.902C212.237 84.81 212.384 83.796 212.679 82.86C212.991 81.9067 213.441 81.0833 214.031 80.39C214.637 79.6967 215.383 79.1507 216.267 78.752C217.168 78.3533 218.199 78.154 219.361 78.154C220.435 78.154 221.38 78.3187 222.195 78.648C223.009 78.96 223.685 79.3933 224.223 79.948C224.777 80.5027 225.185 81.1527 225.445 81.898C225.722 82.6433 225.861 83.4407 225.861 84.29V93H223.053ZM214.389 76.516V74.332H225.881V76.516H214.389ZM232.459 87.852C232.459 88.9613 232.684 89.7587 233.135 90.244C233.585 90.7293 234.27 90.972 235.189 90.972C236.003 90.972 236.766 90.7207 237.477 90.218C238.205 89.698 238.742 89.0653 239.089 88.32V78.44H241.897V93H239.349L239.089 91.05C238.638 91.6567 238.031 92.1853 237.269 92.636C236.523 93.0693 235.605 93.286 234.513 93.286C232.935 93.286 231.731 92.844 230.899 91.96C230.067 91.076 229.651 89.7327 229.651 87.93V78.44H232.459V87.852ZM255.45 83.64C255.45 82.548 255.251 81.7507 254.852 81.248C254.471 80.728 253.916 80.468 253.188 80.468C252.252 80.468 251.377 80.7193 250.562 81.222C249.765 81.7073 249.106 82.314 248.586 83.042V93H245.778V78.44H248.326L248.586 80.416C248.863 80.1387 249.184 79.87 249.548 79.61C249.912 79.3327 250.302 79.09 250.718 78.882C251.134 78.6567 251.585 78.4833 252.07 78.362C252.555 78.2233 253.075 78.154 253.63 78.154C255.086 78.154 256.221 78.6393 257.036 79.61C257.851 80.5633 258.258 81.8807 258.258 83.562V93H255.45V83.64ZM268.088 93V83.64C268.088 81.5253 267.178 80.468 265.358 80.468C264.561 80.468 263.789 80.6153 263.044 80.91C262.316 81.2047 261.675 81.5513 261.12 81.95L260.392 79.896C260.999 79.4453 261.77 79.0467 262.706 78.7C263.642 78.336 264.613 78.154 265.618 78.154C267.351 78.154 268.66 78.648 269.544 79.636C270.445 80.624 270.896 81.9933 270.896 83.744V93H268.088ZM277.407 93L273.013 78.44H275.821L279.513 90.686H279.825C280.311 90.686 280.779 90.5647 281.229 90.322C281.68 90.0793 282.079 89.724 282.425 89.256C282.772 88.788 283.049 88.2247 283.257 87.566C283.465 86.89 283.569 86.136 283.569 85.304C283.569 83.5533 283.283 82.314 282.711 81.586C282.157 80.8407 281.455 80.468 280.605 80.468C280.033 80.468 279.479 80.572 278.941 80.78L278.525 78.648C278.837 78.492 279.21 78.3707 279.643 78.284C280.094 78.1973 280.527 78.154 280.943 78.154C281.723 78.154 282.443 78.3187 283.101 78.648C283.777 78.96 284.358 79.428 284.843 80.052C285.329 80.6587 285.701 81.404 285.961 82.288C286.239 83.172 286.377 84.1773 286.377 85.304C286.377 86.5 286.204 87.5747 285.857 88.528C285.528 89.464 285.069 90.27 284.479 90.946C283.89 91.6047 283.188 92.116 282.373 92.48C281.576 92.8267 280.701 93 279.747 93H277.407Z" fill="white"/>
<path d="M1.17 126V117.6H2.46V126H1.17ZM7.08281 125.055C7.76281 125.055 8.27781 124.925 8.62781 124.665C8.97781 124.395 9.15281 124.09 9.15281 123.75C9.15281 123.54 9.08781 123.355 8.95781 123.195C8.83781 123.035 8.67281 122.895 8.46281 122.775C8.26281 122.645 8.03281 122.535 7.77281 122.445C7.52281 122.355 7.26781 122.27 7.00781 122.19C6.62781 122.08 6.27281 121.96 5.94281 121.83C5.62281 121.69 5.34281 121.525 5.10281 121.335C4.87281 121.135 4.69281 120.905 4.56281 120.645C4.43281 120.375 4.36781 120.055 4.36781 119.685C4.36781 118.975 4.64781 118.425 5.20781 118.035C5.77781 117.645 6.54781 117.45 7.51781 117.45C7.98781 117.45 8.44781 117.5 8.89781 117.6C9.34781 117.69 9.74781 117.825 10.0978 118.005L9.76781 119.025C9.15781 118.705 8.44781 118.545 7.63781 118.545C7.00781 118.545 6.51281 118.655 6.15281 118.875C5.80281 119.095 5.62781 119.365 5.62781 119.685C5.62781 119.865 5.67781 120.025 5.77781 120.165C5.87781 120.305 6.01281 120.43 6.18281 120.54C6.35281 120.64 6.54781 120.735 6.76781 120.825C6.98781 120.905 7.22281 120.985 7.47281 121.065C7.94281 121.215 8.35781 121.375 8.71781 121.545C9.08781 121.705 9.39781 121.89 9.64781 122.1C9.89781 122.31 10.0878 122.55 10.2178 122.82C10.3478 123.09 10.4128 123.41 10.4128 123.78C10.4128 124.49 10.1428 125.065 9.60281 125.505C9.07281 125.935 8.25281 126.15 7.14281 126.15C6.59281 126.15 6.08281 126.1 5.61281 126C5.15281 125.9 4.76281 125.755 4.44281 125.565L4.75781 124.56C5.06781 124.71 5.42281 124.83 5.82281 124.92C6.22281 125.01 6.64281 125.055 7.08281 125.055ZM15.8753 126V120.585C15.8753 119.235 15.2803 118.56 14.0903 118.56C13.6103 118.56 13.1603 118.65 12.7403 118.83C12.3203 119 11.9653 119.205 11.6753 119.445L11.3303 118.47C11.4803 118.34 11.6603 118.215 11.8703 118.095C12.0903 117.965 12.3253 117.855 12.5753 117.765C12.8353 117.665 13.1003 117.59 13.3703 117.54C13.6503 117.48 13.9303 117.45 14.2103 117.45C15.1903 117.45 15.9253 117.73 16.4153 118.29C16.9153 118.84 17.1653 119.625 17.1653 120.645V126H15.8753ZM19.9198 126V117.915C19.9198 117.495 20.0148 117.12 20.2048 116.79C20.3948 116.45 20.5998 116.135 20.8198 115.845C21.0498 115.555 21.2598 115.275 21.4498 115.005C21.6398 114.735 21.7348 114.455 21.7348 114.165C21.7348 113.845 21.6398 113.585 21.4498 113.385C21.2698 113.185 20.9598 113.085 20.5198 113.085C20.1498 113.085 19.7598 113.17 19.3498 113.34C18.9398 113.51 18.5598 113.77 18.2098 114.12L17.8048 113.22C17.9348 113.04 18.0998 112.875 18.2998 112.725C18.4998 112.565 18.7248 112.43 18.9748 112.32C19.2248 112.21 19.4898 112.125 19.7698 112.065C20.0498 111.995 20.3298 111.96 20.6098 111.96C21.0098 111.96 21.3648 112.02 21.6748 112.14C21.9848 112.25 22.2448 112.405 22.4548 112.605C22.6648 112.805 22.8198 113.04 22.9198 113.31C23.0298 113.57 23.0848 113.855 23.0848 114.165C23.0848 114.535 22.9848 114.875 22.7848 115.185C22.5948 115.495 22.3798 115.805 22.1398 116.115C21.9098 116.415 21.6948 116.735 21.4948 117.075C21.3048 117.415 21.2098 117.8 21.2098 118.23V126H19.9198ZM28.776 126V121.95H26.676C25.966 121.95 25.406 122.09 24.996 122.37C24.586 122.64 24.381 123.06 24.381 123.63C24.381 124.12 24.526 124.485 24.816 124.725C25.106 124.955 25.471 125.07 25.911 125.07C26.121 125.07 26.341 125.05 26.571 125.01C26.811 124.96 27.021 124.895 27.201 124.815L27.411 125.88C27.191 125.96 26.936 126.025 26.646 126.075C26.356 126.125 26.066 126.15 25.776 126.15C25.396 126.15 25.041 126.1 24.711 126C24.391 125.89 24.111 125.735 23.871 125.535C23.631 125.325 23.441 125.065 23.301 124.755C23.161 124.435 23.091 124.065 23.091 123.645C23.091 122.765 23.401 122.08 24.021 121.59C24.641 121.09 25.576 120.84 26.826 120.84H28.776V120.645C28.776 120.335 28.741 120.05 28.671 119.79C28.601 119.53 28.481 119.305 28.311 119.115C28.151 118.925 27.936 118.78 27.666 118.68C27.406 118.58 27.086 118.53 26.706 118.53C26.096 118.53 25.546 118.615 25.056 118.785C24.576 118.955 24.156 119.165 23.796 119.415L23.376 118.5C23.536 118.37 23.736 118.24 23.976 118.11C24.226 117.98 24.496 117.87 24.786 117.78C25.086 117.68 25.401 117.6 25.731 117.54C26.061 117.48 26.386 117.45 26.706 117.45C27.346 117.45 27.911 117.56 28.401 117.78L29.046 117.015H30.516L29.331 118.44C29.581 118.71 29.766 119.03 29.886 119.4C30.006 119.77 30.066 120.18 30.066 120.63V126H28.776ZM28.8836 116.46V113.97H30.1436V116.46H28.8836ZM32.9036 126V117.915C32.9036 117.495 32.9986 117.12 33.1886 116.79C33.3786 116.45 33.5836 116.135 33.8036 115.845C34.0336 115.555 34.2436 115.275 34.4336 115.005C34.6236 114.735 34.7186 114.455 34.7186 114.165C34.7186 113.845 34.6236 113.585 34.4336 113.385C34.2536 113.185 33.9436 113.085 33.5036 113.085C33.1336 113.085 32.7436 113.17 32.3336 113.34C31.9236 113.51 31.5436 113.77 31.1936 114.12L30.7886 113.22C30.9186 113.04 31.0836 112.875 31.2836 112.725C31.4836 112.565 31.7086 112.43 31.9586 112.32C32.2086 112.21 32.4736 112.125 32.7536 112.065C33.0336 111.995 33.3136 111.96 33.5936 111.96C33.9936 111.96 34.3486 112.02 34.6586 112.14C34.9686 112.25 35.2286 112.405 35.4386 112.605C35.6486 112.805 35.8036 113.04 35.9036 113.31C36.0136 113.57 36.0686 113.855 36.0686 114.165C36.0686 114.535 35.9686 114.875 35.7686 115.185C35.5786 115.495 35.3636 115.805 35.1236 116.115C34.8936 116.415 34.6786 116.735 34.4786 117.075C34.2886 117.415 34.1936 117.8 34.1936 118.23V126H32.9036ZM38.1448 126L37.3348 122.625C37.3048 122.495 37.2598 122.41 37.1998 122.37C37.1398 122.32 37.0548 122.295 36.9448 122.295H36.3748V121.185H37.0498C37.4698 121.185 37.7948 121.265 38.0248 121.425C38.2548 121.585 38.4248 121.9 38.5348 122.37L39.1198 124.89H39.3148C39.6148 124.89 39.8998 124.815 40.1698 124.665C40.4498 124.515 40.6948 124.3 40.9048 124.02C41.1248 123.73 41.2998 123.375 41.4298 122.955C41.5598 122.535 41.6248 122.055 41.6248 121.515C41.6248 120.465 41.3998 119.71 40.9498 119.25C40.4998 118.79 39.8648 118.56 39.0448 118.56C38.4748 118.56 37.9398 118.665 37.4398 118.875C36.9398 119.075 36.5098 119.33 36.1498 119.64L35.7448 118.635C36.1648 118.285 36.6598 118 37.2298 117.78C37.7998 117.56 38.3998 117.45 39.0298 117.45C40.3298 117.45 41.2998 117.81 41.9398 118.53C42.5898 119.25 42.9148 120.25 42.9148 121.53C42.9148 122.19 42.8248 122.795 42.6448 123.345C42.4648 123.885 42.2098 124.355 41.8798 124.755C41.5498 125.145 41.1548 125.45 40.6948 125.67C40.2448 125.89 39.7448 126 39.1948 126H38.1448ZM44.9096 126V117.6H46.1996V126H44.9096ZM48.3175 124.29C48.6775 124.51 49.0575 124.69 49.4575 124.83C49.8675 124.97 50.3125 125.04 50.7925 125.04C51.5525 125.04 52.1575 124.78 52.6075 124.26C53.0675 123.74 53.2975 122.94 53.2975 121.86C53.2975 120.72 53.0775 119.885 52.6375 119.355C52.2075 118.825 51.5925 118.56 50.7925 118.56C50.2625 118.56 49.8075 118.63 49.4275 118.77C49.0475 118.9 48.6675 119.09 48.2875 119.34L47.9875 118.305C48.3875 118.045 48.8375 117.84 49.3375 117.69C49.8475 117.53 50.3675 117.45 50.8975 117.45C52.1075 117.45 53.0225 117.83 53.6425 118.59C54.2725 119.34 54.5875 120.39 54.5875 121.74C54.5875 123.18 54.2525 124.275 53.5825 125.025C52.9225 125.775 51.9825 126.15 50.7625 126.15C50.1925 126.15 49.6875 126.08 49.2475 125.94C48.8075 125.8 48.3925 125.6 48.0025 125.34L48.3175 124.29ZM61.643 126V121.95H59.543C58.833 121.95 58.273 122.09 57.863 122.37C57.453 122.64 57.248 123.06 57.248 123.63C57.248 124.12 57.393 124.485 57.683 124.725C57.973 124.955 58.338 125.07 58.778 125.07C58.988 125.07 59.208 125.05 59.438 125.01C59.678 124.96 59.888 124.895 60.068 124.815L60.278 125.88C60.058 125.96 59.803 126.025 59.513 126.075C59.223 126.125 58.933 126.15 58.643 126.15C58.263 126.15 57.908 126.1 57.578 126C57.258 125.89 56.978 125.735 56.738 125.535C56.498 125.325 56.308 125.065 56.168 124.755C56.028 124.435 55.958 124.065 55.958 123.645C55.958 122.765 56.268 122.08 56.888 121.59C57.508 121.09 58.443 120.84 59.693 120.84H61.643V120.645C61.643 119.985 61.488 119.47 61.178 119.1C60.868 118.72 60.318 118.53 59.528 118.53C58.958 118.53 58.428 118.615 57.938 118.785C57.448 118.955 57.023 119.165 56.663 119.415L56.243 118.5C56.393 118.37 56.583 118.245 56.813 118.125C57.053 117.995 57.318 117.88 57.608 117.78C57.908 117.68 58.228 117.6 58.568 117.54C58.908 117.48 59.263 117.45 59.633 117.45C60.713 117.45 61.533 117.74 62.093 118.32C62.653 118.89 62.933 119.66 62.933 120.63V126H61.643ZM68.8305 126V120.585C68.8305 119.235 68.2355 118.56 67.0455 118.56C66.5655 118.56 66.1155 118.65 65.6955 118.83C65.2755 119 64.9205 119.205 64.6305 119.445L64.2855 118.47C64.4355 118.34 64.6155 118.215 64.8255 118.095C65.0455 117.965 65.2805 117.855 65.5305 117.765C65.7905 117.665 66.0555 117.59 66.3255 117.54C66.6055 117.48 66.8855 117.45 67.1655 117.45C68.1455 117.45 68.8805 117.73 69.3705 118.29C69.8705 118.84 70.1205 119.625 70.1205 120.645V126H68.8305ZM77.24 117.6H78.53V123.105C78.53 124.085 78.285 124.84 77.795 125.37C77.315 125.89 76.525 126.15 75.425 126.15C74.875 126.15 74.4 126.08 74 125.94C73.61 125.79 73.285 125.585 73.025 125.325C72.775 125.065 72.59 124.765 72.47 124.425C72.35 124.075 72.29 123.695 72.29 123.285V122.13C72.29 121.84 72.365 121.57 72.515 121.32C72.675 121.07 72.85 120.835 73.04 120.615C73.23 120.395 73.4 120.19 73.55 120C73.71 119.8 73.79 119.61 73.79 119.43V119.07C73.79 118.96 73.76 118.875 73.7 118.815C73.65 118.745 73.555 118.71 73.415 118.71H72.38V117.6H73.565C74.105 117.6 74.48 117.725 74.69 117.975C74.91 118.215 75.02 118.545 75.02 118.965V119.415C75.02 119.685 74.94 119.94 74.78 120.18C74.63 120.42 74.465 120.65 74.285 120.87C74.105 121.08 73.935 121.29 73.775 121.5C73.625 121.71 73.55 121.92 73.55 122.13V123.285C73.55 123.825 73.69 124.255 73.97 124.575C74.26 124.895 74.745 125.055 75.425 125.055C76.045 125.055 76.5 124.92 76.79 124.65C77.09 124.37 77.24 123.86 77.24 123.12V117.6ZM82.155 122.295C82.045 122.295 81.95 122.335 81.87 122.415C81.8 122.485 81.765 122.59 81.765 122.73V123.135C81.765 123.795 81.95 124.28 82.32 124.59C82.69 124.89 83.255 125.04 84.015 125.04C84.815 125.04 85.44 124.785 85.89 124.275C86.34 123.755 86.565 122.915 86.565 121.755C86.565 120.725 86.34 119.935 85.89 119.385C85.44 118.835 84.81 118.56 84 118.56C83.34 118.56 82.755 118.655 82.245 118.845C81.745 119.025 81.305 119.26 80.925 119.55L80.505 118.59C80.675 118.45 80.885 118.315 81.135 118.185C81.385 118.045 81.66 117.92 81.96 117.81C82.26 117.7 82.58 117.615 82.92 117.555C83.27 117.485 83.63 117.45 84 117.45C85.26 117.45 86.215 117.84 86.865 118.62C87.525 119.4 87.855 120.465 87.855 121.815C87.855 123.235 87.525 124.315 86.865 125.055C86.215 125.785 85.275 126.15 84.045 126.15C82.835 126.15 81.935 125.89 81.345 125.37C80.765 124.85 80.475 124.105 80.475 123.135V122.685C80.475 122.165 80.61 121.785 80.88 121.545C81.16 121.305 81.535 121.185 82.005 121.185H83.355V122.295H82.155ZM91.422 126L88.887 117.6H90.207L92.427 124.89H92.607C92.937 124.89 93.247 124.82 93.537 124.68C93.837 124.53 94.102 124.32 94.332 124.05C94.562 123.77 94.742 123.425 94.872 123.015C95.012 122.605 95.082 122.135 95.082 121.605C95.082 121.055 95.032 120.585 94.932 120.195C94.842 119.805 94.712 119.49 94.542 119.25C94.382 119.01 94.187 118.835 93.957 118.725C93.737 118.615 93.502 118.56 93.252 118.56C93.082 118.56 92.917 118.575 92.757 118.605C92.597 118.625 92.457 118.66 92.337 118.71L92.142 117.675C92.302 117.595 92.492 117.54 92.712 117.51C92.942 117.47 93.142 117.45 93.312 117.45C93.762 117.45 94.172 117.545 94.542 117.735C94.922 117.915 95.247 118.185 95.517 118.545C95.787 118.895 95.997 119.33 96.147 119.85C96.297 120.36 96.372 120.945 96.372 121.605C96.372 122.285 96.272 122.895 96.072 123.435C95.882 123.975 95.617 124.435 95.277 124.815C94.937 125.195 94.537 125.49 94.077 125.7C93.617 125.9 93.117 126 92.577 126H91.422ZM101.854 117.45C102.424 117.45 102.924 117.535 103.354 117.705C103.794 117.865 104.164 118.09 104.464 118.38C104.764 118.67 104.989 119.01 105.139 119.4C105.299 119.79 105.379 120.215 105.379 120.675V126H104.089V120.66C104.089 120.03 103.904 119.525 103.534 119.145C103.164 118.755 102.604 118.56 101.854 118.56C101.104 118.56 100.544 118.755 100.174 119.145C99.8041 119.525 99.6191 120.03 99.6191 120.66V122.49C99.7491 122.2 99.9541 121.955 100.234 121.755C100.514 121.555 100.864 121.455 101.284 121.455H102.349V122.58H101.284C100.884 122.58 100.539 122.695 100.249 122.925C99.9591 123.145 99.7491 123.48 99.6191 123.93V126H98.3291V120.675C98.3291 120.215 98.4041 119.79 98.5541 119.4C98.7141 119.01 98.9441 118.67 99.2441 118.38C99.5441 118.09 99.9091 117.865 100.339 117.705C100.779 117.535 101.284 117.45 101.854 117.45ZM104.196 129.915V128.43C104.196 128.22 104.091 128.115 103.881 128.115H103.296V127.035H104.271C104.691 127.035 104.996 127.135 105.186 127.335C105.366 127.535 105.456 127.86 105.456 128.31V129.915H104.196ZM118.116 126L118.041 124.77C117.751 125.19 117.411 125.525 117.021 125.775C116.641 126.025 116.151 126.15 115.551 126.15C114.701 126.15 114.056 125.895 113.616 125.385C113.186 124.875 112.971 124.185 112.971 123.315V120.705C112.971 119.985 112.796 119.45 112.446 119.1C112.106 118.74 111.621 118.56 110.991 118.56C110.481 118.56 110.016 118.685 109.596 118.935C109.186 119.175 108.901 119.495 108.741 119.895L109.881 120.945C109.611 121.085 109.411 121.26 109.281 121.47C109.151 121.67 109.086 121.93 109.086 122.25V124.53C109.086 124.65 109.106 124.745 109.146 124.815C109.196 124.885 109.291 124.92 109.431 124.92H110.241V126H109.086C108.676 126 108.356 125.875 108.126 125.625C107.906 125.365 107.796 125.04 107.796 124.65V122.43C107.796 122.14 107.866 121.865 108.006 121.605C108.146 121.345 108.346 121.15 108.606 121.02L107.376 119.97C107.456 119.65 107.601 119.34 107.811 119.04C108.031 118.73 108.296 118.46 108.606 118.23C108.926 117.99 109.286 117.8 109.686 117.66C110.096 117.52 110.531 117.45 110.991 117.45C111.541 117.45 112.021 117.53 112.431 117.69C112.841 117.85 113.181 118.075 113.451 118.365C113.721 118.655 113.921 119 114.051 119.4C114.191 119.79 114.261 120.225 114.261 120.705V123.3C114.261 123.84 114.376 124.265 114.606 124.575C114.836 124.885 115.171 125.04 115.611 125.04C115.881 125.04 116.136 124.995 116.376 124.905C116.626 124.815 116.856 124.69 117.066 124.53C117.276 124.37 117.461 124.19 117.621 123.99C117.791 123.78 117.931 123.56 118.041 123.33V117.6H119.331V126H118.116ZM128.914 125.04C129.634 125.04 130.164 124.85 130.504 124.47C130.854 124.09 131.029 123.57 131.029 122.91V117.6H132.319V122.91C132.319 123.95 132.029 124.75 131.449 125.31C130.869 125.87 130.024 126.15 128.914 126.15C127.804 126.15 126.959 125.87 126.379 125.31C125.799 124.75 125.509 123.95 125.509 122.91V117.6H126.799V122.91C126.799 123.57 126.969 124.09 127.309 124.47C127.659 124.85 128.194 125.04 128.914 125.04ZM136.887 125.055C137.567 125.055 138.082 124.925 138.432 124.665C138.782 124.395 138.957 124.09 138.957 123.75C138.957 123.54 138.892 123.355 138.762 123.195C138.642 123.035 138.477 122.895 138.267 122.775C138.067 122.645 137.837 122.535 137.577 122.445C137.327 122.355 137.072 122.27 136.812 122.19C136.432 122.08 136.077 121.96 135.747 121.83C135.427 121.69 135.147 121.525 134.907 121.335C134.677 121.135 134.497 120.905 134.367 120.645C134.237 120.375 134.172 120.055 134.172 119.685C134.172 118.975 134.452 118.425 135.012 118.035C135.582 117.645 136.352 117.45 137.322 117.45C137.792 117.45 138.252 117.5 138.702 117.6C139.152 117.69 139.552 117.825 139.902 118.005L139.572 119.025C138.962 118.705 138.252 118.545 137.442 118.545C136.812 118.545 136.317 118.655 135.957 118.875C135.607 119.095 135.432 119.365 135.432 119.685C135.432 119.865 135.482 120.025 135.582 120.165C135.682 120.305 135.817 120.43 135.987 120.54C136.157 120.64 136.352 120.735 136.572 120.825C136.792 120.905 137.027 120.985 137.277 121.065C137.747 121.215 138.162 121.375 138.522 121.545C138.892 121.705 139.202 121.89 139.452 122.1C139.702 122.31 139.892 122.55 140.022 122.82C140.152 123.09 140.217 123.41 140.217 123.78C140.217 124.49 139.947 125.065 139.407 125.505C138.877 125.935 138.057 126.15 136.947 126.15C136.397 126.15 135.887 126.1 135.417 126C134.957 125.9 134.567 125.755 134.247 125.565L134.562 124.56C134.872 124.71 135.227 124.83 135.627 124.92C136.027 125.01 136.447 125.055 136.887 125.055ZM133.424 116.46V115.41H139.859V116.46H133.424ZM147.704 126V120.705C147.704 119.985 147.519 119.45 147.149 119.1C146.779 118.74 146.249 118.56 145.559 118.56C144.989 118.56 144.484 118.685 144.044 118.935C143.604 119.175 143.304 119.495 143.144 119.895L144.284 120.945C144.014 121.085 143.814 121.26 143.684 121.47C143.554 121.67 143.489 121.93 143.489 122.25V126H142.199V122.43C142.199 122.14 142.269 121.865 142.409 121.605C142.549 121.345 142.749 121.15 143.009 121.02L141.779 119.97C141.859 119.65 142.009 119.34 142.229 119.04C142.459 118.73 142.739 118.46 143.069 118.23C143.399 117.99 143.774 117.8 144.194 117.66C144.624 117.52 145.079 117.45 145.559 117.45C146.129 117.45 146.629 117.53 147.059 117.69C147.489 117.85 147.844 118.075 148.124 118.365C148.414 118.655 148.629 119 148.769 119.4C148.919 119.79 148.994 120.225 148.994 120.705V126H147.704ZM154.882 126V120.585C154.882 119.235 154.287 118.56 153.097 118.56C152.617 118.56 152.167 118.65 151.747 118.83C151.327 119 150.972 119.205 150.682 119.445L150.337 118.47C150.487 118.34 150.667 118.215 150.877 118.095C151.097 117.965 151.332 117.855 151.582 117.765C151.842 117.665 152.107 117.59 152.377 117.54C152.657 117.48 152.937 117.45 153.217 117.45C154.197 117.45 154.932 117.73 155.422 118.29C155.922 118.84 156.172 119.625 156.172 120.645V126H154.882ZM160.741 125.055C161.421 125.055 161.936 124.925 162.286 124.665C162.636 124.395 162.811 124.09 162.811 123.75C162.811 123.54 162.746 123.355 162.616 123.195C162.496 123.035 162.331 122.895 162.121 122.775C161.921 122.645 161.691 122.535 161.431 122.445C161.181 122.355 160.926 122.27 160.666 122.19C160.286 122.08 159.931 121.96 159.601 121.83C159.281 121.69 159.001 121.525 158.761 121.335C158.531 121.135 158.351 120.905 158.221 120.645C158.091 120.375 158.026 120.055 158.026 119.685C158.026 118.975 158.306 118.425 158.866 118.035C159.436 117.645 160.206 117.45 161.176 117.45C161.646 117.45 162.106 117.5 162.556 117.6C163.006 117.69 163.406 117.825 163.756 118.005L163.426 119.025C162.816 118.705 162.106 118.545 161.296 118.545C160.666 118.545 160.171 118.655 159.811 118.875C159.461 119.095 159.286 119.365 159.286 119.685C159.286 119.865 159.336 120.025 159.436 120.165C159.536 120.305 159.671 120.43 159.841 120.54C160.011 120.64 160.206 120.735 160.426 120.825C160.646 120.905 160.881 120.985 161.131 121.065C161.601 121.215 162.016 121.375 162.376 121.545C162.746 121.705 163.056 121.89 163.306 122.1C163.556 122.31 163.746 122.55 163.876 122.82C164.006 123.09 164.071 123.41 164.071 123.78C164.071 124.49 163.801 125.065 163.261 125.505C162.731 125.935 161.911 126.15 160.801 126.15C160.251 126.15 159.741 126.1 159.271 126C158.811 125.9 158.421 125.755 158.101 125.565L158.416 124.56C158.726 124.71 159.081 124.83 159.481 124.92C159.881 125.01 160.301 125.055 160.741 125.055ZM168.214 125.055C168.894 125.055 169.409 124.925 169.759 124.665C170.109 124.395 170.284 124.09 170.284 123.75C170.284 123.54 170.219 123.355 170.089 123.195C169.969 123.035 169.804 122.895 169.594 122.775C169.394 122.645 169.164 122.535 168.904 122.445C168.654 122.355 168.399 122.27 168.139 122.19C167.759 122.08 167.404 121.96 167.074 121.83C166.754 121.69 166.474 121.525 166.234 121.335C166.004 121.135 165.824 120.905 165.694 120.645C165.564 120.375 165.499 120.055 165.499 119.685C165.499 118.975 165.779 118.425 166.339 118.035C166.909 117.645 167.679 117.45 168.649 117.45C169.119 117.45 169.579 117.5 170.029 117.6C170.479 117.69 170.879 117.825 171.229 118.005L170.899 119.025C170.289 118.705 169.579 118.545 168.769 118.545C168.139 118.545 167.644 118.655 167.284 118.875C166.934 119.095 166.759 119.365 166.759 119.685C166.759 119.865 166.809 120.025 166.909 120.165C167.009 120.305 167.144 120.43 167.314 120.54C167.484 120.64 167.679 120.735 167.899 120.825C168.119 120.905 168.354 120.985 168.604 121.065C169.074 121.215 169.489 121.375 169.849 121.545C170.219 121.705 170.529 121.89 170.779 122.1C171.029 122.31 171.219 122.55 171.349 122.82C171.479 123.09 171.544 123.41 171.544 123.78C171.544 124.49 171.274 125.065 170.734 125.505C170.204 125.935 169.384 126.15 168.274 126.15C167.724 126.15 167.214 126.1 166.744 126C166.284 125.9 165.894 125.755 165.574 125.565L165.889 124.56C166.199 124.71 166.554 124.83 166.954 124.92C167.354 125.01 167.774 125.055 168.214 125.055ZM173.181 124.29C173.541 124.51 173.921 124.69 174.321 124.83C174.731 124.97 175.176 125.04 175.656 125.04C176.416 125.04 177.021 124.78 177.471 124.26C177.931 123.74 178.161 122.94 178.161 121.86C178.161 120.72 177.941 119.885 177.501 119.355C177.071 118.825 176.456 118.56 175.656 118.56C175.126 118.56 174.671 118.63 174.291 118.77C173.911 118.9 173.531 119.09 173.151 119.34L172.851 118.305C173.251 118.045 173.701 117.84 174.201 117.69C174.711 117.53 175.231 117.45 175.761 117.45C176.971 117.45 177.886 117.83 178.506 118.59C179.136 119.34 179.451 120.39 179.451 121.74C179.451 123.18 179.116 124.275 178.446 125.025C177.786 125.775 176.846 126.15 175.626 126.15C175.056 126.15 174.551 126.08 174.111 125.94C173.671 125.8 173.256 125.6 172.866 125.34L173.181 124.29ZM187.242 126V121.005C187.242 120.655 187.197 120.33 187.107 120.03C187.027 119.73 186.897 119.475 186.717 119.265C186.537 119.045 186.307 118.875 186.027 118.755C185.757 118.625 185.432 118.56 185.052 118.56C184.162 118.56 183.482 118.855 183.012 119.445C182.552 120.025 182.322 120.84 182.322 121.89C182.322 122.47 182.387 122.96 182.517 123.36C182.657 123.75 182.832 124.065 183.042 124.305C183.262 124.545 183.502 124.72 183.762 124.83C184.022 124.93 184.282 124.98 184.542 124.98C184.752 124.98 184.932 124.965 185.082 124.935C185.242 124.905 185.402 124.86 185.562 124.8L185.802 125.82C185.632 125.9 185.432 125.965 185.202 126.015C184.972 126.065 184.732 126.09 184.482 126.09C184.032 126.09 183.597 126.005 183.177 125.835C182.757 125.665 182.387 125.41 182.067 125.07C181.757 124.72 181.507 124.285 181.317 123.765C181.127 123.235 181.032 122.61 181.032 121.89C181.032 121.26 181.112 120.675 181.272 120.135C181.442 119.595 181.692 119.13 182.022 118.74C182.352 118.34 182.767 118.025 183.267 117.795C183.767 117.565 184.352 117.45 185.022 117.45C185.632 117.45 186.157 117.545 186.597 117.735C187.037 117.925 187.397 118.185 187.677 118.515C187.967 118.845 188.182 119.225 188.322 119.655C188.462 120.085 188.532 120.54 188.532 121.02V126H187.242ZM190.902 126V117.6H192.192V126H190.902ZM196.815 125.055C197.495 125.055 198.01 124.925 198.36 124.665C198.71 124.395 198.885 124.09 198.885 123.75C198.885 123.54 198.82 123.355 198.69 123.195C198.57 123.035 198.405 122.895 198.195 122.775C197.995 122.645 197.765 122.535 197.505 122.445C197.255 122.355 197 122.27 196.74 122.19C196.36 122.08 196.005 121.96 195.675 121.83C195.355 121.69 195.075 121.525 194.835 121.335C194.605 121.135 194.425 120.905 194.295 120.645C194.165 120.375 194.1 120.055 194.1 119.685C194.1 118.975 194.38 118.425 194.94 118.035C195.51 117.645 196.28 117.45 197.25 117.45C197.72 117.45 198.18 117.5 198.63 117.6C199.08 117.69 199.48 117.825 199.83 118.005L199.5 119.025C198.89 118.705 198.18 118.545 197.37 118.545C196.74 118.545 196.245 118.655 195.885 118.875C195.535 119.095 195.36 119.365 195.36 119.685C195.36 119.865 195.41 120.025 195.51 120.165C195.61 120.305 195.745 120.43 195.915 120.54C196.085 120.64 196.28 120.735 196.5 120.825C196.72 120.905 196.955 120.985 197.205 121.065C197.675 121.215 198.09 121.375 198.45 121.545C198.82 121.705 199.13 121.89 199.38 122.1C199.63 122.31 199.82 122.55 199.95 122.82C200.08 123.09 200.145 123.41 200.145 123.78C200.145 124.49 199.875 125.065 199.335 125.505C198.805 125.935 197.985 126.15 196.875 126.15C196.325 126.15 195.815 126.1 195.345 126C194.885 125.9 194.495 125.755 194.175 125.565L194.49 124.56C194.8 124.71 195.155 124.83 195.555 124.92C195.955 125.01 196.375 125.055 196.815 125.055ZM198.332 116.46C198.072 116.46 197.847 116.395 197.657 116.265C197.457 116.125 197.307 115.95 197.207 115.74C197.137 115.95 196.997 116.135 196.787 116.295C196.577 116.445 196.292 116.52 195.932 116.52C195.672 116.52 195.442 116.475 195.242 116.385C195.032 116.295 194.857 116.175 194.717 116.025C194.577 115.875 194.472 115.705 194.402 115.515C194.322 115.325 194.282 115.125 194.282 114.915C194.282 114.695 194.322 114.485 194.402 114.285C194.472 114.085 194.582 113.905 194.732 113.745C194.882 113.585 195.077 113.46 195.317 113.37C195.557 113.27 195.842 113.22 196.172 113.22H199.247V114.24H196.217C195.947 114.24 195.757 114.31 195.647 114.45C195.537 114.59 195.482 114.75 195.482 114.93C195.482 115.11 195.537 115.26 195.647 115.38C195.757 115.5 195.922 115.56 196.142 115.56C196.312 115.56 196.462 115.495 196.592 115.365C196.712 115.235 196.787 115.1 196.817 114.96H197.537C197.577 115.1 197.657 115.21 197.777 115.29C197.887 115.37 198.052 115.41 198.272 115.41H199.262V116.46H198.332ZM201.857 124.29C202.217 124.51 202.597 124.69 202.997 124.83C203.407 124.97 203.852 125.04 204.332 125.04C205.092 125.04 205.697 124.78 206.147 124.26C206.607 123.74 206.837 122.94 206.837 121.86C206.837 120.72 206.617 119.885 206.177 119.355C205.747 118.825 205.132 118.56 204.332 118.56C203.802 118.56 203.347 118.63 202.967 118.77C202.587 118.9 202.207 119.09 201.827 119.34L201.527 118.305C201.927 118.045 202.377 117.84 202.877 117.69C203.387 117.53 203.907 117.45 204.437 117.45C205.647 117.45 206.562 117.83 207.182 118.59C207.812 119.34 208.127 120.39 208.127 121.74C208.127 123.18 207.792 124.275 207.122 125.025C206.462 125.775 205.522 126.15 204.302 126.15C203.732 126.15 203.227 126.08 202.787 125.94C202.347 125.8 201.932 125.6 201.542 125.34L201.857 124.29ZM210.128 126V117.6H211.388V126H210.128ZM213.068 126V117.6H214.328V126H213.068ZM221.791 126V121.95H219.691C218.981 121.95 218.421 122.09 218.011 122.37C217.601 122.64 217.396 123.06 217.396 123.63C217.396 124.12 217.541 124.485 217.831 124.725C218.121 124.955 218.486 125.07 218.926 125.07C219.136 125.07 219.356 125.05 219.586 125.01C219.826 124.96 220.036 124.895 220.216 124.815L220.426 125.88C220.206 125.96 219.951 126.025 219.661 126.075C219.371 126.125 219.081 126.15 218.791 126.15C218.411 126.15 218.056 126.1 217.726 126C217.406 125.89 217.126 125.735 216.886 125.535C216.646 125.325 216.456 125.065 216.316 124.755C216.176 124.435 216.106 124.065 216.106 123.645C216.106 122.765 216.416 122.08 217.036 121.59C217.656 121.09 218.591 120.84 219.841 120.84H221.791V120.645C221.791 119.985 221.636 119.47 221.326 119.1C221.016 118.72 220.466 118.53 219.676 118.53C219.106 118.53 218.576 118.615 218.086 118.785C217.596 118.955 217.171 119.165 216.811 119.415L216.391 118.5C216.541 118.37 216.731 118.245 216.961 118.125C217.201 117.995 217.466 117.88 217.756 117.78C218.056 117.68 218.376 117.6 218.716 117.54C219.056 117.48 219.411 117.45 219.781 117.45C220.861 117.45 221.681 117.74 222.241 118.32C222.801 118.89 223.081 119.66 223.081 120.63V126H221.791ZM226.293 120.57C225.883 120.57 225.553 120.48 225.303 120.3C225.063 120.12 224.943 119.805 224.943 119.355V118.62H226.173V119.235C226.173 119.425 226.268 119.52 226.458 119.52H228.033V120.57H226.293ZM226.293 124.71C225.883 124.71 225.553 124.62 225.303 124.44C225.063 124.26 224.943 123.945 224.943 123.495V122.76H226.173V123.375C226.173 123.565 226.268 123.66 226.458 123.66H228.033V124.71H226.293ZM230.025 126V117.6H231.315V126H230.025ZM237.093 125.04C237.813 125.04 238.343 124.85 238.683 124.47C239.033 124.09 239.208 123.57 239.208 122.91V114.75H240.498V122.91C240.498 123.95 240.208 124.75 239.628 125.31C239.048 125.87 238.203 126.15 237.093 126.15C235.983 126.15 235.138 125.87 234.558 125.31C233.978 124.75 233.688 123.95 233.688 122.91V117.6H234.978V122.91C234.978 123.57 235.148 124.09 235.488 124.47C235.838 124.85 236.373 125.04 237.093 125.04ZM237.686 116.46C237.426 116.46 237.201 116.395 237.011 116.265C236.811 116.125 236.661 115.95 236.561 115.74C236.491 115.95 236.351 116.135 236.141 116.295C235.931 116.445 235.646 116.52 235.286 116.52C235.026 116.52 234.796 116.475 234.596 116.385C234.386 116.295 234.211 116.175 234.071 116.025C233.931 115.875 233.826 115.705 233.756 115.515C233.676 115.325 233.636 115.125 233.636 114.915C233.636 114.695 233.676 114.485 233.756 114.285C233.826 114.085 233.936 113.905 234.086 113.745C234.236 113.585 234.431 113.46 234.671 113.37C234.911 113.27 235.196 113.22 235.526 113.22H238.601V114.24H235.571C235.301 114.24 235.111 114.31 235.001 114.45C234.891 114.59 234.836 114.75 234.836 114.93C234.836 115.11 234.891 115.26 235.001 115.38C235.111 115.5 235.276 115.56 235.496 115.56C235.666 115.56 235.816 115.495 235.946 115.365C236.066 115.235 236.141 115.1 236.171 114.96H236.891C236.931 115.1 237.011 115.21 237.131 115.29C237.241 115.37 237.406 115.41 237.626 115.41H238.616V116.46H237.686ZM244.181 123C244.181 123.71 244.321 124.23 244.601 124.56C244.881 124.88 245.336 125.04 245.966 125.04C246.216 125.04 246.461 124.995 246.701 124.905C246.951 124.815 247.186 124.69 247.406 124.53C247.626 124.37 247.821 124.19 247.991 123.99C248.161 123.78 248.301 123.56 248.411 123.33V117.6H249.701V126H248.486L248.411 124.77C248.121 125.19 247.761 125.525 247.331 125.775C246.901 126.025 246.346 126.15 245.666 126.15C244.746 126.15 244.051 125.885 243.581 125.355C243.121 124.815 242.891 124.035 242.891 123.015V117.6H244.181V123ZM6.675 141.6H7.965V146.865C7.965 147.875 7.725 148.675 7.245 149.265C6.765 149.855 6.03 150.15 5.04 150.15C4.44 150.15 3.93 150.025 3.51 149.775C3.09 149.525 2.735 149.19 2.445 148.77L2.37 150H1.155V141.6H2.445V147.33C2.545 147.56 2.68 147.78 2.85 147.99C3.03 148.19 3.23 148.37 3.45 148.53C3.67 148.69 3.9 148.815 4.14 148.905C4.39 148.995 4.64 149.04 4.89 149.04C5.52 149.04 5.975 148.855 6.255 148.485C6.535 148.105 6.675 147.56 6.675 146.85V141.6ZM1.61168 140.46V139.41H5.12168V138.03H6.18668V139.44H6.98168V138.03H8.04668V140.46H1.61168ZM11.6767 146.295C11.5667 146.295 11.4717 146.335 11.3917 146.415C11.3217 146.485 11.2867 146.59 11.2867 146.73V147.135C11.2867 147.795 11.4717 148.28 11.8417 148.59C12.2117 148.89 12.7767 149.04 13.5367 149.04C14.3367 149.04 14.9617 148.785 15.4117 148.275C15.8617 147.755 16.0867 146.915 16.0867 145.755C16.0867 144.725 15.8617 143.935 15.4117 143.385C14.9617 142.835 14.3317 142.56 13.5217 142.56C12.8617 142.56 12.2767 142.655 11.7667 142.845C11.2667 143.025 10.8267 143.26 10.4467 143.55L10.0267 142.59C10.1967 142.45 10.4067 142.315 10.6567 142.185C10.9067 142.045 11.1817 141.92 11.4817 141.81C11.7817 141.7 12.1017 141.615 12.4417 141.555C12.7917 141.485 13.1517 141.45 13.5217 141.45C14.7817 141.45 15.7367 141.84 16.3867 142.62C17.0467 143.4 17.3767 144.465 17.3767 145.815C17.3767 147.235 17.0467 148.315 16.3867 149.055C15.7367 149.785 14.7967 150.15 13.5667 150.15C12.3567 150.15 11.4567 149.89 10.8667 149.37C10.2867 148.85 9.99668 148.105 9.99668 147.135V146.685C9.99668 146.165 10.1317 145.785 10.4017 145.545C10.6817 145.305 11.0567 145.185 11.5267 145.185H12.8767V146.295H11.6767ZM20.6286 146.295C20.5186 146.295 20.4236 146.335 20.3436 146.415C20.2736 146.485 20.2386 146.59 20.2386 146.73V147.135C20.2386 147.795 20.4236 148.28 20.7936 148.59C21.1636 148.89 21.7286 149.04 22.4886 149.04C23.2886 149.04 23.9136 148.785 24.3636 148.275C24.8136 147.755 25.0386 146.915 25.0386 145.755C25.0386 144.725 24.8136 143.935 24.3636 143.385C23.9136 142.835 23.2836 142.56 22.4736 142.56C21.8136 142.56 21.2286 142.655 20.7186 142.845C20.2186 143.025 19.7786 143.26 19.3986 143.55L18.9786 142.59C19.1486 142.45 19.3586 142.315 19.6086 142.185C19.8586 142.045 20.1336 141.92 20.4336 141.81C20.7336 141.7 21.0536 141.615 21.3936 141.555C21.7436 141.485 22.1036 141.45 22.4736 141.45C23.7336 141.45 24.6886 141.84 25.3386 142.62C25.9986 143.4 26.3286 144.465 26.3286 145.815C26.3286 147.235 25.9986 148.315 25.3386 149.055C24.6886 149.785 23.7486 150.15 22.5186 150.15C21.3086 150.15 20.4086 149.89 19.8186 149.37C19.2386 148.85 18.9486 148.105 18.9486 147.135V146.685C18.9486 146.165 19.0836 145.785 19.3536 145.545C19.6336 145.305 20.0086 145.185 20.4786 145.185H21.8286V146.295H20.6286ZM31.8456 150V144.585C31.8456 143.235 31.2506 142.56 30.0606 142.56C29.5806 142.56 29.1306 142.65 28.7106 142.83C28.2906 143 27.9356 143.205 27.6456 143.445L27.3006 142.47C27.4506 142.34 27.6306 142.215 27.8406 142.095C28.0606 141.965 28.2956 141.855 28.5456 141.765C28.8056 141.665 29.0706 141.59 29.3406 141.54C29.6206 141.48 29.9006 141.45 30.1806 141.45C31.1606 141.45 31.8956 141.73 32.3856 142.29C32.8856 142.84 33.1356 143.625 33.1356 144.645V150H31.8456ZM41.5451 147.105C41.5451 148.085 41.3001 148.84 40.8101 149.37C40.3301 149.89 39.5401 150.15 38.4401 150.15C37.8901 150.15 37.4151 150.08 37.0151 149.94C36.6251 149.79 36.3001 149.585 36.0401 149.325C35.7901 149.065 35.6051 148.765 35.4851 148.425C35.3651 148.075 35.3051 147.695 35.3051 147.285V146.13C35.3051 145.84 35.3801 145.57 35.5301 145.32C35.6901 145.07 35.8651 144.835 36.0551 144.615C36.2451 144.395 36.4151 144.19 36.5651 144C36.7251 143.8 36.8051 143.61 36.8051 143.43V143.07C36.8051 142.96 36.7751 142.875 36.7151 142.815C36.6651 142.745 36.5701 142.71 36.4301 142.71H35.3951V141.6H36.5801C37.1201 141.6 37.4951 141.725 37.7051 141.975C37.9251 142.215 38.0351 142.545 38.0351 142.965V143.415C38.0351 143.685 37.9551 143.94 37.7951 144.18C37.6451 144.42 37.4801 144.65 37.3001 144.87C37.1201 145.08 36.9501 145.29 36.7901 145.5C36.6401 145.71 36.5651 145.92 36.5651 146.13V147.285C36.5651 147.825 36.7051 148.255 36.9851 148.575C37.2751 148.895 37.7601 149.055 38.4401 149.055C39.0601 149.055 39.5151 148.92 39.8051 148.65C40.1051 148.37 40.2551 147.86 40.2551 147.12V145.605C40.2551 145.185 40.1651 144.885 39.9851 144.705C39.8151 144.525 39.5851 144.435 39.2951 144.435H39.0101L38.8301 143.895L40.4201 141.6H41.8301L40.1351 143.805C40.5351 143.885 40.8701 144.085 41.1401 144.405C41.4101 144.715 41.5451 145.11 41.5451 145.59V147.105ZM35.18 140.46V139.41H40.4V138.03H41.615V140.46H35.18ZM48.125 143.31C48.065 143.81 47.99 144.245 47.9 144.615C47.82 144.985 47.725 145.345 47.615 145.695L46.175 150H44.75L43.355 141.6H44.66L45.425 146.37C45.455 146.58 45.48 146.77 45.5 146.94C45.53 147.1 45.55 147.265 45.56 147.435C45.58 147.595 45.595 147.77 45.605 147.96C45.625 148.15 45.64 148.38 45.65 148.65H45.695C45.775 148.15 45.855 147.71 45.935 147.33C46.015 146.95 46.11 146.57 46.22 146.19L47.585 142.02H48.695L50.06 146.19C50.17 146.57 50.265 146.95 50.345 147.33C50.425 147.71 50.505 148.15 50.585 148.65H50.63C50.64 148.38 50.65 148.15 50.66 147.96C50.68 147.77 50.695 147.595 50.705 147.435C50.725 147.265 50.745 147.1 50.765 146.94C50.795 146.77 50.825 146.58 50.855 146.37L51.62 141.6H52.925L51.53 150H50.105L48.665 145.695C48.555 145.345 48.455 144.985 48.365 144.615C48.285 144.245 48.215 143.81 48.155 143.31H48.125ZM62.6745 143.31C62.6145 143.81 62.5395 144.245 62.4495 144.615C62.3695 144.985 62.2745 145.345 62.1645 145.695L60.7245 150H59.2995L57.9045 141.6H59.2095L59.9745 146.37C60.0045 146.58 60.0295 146.77 60.0495 146.94C60.0795 147.1 60.0995 147.265 60.1095 147.435C60.1295 147.595 60.1445 147.77 60.1545 147.96C60.1745 148.15 60.1895 148.38 60.1995 148.65H60.2445C60.3245 148.15 60.4045 147.71 60.4845 147.33C60.5645 146.95 60.6595 146.57 60.7695 146.19L62.1345 142.02H63.2445L64.6095 146.19C64.7195 146.57 64.8145 146.95 64.8945 147.33C64.9745 147.71 65.0545 148.15 65.1345 148.65H65.1795C65.1895 148.38 65.1995 148.15 65.2095 147.96C65.2295 147.77 65.2445 147.595 65.2545 147.435C65.2745 147.265 65.2945 147.1 65.3145 146.94C65.3445 146.77 65.3745 146.58 65.4045 146.37L66.1695 141.6H67.4745L66.0795 150H64.6545L63.2145 145.695C63.1045 145.345 63.0045 144.985 62.9145 144.615C62.8345 144.245 62.7645 143.81 62.7045 143.31H62.6745ZM71.4639 149.055C72.1439 149.055 72.6589 148.925 73.0089 148.665C73.3589 148.395 73.5339 148.09 73.5339 147.75C73.5339 147.54 73.4689 147.355 73.3389 147.195C73.2189 147.035 73.0539 146.895 72.8439 146.775C72.6439 146.645 72.4139 146.535 72.1539 146.445C71.9039 146.355 71.6489 146.27 71.3889 146.19C71.0089 146.08 70.6539 145.96 70.3239 145.83C70.0039 145.69 69.7239 145.525 69.4839 145.335C69.2539 145.135 69.0739 144.905 68.9439 144.645C68.8139 144.375 68.7489 144.055 68.7489 143.685C68.7489 142.975 69.0289 142.425 69.5889 142.035C70.1589 141.645 70.9289 141.45 71.8989 141.45C72.3689 141.45 72.8289 141.5 73.2789 141.6C73.7289 141.69 74.1289 141.825 74.4789 142.005L74.1489 143.025C73.5389 142.705 72.8289 142.545 72.0189 142.545C71.3889 142.545 70.8939 142.655 70.5339 142.875C70.1839 143.095 70.0089 143.365 70.0089 143.685C70.0089 143.865 70.0589 144.025 70.1589 144.165C70.2589 144.305 70.3939 144.43 70.5639 144.54C70.7339 144.64 70.9289 144.735 71.1489 144.825C71.3689 144.905 71.6039 144.985 71.8539 145.065C72.3239 145.215 72.7389 145.375 73.0989 145.545C73.4689 145.705 73.7789 145.89 74.0289 146.1C74.2789 146.31 74.4689 146.55 74.5989 146.82C74.7289 147.09 74.7939 147.41 74.7939 147.78C74.7939 148.49 74.5239 149.065 73.9839 149.505C73.4539 149.935 72.6339 150.15 71.5239 150.15C70.9739 150.15 70.4639 150.1 69.9939 150C69.5339 149.9 69.1439 149.755 68.8239 149.565L69.1389 148.56C69.4489 148.71 69.8039 148.83 70.2039 148.92C70.6039 149.01 71.0239 149.055 71.4639 149.055ZM72.6963 140.46C72.5263 140.46 72.3763 140.4 72.2463 140.28C72.1163 140.16 72.0513 140 72.0513 139.8V139.38C72.0513 139.27 72.0363 139.195 72.0063 139.155C71.9763 139.105 71.9013 139.08 71.7813 139.08H70.9863V138.03H72.2163C72.4963 138.03 72.7213 138.09 72.8913 138.21C73.0513 138.33 73.1313 138.52 73.1313 138.78V139.155C73.1313 139.235 73.1513 139.3 73.1913 139.35C73.2213 139.39 73.2913 139.41 73.4013 139.41H75.4263V140.46H72.6963ZM78.0663 146.295C77.9563 146.295 77.8613 146.335 77.7813 146.415C77.7113 146.485 77.6763 146.59 77.6763 146.73V147.135C77.6763 147.795 77.8613 148.28 78.2313 148.59C78.6013 148.89 79.1663 149.04 79.9263 149.04C80.7263 149.04 81.3513 148.785 81.8013 148.275C82.2513 147.755 82.4763 146.915 82.4763 145.755C82.4763 144.725 82.2513 143.935 81.8013 143.385C81.3513 142.835 80.7213 142.56 79.9113 142.56C79.2513 142.56 78.6663 142.655 78.1563 142.845C77.6563 143.025 77.2163 143.26 76.8363 143.55L76.4163 142.59C76.5863 142.45 76.7963 142.315 77.0463 142.185C77.2963 142.045 77.5713 141.92 77.8713 141.81C78.1713 141.7 78.4913 141.615 78.8313 141.555C79.1813 141.485 79.5413 141.45 79.9113 141.45C81.1713 141.45 82.1263 141.84 82.7763 142.62C83.4363 143.4 83.7663 144.465 83.7663 145.815C83.7663 147.235 83.4363 148.315 82.7763 149.055C82.1263 149.785 81.1863 150.15 79.9563 150.15C78.7463 150.15 77.8463 149.89 77.2563 149.37C76.6763 148.85 76.3863 148.105 76.3863 147.135V146.685C76.3863 146.165 76.5213 145.785 76.7913 145.545C77.0713 145.305 77.4463 145.185 77.9163 145.185H79.2663V146.295H78.0663ZM91.2633 141.6H92.5533V146.865C92.5533 147.875 92.3133 148.675 91.8333 149.265C91.3533 149.855 90.6183 150.15 89.6283 150.15C89.0283 150.15 88.5183 150.025 88.0983 149.775C87.6783 149.525 87.3233 149.19 87.0333 148.77L86.9583 150H85.7433V141.6H87.0333V147.33C87.1333 147.56 87.2683 147.78 87.4383 147.99C87.6183 148.19 87.8183 148.37 88.0383 148.53C88.2583 148.69 88.4883 148.815 88.7283 148.905C88.9783 148.995 89.2283 149.04 89.4783 149.04C90.1083 149.04 90.5633 148.855 90.8433 148.485C91.1233 148.105 91.2633 147.56 91.2633 146.85V141.6ZM95.32 150V141.915C95.32 141.495 95.415 141.12 95.605 140.79C95.795 140.45 96 140.135 96.22 139.845C96.45 139.555 96.66 139.275 96.85 139.005C97.04 138.735 97.135 138.455 97.135 138.165C97.135 137.845 97.04 137.585 96.85 137.385C96.67 137.185 96.36 137.085 95.92 137.085C95.55 137.085 95.16 137.17 94.75 137.34C94.34 137.51 93.96 137.77 93.61 138.12L93.205 137.22C93.335 137.04 93.5 136.875 93.7 136.725C93.9 136.565 94.125 136.43 94.375 136.32C94.625 136.21 94.89 136.125 95.17 136.065C95.45 135.995 95.73 135.96 96.01 135.96C96.41 135.96 96.765 136.02 97.075 136.14C97.385 136.25 97.645 136.405 97.855 136.605C98.065 136.805 98.22 137.04 98.32 137.31C98.43 137.57 98.485 137.855 98.485 138.165C98.485 138.535 98.385 138.875 98.185 139.185C97.995 139.495 97.78 139.805 97.54 140.115C97.31 140.415 97.095 140.735 96.895 141.075C96.705 141.415 96.61 141.8 96.61 142.23V150H95.32ZM104.911 150L103.801 146.19C103.521 145.27 103.011 144.8 102.271 144.78L100.396 146.325V150H99.1062V141.6H100.396V144.9L104.386 141.6H106.126L103.186 144.03C103.726 144.11 104.141 144.335 104.431 144.705C104.731 145.075 104.966 145.535 105.136 146.085L106.291 150H104.911ZM103.95 140.46C103.78 140.46 103.63 140.4 103.5 140.28C103.37 140.16 103.305 140 103.305 139.8V139.38C103.305 139.27 103.29 139.195 103.26 139.155C103.23 139.105 103.155 139.08 103.035 139.08H102.24V138.03H103.47C103.75 138.03 103.975 138.09 104.145 138.21C104.305 138.33 104.385 138.52 104.385 138.78V139.155C104.385 139.235 104.405 139.3 104.445 139.35C104.475 139.39 104.545 139.41 104.655 139.41H106.68V140.46H103.95ZM111.54 141.45C112.11 141.45 112.61 141.535 113.04 141.705C113.48 141.865 113.85 142.09 114.15 142.38C114.45 142.67 114.675 143.01 114.825 143.4C114.985 143.79 115.065 144.215 115.065 144.675V150H113.775V144.66C113.775 144.03 113.59 143.525 113.22 143.145C112.85 142.755 112.29 142.56 111.54 142.56C110.79 142.56 110.23 142.755 109.86 143.145C109.49 143.525 109.305 144.03 109.305 144.66V146.49C109.435 146.2 109.64 145.955 109.92 145.755C110.2 145.555 110.55 145.455 110.97 145.455H112.035V146.58H110.97C110.57 146.58 110.225 146.695 109.935 146.925C109.645 147.145 109.435 147.48 109.305 147.93V150H108.015V144.675C108.015 144.215 108.09 143.79 108.24 143.4C108.4 143.01 108.63 142.67 108.93 142.38C109.23 142.09 109.595 141.865 110.025 141.705C110.465 141.535 110.97 141.45 111.54 141.45ZM113.882 153.915V152.43C113.882 152.22 113.777 152.115 113.567 152.115H112.982V151.035H113.957C114.377 151.035 114.682 151.135 114.872 151.335C115.052 151.535 115.142 151.86 115.142 152.31V153.915H113.882ZM127.802 150L127.727 148.77C127.437 149.19 127.097 149.525 126.707 149.775C126.327 150.025 125.837 150.15 125.237 150.15C124.387 150.15 123.742 149.895 123.302 149.385C122.872 148.875 122.657 148.185 122.657 147.315V144.705C122.657 143.985 122.482 143.45 122.132 143.1C121.792 142.74 121.307 142.56 120.677 142.56C120.167 142.56 119.702 142.685 119.282 142.935C118.872 143.175 118.587 143.495 118.427 143.895L119.567 144.945C119.297 145.085 119.097 145.26 118.967 145.47C118.837 145.67 118.772 145.93 118.772 146.25V148.53C118.772 148.65 118.792 148.745 118.832 148.815C118.882 148.885 118.977 148.92 119.117 148.92H119.927V150H118.772C118.362 150 118.042 149.875 117.812 149.625C117.592 149.365 117.482 149.04 117.482 148.65V146.43C117.482 146.14 117.552 145.865 117.692 145.605C117.832 145.345 118.032 145.15 118.292 145.02L117.062 143.97C117.142 143.65 117.287 143.34 117.497 143.04C117.717 142.73 117.982 142.46 118.292 142.23C118.612 141.99 118.972 141.8 119.372 141.66C119.782 141.52 120.217 141.45 120.677 141.45C121.227 141.45 121.707 141.53 122.117 141.69C122.527 141.85 122.867 142.075 123.137 142.365C123.407 142.655 123.607 143 123.737 143.4C123.877 143.79 123.947 144.225 123.947 144.705V147.3C123.947 147.84 124.062 148.265 124.292 148.575C124.522 148.885 124.857 149.04 125.297 149.04C125.567 149.04 125.822 148.995 126.062 148.905C126.312 148.815 126.542 148.69 126.752 148.53C126.962 148.37 127.147 148.19 127.307 147.99C127.477 147.78 127.617 147.56 127.727 147.33V141.6H129.017V150H127.802ZM132.675 146.295C132.565 146.295 132.47 146.335 132.39 146.415C132.32 146.485 132.285 146.59 132.285 146.73V147.135C132.285 147.795 132.47 148.28 132.84 148.59C133.21 148.89 133.775 149.04 134.535 149.04C135.335 149.04 135.96 148.785 136.41 148.275C136.86 147.755 137.085 146.915 137.085 145.755C137.085 144.725 136.86 143.935 136.41 143.385C135.96 142.835 135.33 142.56 134.52 142.56C133.86 142.56 133.275 142.655 132.765 142.845C132.265 143.025 131.825 143.26 131.445 143.55L131.025 142.59C131.195 142.45 131.405 142.315 131.655 142.185C131.905 142.045 132.18 141.92 132.48 141.81C132.78 141.7 133.1 141.615 133.44 141.555C133.79 141.485 134.15 141.45 134.52 141.45C135.78 141.45 136.735 141.84 137.385 142.62C138.045 143.4 138.375 144.465 138.375 145.815C138.375 147.235 138.045 148.315 137.385 149.055C136.735 149.785 135.795 150.15 134.565 150.15C133.355 150.15 132.455 149.89 131.865 149.37C131.285 148.85 130.995 148.105 130.995 147.135V146.685C130.995 146.165 131.13 145.785 131.4 145.545C131.68 145.305 132.055 145.185 132.525 145.185H133.875V146.295H132.675ZM141.627 146.295C141.517 146.295 141.422 146.335 141.342 146.415C141.272 146.485 141.237 146.59 141.237 146.73V147.135C141.237 147.795 141.422 148.28 141.792 148.59C142.162 148.89 142.727 149.04 143.487 149.04C144.287 149.04 144.912 148.785 145.362 148.275C145.812 147.755 146.037 146.915 146.037 145.755C146.037 144.725 145.812 143.935 145.362 143.385C144.912 142.835 144.282 142.56 143.472 142.56C142.812 142.56 142.227 142.655 141.717 142.845C141.217 143.025 140.777 143.26 140.397 143.55L139.977 142.59C140.147 142.45 140.357 142.315 140.607 142.185C140.857 142.045 141.132 141.92 141.432 141.81C141.732 141.7 142.052 141.615 142.392 141.555C142.742 141.485 143.102 141.45 143.472 141.45C144.732 141.45 145.687 141.84 146.337 142.62C146.997 143.4 147.327 144.465 147.327 145.815C147.327 147.235 146.997 148.315 146.337 149.055C145.687 149.785 144.747 150.15 143.517 150.15C142.307 150.15 141.407 149.89 140.817 149.37C140.237 148.85 139.947 148.105 139.947 147.135V146.685C139.947 146.165 140.082 145.785 140.352 145.545C140.632 145.305 141.007 145.185 141.477 145.185H142.827V146.295H141.627ZM154.794 150V144.705C154.794 143.985 154.609 143.45 154.239 143.1C153.869 142.74 153.339 142.56 152.649 142.56C152.079 142.56 151.574 142.685 151.134 142.935C150.694 143.175 150.394 143.495 150.234 143.895L151.374 144.945C151.104 145.085 150.904 145.26 150.774 145.47C150.644 145.67 150.579 145.93 150.579 146.25V150H149.289V146.43C149.289 146.14 149.359 145.865 149.499 145.605C149.639 145.345 149.839 145.15 150.099 145.02L148.869 143.97C148.949 143.65 149.099 143.34 149.319 143.04C149.549 142.73 149.829 142.46 150.159 142.23C150.489 141.99 150.864 141.8 151.284 141.66C151.714 141.52 152.169 141.45 152.649 141.45C153.219 141.45 153.719 141.53 154.149 141.69C154.579 141.85 154.934 142.075 155.214 142.365C155.504 142.655 155.719 143 155.859 143.4C156.009 143.79 156.084 144.225 156.084 144.705V150H154.794ZM158.447 150V141.6H159.737V150H158.447ZM167.945 150V145.005C167.945 144.655 167.9 144.33 167.81 144.03C167.73 143.73 167.6 143.475 167.42 143.265C167.24 143.045 167.01 142.875 166.73 142.755C166.46 142.625 166.135 142.56 165.755 142.56C164.865 142.56 164.185 142.855 163.715 143.445C163.255 144.025 163.025 144.84 163.025 145.89C163.025 146.47 163.09 146.96 163.22 147.36C163.36 147.75 163.535 148.065 163.745 148.305C163.965 148.545 164.205 148.72 164.465 148.83C164.725 148.93 164.985 148.98 165.245 148.98C165.455 148.98 165.635 148.965 165.785 148.935C165.945 148.905 166.105 148.86 166.265 148.8L166.505 149.82C166.335 149.9 166.135 149.965 165.905 150.015C165.675 150.065 165.435 150.09 165.185 150.09C164.735 150.09 164.3 150.005 163.88 149.835C163.46 149.665 163.09 149.41 162.77 149.07C162.46 148.72 162.21 148.285 162.02 147.765C161.83 147.235 161.735 146.61 161.735 145.89C161.735 145.26 161.815 144.675 161.975 144.135C162.145 143.595 162.395 143.13 162.725 142.74C163.055 142.34 163.47 142.025 163.97 141.795C164.47 141.565 165.055 141.45 165.725 141.45C166.335 141.45 166.86 141.545 167.3 141.735C167.74 141.925 168.1 142.185 168.38 142.515C168.67 142.845 168.885 143.225 169.025 143.655C169.165 144.085 169.235 144.54 169.235 145.02V150H167.945ZM162.875 140.46V139.41H169.31V140.46H162.875ZM172.925 147C172.925 147.71 173.065 148.23 173.345 148.56C173.625 148.88 174.08 149.04 174.71 149.04C174.96 149.04 175.205 148.995 175.445 148.905C175.695 148.815 175.93 148.69 176.15 148.53C176.37 148.37 176.565 148.19 176.735 147.99C176.905 147.78 177.045 147.56 177.155 147.33V141.6H178.445V150H177.23L177.155 148.77C176.865 149.19 176.505 149.525 176.075 149.775C175.645 150.025 175.09 150.15 174.41 150.15C173.49 150.15 172.795 149.885 172.325 149.355C171.865 148.815 171.635 148.035 171.635 147.015V141.6H172.925V147ZM186.476 144.615C186.476 143.895 186.341 143.375 186.071 143.055C185.801 142.725 185.446 142.56 185.006 142.56C184.686 142.56 184.381 142.61 184.091 142.71C183.811 142.8 183.546 142.925 183.296 143.085C183.046 143.235 182.821 143.415 182.621 143.625C182.421 143.835 182.256 144.05 182.126 144.27V150H180.836V141.6H182.051L182.126 142.83C182.276 142.66 182.451 142.495 182.651 142.335C182.861 142.165 183.091 142.015 183.341 141.885C183.591 141.755 183.861 141.65 184.151 141.57C184.441 141.49 184.746 141.45 185.066 141.45C185.506 141.45 185.891 141.525 186.221 141.675C186.561 141.825 186.846 142.04 187.076 142.32C187.306 142.6 187.476 142.935 187.586 143.325C187.706 143.705 187.766 144.135 187.766 144.615V150H186.476V144.615ZM193.665 150V144.585C193.665 143.235 193.07 142.56 191.88 142.56C191.4 142.56 190.95 142.65 190.53 142.83C190.11 143 189.755 143.205 189.465 143.445L189.12 142.47C189.27 142.34 189.45 142.215 189.66 142.095C189.88 141.965 190.115 141.855 190.365 141.765C190.625 141.665 190.89 141.59 191.16 141.54C191.44 141.48 191.72 141.45 192 141.45C192.98 141.45 193.715 141.73 194.205 142.29C194.705 142.84 194.955 143.625 194.955 144.645V150H193.665ZM198.895 150L196.36 141.6H197.68L199.9 148.89H200.08C200.41 148.89 200.72 148.82 201.01 148.68C201.31 148.53 201.575 148.32 201.805 148.05C202.035 147.77 202.215 147.425 202.345 147.015C202.485 146.605 202.555 146.135 202.555 145.605C202.555 145.055 202.505 144.585 202.405 144.195C202.315 143.805 202.185 143.49 202.015 143.25C201.855 143.01 201.66 142.835 201.43 142.725C201.21 142.615 200.975 142.56 200.725 142.56C200.555 142.56 200.39 142.575 200.23 142.605C200.07 142.625 199.93 142.66 199.81 142.71L199.615 141.675C199.775 141.595 199.965 141.54 200.185 141.51C200.415 141.47 200.615 141.45 200.785 141.45C201.235 141.45 201.645 141.545 202.015 141.735C202.395 141.915 202.72 142.185 202.99 142.545C203.26 142.895 203.47 143.33 203.62 143.85C203.77 144.36 203.845 144.945 203.845 145.605C203.845 146.285 203.745 146.895 203.545 147.435C203.355 147.975 203.09 148.435 202.75 148.815C202.41 149.195 202.01 149.49 201.55 149.7C201.09 149.9 200.59 150 200.05 150H198.895ZM211.472 144.615C211.472 143.895 211.337 143.375 211.067 143.055C210.797 142.725 210.442 142.56 210.002 142.56C209.682 142.56 209.377 142.61 209.087 142.71C208.807 142.8 208.542 142.925 208.292 143.085C208.042 143.235 207.817 143.415 207.617 143.625C207.417 143.835 207.252 144.05 207.122 144.27V150H205.832V141.6H207.047L207.122 142.83C207.272 142.66 207.447 142.495 207.647 142.335C207.857 142.165 208.087 142.015 208.337 141.885C208.587 141.755 208.857 141.65 209.147 141.57C209.437 141.49 209.742 141.45 210.062 141.45C210.502 141.45 210.887 141.525 211.217 141.675C211.557 141.825 211.842 142.04 212.072 142.32C212.302 142.6 212.472 142.935 212.582 143.325C212.702 143.705 212.762 144.135 212.762 144.615V150H211.472V144.615ZM211.176 140.46C210.166 140.46 209.661 140.01 209.661 139.11V138.51H210.891V138.96C210.891 139.26 211.031 139.41 211.311 139.41H214.851V140.46H211.176ZM216.456 147C216.456 147.71 216.596 148.23 216.876 148.56C217.156 148.88 217.611 149.04 218.241 149.04C218.491 149.04 218.736 148.995 218.976 148.905C219.226 148.815 219.461 148.69 219.681 148.53C219.901 148.37 220.096 148.19 220.266 147.99C220.436 147.78 220.576 147.56 220.686 147.33V141.6H221.976V150H220.761L220.686 148.77C220.396 149.19 220.036 149.525 219.606 149.775C219.176 150.025 218.621 150.15 217.941 150.15C217.021 150.15 216.326 149.885 215.856 149.355C215.396 148.815 215.166 148.035 215.166 147.015V141.6H216.456V147ZM230.007 144.615C230.007 143.895 229.872 143.375 229.602 143.055C229.332 142.725 228.977 142.56 228.537 142.56C228.217 142.56 227.912 142.61 227.622 142.71C227.342 142.8 227.077 142.925 226.827 143.085C226.577 143.235 226.352 143.415 226.152 143.625C225.952 143.835 225.787 144.05 225.657 144.27V150H224.367V141.6H225.582L225.657 142.83C225.807 142.66 225.982 142.495 226.182 142.335C226.392 142.165 226.622 142.015 226.872 141.885C227.122 141.755 227.392 141.65 227.682 141.57C227.972 141.49 228.277 141.45 228.597 141.45C229.037 141.45 229.422 141.525 229.752 141.675C230.092 141.825 230.377 142.04 230.607 142.32C230.837 142.6 231.007 142.935 231.117 143.325C231.237 143.705 231.297 144.135 231.297 144.615V150H230.007V144.615ZM224.941 140.46V139.41H230.161V138.03H231.376V140.46H224.941ZM1.17 174V165.6H2.43V174H1.17ZM4.11 174V165.6H5.37V174H4.11ZM12.8332 174V169.95H10.7332C10.0232 169.95 9.4632 170.09 9.0532 170.37C8.6432 170.64 8.4382 171.06 8.4382 171.63C8.4382 172.12 8.5832 172.485 8.8732 172.725C9.1632 172.955 9.5282 173.07 9.9682 173.07C10.1782 173.07 10.3982 173.05 10.6282 173.01C10.8682 172.96 11.0782 172.895 11.2582 172.815L11.4682 173.88C11.2482 173.96 10.9932 174.025 10.7032 174.075C10.4132 174.125 10.1232 174.15 9.8332 174.15C9.4532 174.15 9.0982 174.1 8.7682 174C8.4482 173.89 8.1682 173.735 7.9282 173.535C7.6882 173.325 7.4982 173.065 7.3582 172.755C7.2182 172.435 7.1482 172.065 7.1482 171.645C7.1482 170.765 7.4582 170.08 8.0782 169.59C8.6982 169.09 9.6332 168.84 10.8832 168.84H12.8332V168.645C12.8332 167.985 12.6782 167.47 12.3682 167.1C12.0582 166.72 11.5082 166.53 10.7182 166.53C10.1482 166.53 9.6182 166.615 9.1282 166.785C8.6382 166.955 8.2132 167.165 7.8532 167.415L7.4332 166.5C7.5832 166.37 7.7732 166.245 8.0032 166.125C8.2432 165.995 8.5082 165.88 8.7982 165.78C9.0982 165.68 9.4182 165.6 9.7582 165.54C10.0982 165.48 10.4532 165.45 10.8232 165.45C11.9032 165.45 12.7232 165.74 13.2832 166.32C13.8432 166.89 14.1232 167.66 14.1232 168.63V174H12.8332ZM17.3358 168.57C16.9258 168.57 16.5958 168.48 16.3458 168.3C16.1058 168.12 15.9858 167.805 15.9858 167.355V166.62H17.2158V167.235C17.2158 167.425 17.3108 167.52 17.5008 167.52H19.0758V168.57H17.3358ZM17.3358 172.71C16.9258 172.71 16.5958 172.62 16.3458 172.44C16.1058 172.26 15.9858 171.945 15.9858 171.495V170.76H17.2158V171.375C17.2158 171.565 17.3108 171.66 17.5008 171.66H19.0758V172.71H17.3358ZM22.3279 172.53C22.3279 172.65 22.3479 172.745 22.3879 172.815C22.4379 172.885 22.5329 172.92 22.6729 172.92H23.4829V174H22.3279C21.9179 174 21.5979 173.875 21.3679 173.625C21.1479 173.365 21.0379 173.04 21.0379 172.65V170.43C21.0379 170.14 21.1079 169.865 21.2479 169.605C21.3879 169.345 21.5879 169.15 21.8479 169.02L20.6179 167.97C20.6979 167.65 20.8479 167.34 21.0679 167.04C21.2979 166.73 21.5779 166.46 21.9079 166.23C22.2479 165.99 22.6279 165.8 23.0479 165.66C23.4779 165.52 23.9329 165.45 24.4129 165.45C24.9829 165.45 25.4829 165.53 25.9129 165.69C26.3429 165.85 26.7029 166.075 26.9929 166.365C27.2829 166.655 27.4979 167 27.6379 167.4C27.7879 167.79 27.8629 168.225 27.8629 168.705V174H26.5729V168.705C26.5729 167.985 26.3829 167.45 26.0029 167.1C25.6329 166.74 25.1029 166.56 24.4129 166.56C23.8429 166.56 23.3329 166.685 22.8829 166.935C22.4429 167.175 22.1429 167.495 21.9829 167.895L23.1229 168.945C22.8529 169.085 22.6529 169.26 22.5229 169.47C22.3929 169.67 22.3279 169.93 22.3279 170.25V172.53ZM26.9095 164.46H21.5095V163.41H25.6645C25.6545 163.36 25.6495 163.315 25.6495 163.275C25.6395 163.225 25.6345 163.175 25.6345 163.125C25.6345 162.745 25.7645 162.43 26.0245 162.18C26.2745 161.92 26.5845 161.79 26.9545 161.79C27.3345 161.79 27.6545 161.92 27.9145 162.18C28.1645 162.43 28.2895 162.745 28.2895 163.125C28.2895 163.495 28.1695 163.805 27.9295 164.055C27.6795 164.305 27.3745 164.44 27.0145 164.46H26.9545H26.9095ZM26.9545 163.65C27.1045 163.65 27.2295 163.595 27.3295 163.485C27.4295 163.375 27.4795 163.25 27.4795 163.11C27.4795 162.96 27.4295 162.835 27.3295 162.735C27.2295 162.635 27.1045 162.585 26.9545 162.585C26.8145 162.585 26.6945 162.635 26.5945 162.735C26.4945 162.835 26.4445 162.96 26.4445 163.11C26.4445 163.25 26.4945 163.375 26.5945 163.485C26.6945 163.595 26.8145 163.65 26.9545 163.65ZM31.8895 174L29.3545 165.6H30.6745L32.8945 172.89H33.0745C33.4045 172.89 33.7145 172.82 34.0045 172.68C34.3045 172.53 34.5695 172.32 34.7995 172.05C35.0295 171.77 35.2095 171.425 35.3395 171.015C35.4795 170.605 35.5495 170.135 35.5495 169.605C35.5495 169.055 35.4995 168.585 35.3995 168.195C35.3095 167.805 35.1795 167.49 35.0095 167.25C34.8495 167.01 34.6545 166.835 34.4245 166.725C34.2045 166.615 33.9695 166.56 33.7195 166.56C33.5495 166.56 33.3845 166.575 33.2245 166.605C33.0645 166.625 32.9245 166.66 32.8045 166.71L32.6095 165.675C32.7695 165.595 32.9595 165.54 33.1795 165.51C33.4095 165.47 33.6095 165.45 33.7795 165.45C34.2295 165.45 34.6395 165.545 35.0095 165.735C35.3895 165.915 35.7145 166.185 35.9845 166.545C36.2545 166.895 36.4645 167.33 36.6145 167.85C36.7645 168.36 36.8395 168.945 36.8395 169.605C36.8395 170.285 36.7395 170.895 36.5395 171.435C36.3495 171.975 36.0845 172.435 35.7445 172.815C35.4045 173.195 35.0045 173.49 34.5445 173.7C34.0845 173.9 33.5845 174 33.0445 174H31.8895ZM44.4667 168.615C44.4667 167.895 44.3317 167.375 44.0617 167.055C43.7917 166.725 43.4367 166.56 42.9967 166.56C42.6767 166.56 42.3717 166.61 42.0817 166.71C41.8017 166.8 41.5367 166.925 41.2867 167.085C41.0367 167.235 40.8117 167.415 40.6117 167.625C40.4117 167.835 40.2467 168.05 40.1167 168.27V174H38.8267V165.6H40.0417L40.1167 166.83C40.2667 166.66 40.4417 166.495 40.6417 166.335C40.8517 166.165 41.0817 166.015 41.3317 165.885C41.5817 165.755 41.8517 165.65 42.1417 165.57C42.4317 165.49 42.7367 165.45 43.0567 165.45C43.4967 165.45 43.8817 165.525 44.2117 165.675C44.5517 165.825 44.8367 166.04 45.0667 166.32C45.2967 166.6 45.4667 166.935 45.5767 167.325C45.6967 167.705 45.7567 168.135 45.7567 168.615V174H44.4667V168.615ZM39.4005 164.46V163.41H44.6205V162.03H45.8355V164.46H39.4005ZM44.6955 161.295V159.285H45.9105V161.295H44.6955ZM54.0705 174L52.9605 170.19C52.6805 169.27 52.1705 168.8 51.4305 168.78L49.5555 170.325V174H48.2655V165.6H49.5555V168.9L53.5455 165.6H55.2855L52.3455 168.03C52.8855 168.11 53.3005 168.335 53.5905 168.705C53.8905 169.075 54.1255 169.535 54.2955 170.085L55.4505 174H54.0705ZM62.6496 165.6H63.9396V170.865C63.9396 171.875 63.6996 172.675 63.2196 173.265C62.7396 173.855 62.0046 174.15 61.0146 174.15C60.4146 174.15 59.9046 174.025 59.4846 173.775C59.0646 173.525 58.7096 173.19 58.4196 172.77L58.3446 174H57.1296V165.6H58.4196V171.33C58.5196 171.56 58.6546 171.78 58.8246 171.99C59.0046 172.19 59.2046 172.37 59.4246 172.53C59.6446 172.69 59.8746 172.815 60.1146 172.905C60.3646 172.995 60.6146 173.04 60.8646 173.04C61.4946 173.04 61.9496 172.855 62.2296 172.485C62.5096 172.105 62.6496 171.56 62.6496 170.85V165.6ZM69.8413 174V168.585C69.8413 167.235 69.2463 166.56 68.0563 166.56C67.5763 166.56 67.1263 166.65 66.7063 166.83C66.2863 167 65.9313 167.205 65.6413 167.445L65.2963 166.47C65.4463 166.34 65.6263 166.215 65.8363 166.095C66.0563 165.965 66.2913 165.855 66.5413 165.765C66.8013 165.665 67.0663 165.59 67.3363 165.54C67.6163 165.48 67.8963 165.45 68.1763 165.45C69.1563 165.45 69.8913 165.73 70.3813 166.29C70.8813 166.84 71.1313 167.625 71.1313 168.645V174H69.8413ZM78.6108 165.6H79.9008V170.865C79.9008 171.355 79.8358 171.805 79.7058 172.215C79.5758 172.615 79.3658 172.96 79.0758 173.25C78.7958 173.53 78.4308 173.75 77.9808 173.91C77.5408 174.07 77.0008 174.15 76.3608 174.15C75.3008 174.15 74.4758 173.915 73.8858 173.445C73.3058 172.975 73.0158 172.305 73.0158 171.435C73.0158 170.935 73.1408 170.51 73.3908 170.16C73.6408 169.8 73.9808 169.55 74.4108 169.41C74.0308 169.31 73.7008 169.1 73.4208 168.78C73.1508 168.46 73.0158 168.015 73.0158 167.445C73.0158 166.885 73.2058 166.425 73.5858 166.065C73.9658 165.695 74.4908 165.51 75.1608 165.51C75.4408 165.51 75.6908 165.535 75.9108 165.585C76.1308 165.635 76.3208 165.695 76.4808 165.765L76.3308 166.845C76.2308 166.795 76.0908 166.745 75.9108 166.695C75.7408 166.645 75.5608 166.62 75.3708 166.62C75.0008 166.62 74.7208 166.715 74.5308 166.905C74.3508 167.085 74.2608 167.32 74.2608 167.61C74.2608 167.81 74.3008 167.985 74.3808 168.135C74.4708 168.275 74.5808 168.4 74.7108 168.51C74.8408 168.61 74.9858 168.685 75.1458 168.735C75.3058 168.785 75.4658 168.81 75.6258 168.81H76.9008L77.0058 169.92H75.8208C75.3808 169.92 75.0108 170.05 74.7108 170.31C74.4208 170.57 74.2758 170.92 74.2758 171.36C74.2758 171.63 74.3308 171.87 74.4408 172.08C74.5608 172.29 74.7158 172.47 74.9058 172.62C75.1058 172.76 75.3308 172.865 75.5808 172.935C75.8408 173.005 76.1108 173.04 76.3908 173.04C77.1408 173.04 77.6958 172.855 78.0558 172.485C78.4258 172.105 78.6108 171.56 78.6108 170.85V165.6ZM85.017 166.665C84.487 166.775 84.042 167.095 83.682 167.625C83.322 168.155 83.142 168.885 83.142 169.815C83.142 170.415 83.207 170.915 83.337 171.315C83.477 171.715 83.652 172.04 83.862 172.29C84.082 172.54 84.322 172.72 84.582 172.83C84.842 172.93 85.102 172.98 85.362 172.98C85.572 172.98 85.752 172.965 85.902 172.935C86.062 172.905 86.222 172.86 86.382 172.8L86.622 173.82C86.452 173.9 86.252 173.965 86.022 174.015C85.792 174.065 85.552 174.09 85.302 174.09C84.822 174.09 84.372 174.01 83.952 173.85C83.542 173.69 83.177 173.44 82.857 173.1C82.547 172.75 82.302 172.305 82.122 171.765C81.942 171.225 81.852 170.575 81.852 169.815C81.852 169.225 81.927 168.68 82.077 168.18C82.227 167.68 82.437 167.245 82.707 166.875C82.987 166.495 83.317 166.185 83.697 165.945C84.077 165.705 84.492 165.54 84.942 165.45L86.202 166.395L87.492 165.45C88.162 165.59 88.672 165.9 89.022 166.38C89.382 166.86 89.562 167.47 89.562 168.21V174H88.272V168.12C88.272 167.74 88.197 167.43 88.047 167.19C87.897 166.95 87.687 166.775 87.417 166.665L86.202 167.43L85.017 166.665ZM94.132 173.055C94.812 173.055 95.327 172.925 95.677 172.665C96.027 172.395 96.202 172.09 96.202 171.75C96.202 171.54 96.137 171.355 96.007 171.195C95.887 171.035 95.722 170.895 95.512 170.775C95.312 170.645 95.082 170.535 94.822 170.445C94.572 170.355 94.317 170.27 94.057 170.19C93.677 170.08 93.322 169.96 92.992 169.83C92.672 169.69 92.392 169.525 92.152 169.335C91.922 169.135 91.742 168.905 91.612 168.645C91.482 168.375 91.417 168.055 91.417 167.685C91.417 166.975 91.697 166.425 92.257 166.035C92.827 165.645 93.597 165.45 94.567 165.45C95.037 165.45 95.497 165.5 95.947 165.6C96.397 165.69 96.797 165.825 97.147 166.005L96.817 167.025C96.207 166.705 95.497 166.545 94.687 166.545C94.057 166.545 93.562 166.655 93.202 166.875C92.852 167.095 92.677 167.365 92.677 167.685C92.677 167.865 92.727 168.025 92.827 168.165C92.927 168.305 93.062 168.43 93.232 168.54C93.402 168.64 93.597 168.735 93.817 168.825C94.037 168.905 94.272 168.985 94.522 169.065C94.992 169.215 95.407 169.375 95.767 169.545C96.137 169.705 96.447 169.89 96.697 170.1C96.947 170.31 97.137 170.55 97.267 170.82C97.397 171.09 97.462 171.41 97.462 171.78C97.462 172.49 97.192 173.065 96.652 173.505C96.122 173.935 95.302 174.15 94.192 174.15C93.642 174.15 93.132 174.1 92.662 174C92.202 173.9 91.812 173.755 91.492 173.565L91.807 172.56C92.117 172.71 92.472 172.83 92.872 172.92C93.272 173.01 93.692 173.055 94.132 173.055ZM100.974 174L98.4395 165.6H99.7595L101.979 172.89H102.159C102.489 172.89 102.799 172.82 103.089 172.68C103.389 172.53 103.654 172.32 103.884 172.05C104.114 171.77 104.294 171.425 104.424 171.015C104.564 170.605 104.634 170.135 104.634 169.605C104.634 169.055 104.584 168.585 104.484 168.195C104.394 167.805 104.264 167.49 104.094 167.25C103.934 167.01 103.739 166.835 103.509 166.725C103.289 166.615 103.054 166.56 102.804 166.56C102.634 166.56 102.469 166.575 102.309 166.605C102.149 166.625 102.009 166.66 101.889 166.71L101.694 165.675C101.854 165.595 102.044 165.54 102.264 165.51C102.494 165.47 102.694 165.45 102.864 165.45C103.314 165.45 103.724 165.545 104.094 165.735C104.474 165.915 104.799 166.185 105.069 166.545C105.339 166.895 105.549 167.33 105.699 167.85C105.849 168.36 105.924 168.945 105.924 169.605C105.924 170.285 105.824 170.895 105.624 171.435C105.434 171.975 105.169 172.435 104.829 172.815C104.489 173.195 104.089 173.49 103.629 173.7C103.169 173.9 102.669 174 102.129 174H100.974ZM107.927 174V165.6H109.217V174H107.927ZM111.334 172.29C111.694 172.51 112.074 172.69 112.474 172.83C112.884 172.97 113.329 173.04 113.809 173.04C114.569 173.04 115.174 172.78 115.624 172.26C116.084 171.74 116.314 170.94 116.314 169.86C116.314 168.72 116.094 167.885 115.654 167.355C115.224 166.825 114.609 166.56 113.809 166.56C113.279 166.56 112.824 166.63 112.444 166.77C112.064 166.9 111.684 167.09 111.304 167.34L111.004 166.305C111.404 166.045 111.854 165.84 112.354 165.69C112.864 165.53 113.384 165.45 113.914 165.45C115.124 165.45 116.039 165.83 116.659 166.59C117.289 167.34 117.604 168.39 117.604 169.74C117.604 171.18 117.269 172.275 116.599 173.025C115.939 173.775 114.999 174.15 113.779 174.15C113.209 174.15 112.704 174.08 112.264 173.94C111.824 173.8 111.409 173.6 111.019 173.34L111.334 172.29ZM124.66 174V169.95H122.56C121.85 169.95 121.29 170.09 120.88 170.37C120.47 170.64 120.265 171.06 120.265 171.63C120.265 172.12 120.41 172.485 120.7 172.725C120.99 172.955 121.355 173.07 121.795 173.07C122.005 173.07 122.225 173.05 122.455 173.01C122.695 172.96 122.905 172.895 123.085 172.815L123.295 173.88C123.075 173.96 122.82 174.025 122.53 174.075C122.24 174.125 121.95 174.15 121.66 174.15C121.28 174.15 120.925 174.1 120.595 174C120.275 173.89 119.995 173.735 119.755 173.535C119.515 173.325 119.325 173.065 119.185 172.755C119.045 172.435 118.975 172.065 118.975 171.645C118.975 170.765 119.285 170.08 119.905 169.59C120.525 169.09 121.46 168.84 122.71 168.84H124.66V168.645C124.66 167.985 124.505 167.47 124.195 167.1C123.885 166.72 123.335 166.53 122.545 166.53C121.975 166.53 121.445 166.615 120.955 166.785C120.465 166.955 120.04 167.165 119.68 167.415L119.26 166.5C119.41 166.37 119.6 166.245 119.83 166.125C120.07 165.995 120.335 165.88 120.625 165.78C120.925 165.68 121.245 165.6 121.585 165.54C121.925 165.48 122.28 165.45 122.65 165.45C123.73 165.45 124.55 165.74 125.11 166.32C125.67 166.89 125.95 167.66 125.95 168.63V174H124.66ZM131.848 174V168.585C131.848 167.235 131.253 166.56 130.063 166.56C129.583 166.56 129.133 166.65 128.713 166.83C128.293 167 127.938 167.205 127.648 167.445L127.303 166.47C127.453 166.34 127.633 166.215 127.843 166.095C128.063 165.965 128.298 165.855 128.548 165.765C128.808 165.665 129.073 165.59 129.343 165.54C129.623 165.48 129.903 165.45 130.183 165.45C131.163 165.45 131.898 165.73 132.388 166.29C132.888 166.84 133.138 167.625 133.138 168.645V174H131.848Z" fill="white"/>
<defs>
<clipPath id="clip0_0_57">
<rect width="47" height="48" fill="white"/>
</clipPath>
</defs>
</svg>
