<svg width="40" height="40" viewBox="0 0 40 40" fill="none" xmlns="http://www.w3.org/2000/svg">
<rect width="40" height="40" rx="20" fill="white" fill-opacity="0.1"/>
<path d="M10.9999 19.9999C10.9999 20.1988 11.0789 20.3896 11.2196 20.5303C11.3602 20.6709 11.551 20.7499 11.7499 20.7499H26.4396L20.9693 26.2193C20.8996 26.289 20.8443 26.3717 20.8066 26.4628C20.7689 26.5538 20.7495 26.6514 20.7495 26.7499C20.7495 26.8485 20.7689 26.9461 20.8066 27.0371C20.8443 27.1281 20.8996 27.2109 20.9693 27.2806C21.039 27.3502 21.1217 27.4055 21.2127 27.4432C21.3038 27.4809 21.4014 27.5003 21.4999 27.5003C21.5984 27.5003 21.696 27.4809 21.7871 27.4432C21.8781 27.4055 21.9608 27.3502 22.0305 27.2806L28.7805 20.5306C28.8503 20.4609 28.9056 20.3782 28.9433 20.2871C28.9811 20.1961 29.0005 20.0985 29.0005 19.9999C29.0005 19.9014 28.9811 19.8038 28.9433 19.7127C28.9056 19.6217 28.8503 19.539 28.7805 19.4693L22.0305 12.7193C21.8898 12.5786 21.6989 12.4995 21.4999 12.4995C21.3009 12.4995 21.11 12.5786 20.9693 12.7193C20.8285 12.86 20.7495 13.0509 20.7495 13.2499C20.7495 13.449 20.8285 13.6398 20.9693 13.7806L26.4396 19.2499H11.7499C11.551 19.2499 11.3602 19.3289 11.2196 19.4696C11.0789 19.6103 10.9999 19.801 10.9999 19.9999Z" fill="white"/>
</svg>
