<svg width="40" height="40" viewBox="0 0 40 40" fill="none" xmlns="http://www.w3.org/2000/svg">
<rect width="40" height="40" rx="20" fill="#C4CDD5"/>
<path d="M24.5 24.125C24.5 24.3475 24.434 24.565 24.3104 24.75C24.1868 24.935 24.0111 25.0792 23.8055 25.1644C23.6 25.2495 23.3738 25.2718 23.1555 25.2284C22.9373 25.185 22.7368 25.0778 22.5795 24.9205C22.4222 24.7632 22.315 24.5627 22.2716 24.3445C22.2282 24.1262 22.2505 23.9 22.3356 23.6945C22.4208 23.4889 22.565 23.3132 22.75 23.1896C22.935 23.066 23.1525 23 23.375 23C23.6734 23 23.9595 23.1185 24.1705 23.3295C24.3815 23.5405 24.5 23.8266 24.5 24.125ZM16.625 17C16.8475 17 17.065 16.934 17.25 16.8104C17.435 16.6868 17.5792 16.5111 17.6644 16.3055C17.7495 16.1 17.7718 15.8738 17.7284 15.6555C17.685 15.4373 17.5778 15.2368 17.4205 15.0795C17.2632 14.9222 17.0627 14.815 16.8445 14.7716C16.6262 14.7282 16.4 14.7505 16.1945 14.8356C15.9889 14.9208 15.8132 15.065 15.6896 15.25C15.566 15.435 15.5 15.6525 15.5 15.875C15.5 16.1734 15.6185 16.4595 15.8295 16.6705C16.0405 16.8815 16.3266 17 16.625 17ZM29 12.5V27.5C29 27.8978 28.842 28.2794 28.5607 28.5607C28.2794 28.842 27.8978 29 27.5 29H12.5C12.1022 29 11.7206 28.842 11.4393 28.5607C11.158 28.2794 11 27.8978 11 27.5V12.5C11 12.1022 11.158 11.7206 11.4393 11.4393C11.7206 11.158 12.1022 11 12.5 11H27.5C27.8978 11 28.2794 11.158 28.5607 11.4393C28.842 11.7206 29 12.1022 29 12.5ZM14 15.875C14 16.3942 14.154 16.9017 14.4424 17.3334C14.7308 17.7651 15.1408 18.1015 15.6205 18.3002C16.1001 18.4989 16.6279 18.5508 17.1371 18.4496C17.6463 18.3483 18.114 18.0983 18.4812 17.7312C18.8483 17.364 19.0983 16.8963 19.1996 16.3871C19.3008 15.8779 19.2489 15.3501 19.0502 14.8705C18.8515 14.3908 18.5151 13.9808 18.0834 13.6924C17.6517 13.404 17.1442 13.25 16.625 13.25C15.9288 13.25 15.2611 13.5266 14.7688 14.0188C14.2766 14.5111 14 15.1788 14 15.875ZM26 24.125C26 23.6058 25.846 23.0983 25.5576 22.6666C25.2692 22.2349 24.8592 21.8985 24.3795 21.6998C23.8999 21.5011 23.3721 21.4492 22.8629 21.5504C22.3537 21.6517 21.886 21.9017 21.5188 22.2688C21.1517 22.636 20.9017 23.1037 20.8004 23.6129C20.6992 24.1221 20.7511 24.6499 20.9498 25.1295C21.1485 25.6092 21.4849 26.0192 21.9166 26.3076C22.3483 26.596 22.8558 26.75 23.375 26.75C24.0712 26.75 24.7389 26.4734 25.2312 25.9812C25.7234 25.4889 26 24.8212 26 24.125ZM25.7806 14.2194C25.711 14.1496 25.6283 14.0943 25.5372 14.0566C25.4462 14.0188 25.3486 13.9994 25.25 13.9994C25.1514 13.9994 25.0538 14.0188 24.9628 14.0566C24.8717 14.0943 24.789 14.1496 24.7194 14.2194L14.2194 24.7194C14.0786 24.8601 13.9996 25.051 13.9996 25.25C13.9996 25.449 14.0786 25.6399 14.2194 25.7806C14.3601 25.9214 14.551 26.0004 14.75 26.0004C14.949 26.0004 15.1399 25.9214 15.2806 25.7806L25.7806 15.2806C25.8504 15.211 25.9057 15.1283 25.9434 15.0372C25.9812 14.9462 26.0006 14.8486 26.0006 14.75C26.0006 14.6514 25.9812 14.5538 25.9434 14.4628C25.9057 14.3717 25.8504 14.289 25.7806 14.2194Z" fill="white"/>
</svg>
