<svg width="47" height="48" viewBox="0 0 47 48" fill="none" xmlns="http://www.w3.org/2000/svg">
<path d="M16.5296 18.7643C16.9752 18.7482 17.4205 18.738 17.8663 18.7309C18.0351 18.726 18.0351 18.726 18.2074 18.7211C19.0541 18.7169 19.0541 18.7169 19.3459 18.9904C19.5463 19.2956 19.5782 19.4429 19.5096 19.8011C19.3349 20.0165 19.1956 20.1453 18.9482 20.2689C18.8068 20.2817 18.6649 20.2891 18.5231 20.2938C18.4345 20.2969 18.3459 20.3 18.2546 20.3033C18.158 20.3063 18.0613 20.3093 17.9617 20.3124C17.7547 20.3198 17.5476 20.3272 17.3406 20.3345C17.0161 20.3456 16.6916 20.3564 16.3671 20.3671C14.9139 20.4158 13.4714 20.5021 12.0242 20.6432C11.8962 20.6551 11.7683 20.6669 11.6404 20.6786C11.3333 20.7074 11.0267 20.739 10.7201 20.7719C10.57 20.786 10.57 20.786 10.4169 20.8004C9.69944 20.8784 9.1381 20.9959 8.6234 21.5229C8.27393 21.9584 8.05201 22.469 7.8103 22.969C7.70267 23.1876 7.59503 23.4062 7.48738 23.6249C7.3474 23.9108 7.20782 24.197 7.0684 24.4832C6.87814 24.8737 6.68649 25.2636 6.4945 25.6533C6.44468 25.7565 6.39487 25.8597 6.34355 25.966C6.29638 26.0616 6.24921 26.1572 6.20061 26.2557C6.15964 26.3398 6.11866 26.4239 6.07644 26.5106C5.93043 26.7442 5.80321 26.8648 5.56795 27.006C5.25377 27.0453 5.07284 27.04 4.79017 26.8949C4.59635 26.6867 4.5843 26.5333 4.5387 26.2574C4.12535 26.2623 3.71219 26.2712 3.29893 26.2808C3.12289 26.2828 3.12289 26.2828 2.94329 26.2849C2.83052 26.2879 2.71774 26.2909 2.60155 26.294C2.49767 26.296 2.39379 26.2979 2.28676 26.2999C1.94608 26.3634 1.83578 26.4421 1.63809 26.7253C1.57829 27.0048 1.57829 27.0048 1.58107 27.3145C1.57806 27.4273 1.57504 27.5401 1.57193 27.6562C1.56994 27.8323 1.56994 27.8323 1.56791 28.0119C1.56375 28.1901 1.56375 28.1901 1.55951 28.3719C1.55289 28.6652 1.54796 28.9584 1.54452 29.2517C1.64396 29.2607 1.64396 29.2607 1.74541 29.2699C1.93068 29.2867 2.11595 29.3036 2.3012 29.3206C2.51551 29.34 2.72993 29.358 2.94439 29.3756C3.9139 29.4788 3.9139 29.4788 4.20537 29.7897C4.38031 30.1536 4.35036 30.2696 4.258 30.6553C4.17958 30.8561 4.09543 31.0548 4.00715 31.2515C3.13373 33.2904 2.97119 35.1096 3.01991 37.3106C3.0255 37.6403 3.02436 37.9698 3.02329 38.2995C3.01029 40.4721 3.01029 40.4721 3.55838 42.5574C3.87907 43.3573 3.86424 44.1031 3.83109 44.954C3.81759 45.4538 3.80408 45.9537 3.79016 46.4687C5.27228 46.4687 6.7544 46.4687 8.28143 46.4687C8.28143 45.9746 8.28143 45.4806 8.28143 44.9715C8.03827 44.9802 8.03827 44.9802 7.7902 44.9891C7.48492 45 7.30648 45.0016 7.03763 44.8527C6.85858 44.6712 6.81303 44.5783 6.77849 44.3282C6.76776 44.2667 6.75702 44.2052 6.74596 44.1418C6.79378 43.8932 6.89873 43.749 7.08077 43.5754C7.46451 43.3493 7.93971 43.4118 8.37153 43.4168C8.48492 43.4163 8.59832 43.4158 8.71515 43.4153C9.02548 43.4144 9.33566 43.4155 9.64598 43.4177C9.97107 43.4196 10.2962 43.4191 10.6212 43.4188C11.1671 43.4188 11.713 43.4207 12.2589 43.4237C12.8895 43.4271 13.5201 43.428 14.1507 43.4273C14.758 43.4267 15.3653 43.4277 15.9725 43.4296C16.2307 43.4303 16.4888 43.4306 16.747 43.4304C17.1076 43.4303 17.4682 43.4326 17.8289 43.4351C17.9893 43.4347 17.9893 43.4347 18.153 43.4343C18.3005 43.4359 18.3005 43.4359 18.4511 43.4375C18.5363 43.4379 18.6215 43.4382 18.7093 43.4386C19.0037 43.4827 19.1793 43.5761 19.416 43.7551C19.5257 44.1252 19.5475 44.323 19.3927 44.6791C19.2289 44.878 19.2289 44.878 18.9482 44.9715C18.8211 44.9798 18.6937 44.983 18.5663 44.9828C18.45 44.983 18.45 44.983 18.3314 44.9832C18.2466 44.9828 18.1619 44.9825 18.0746 44.9822C17.9404 44.9822 17.9404 44.9822 17.8034 44.9822C17.5073 44.9821 17.2111 44.9814 16.9149 44.9807C16.7097 44.9805 16.5046 44.9804 16.2994 44.9803C15.759 44.9799 15.2186 44.979 14.6782 44.978C14.1269 44.977 13.5756 44.9766 13.0244 44.9761C11.9424 44.9751 10.8605 44.9735 9.77852 44.9715C9.78146 45.0514 9.78146 45.0514 9.78446 45.1329C9.79231 45.3774 9.79713 45.6218 9.80192 45.8663C9.80505 45.9501 9.80819 46.0338 9.81142 46.1202C9.81988 46.6974 9.74187 47.0262 9.40425 47.4979C8.99582 47.8765 8.7007 47.977 8.15175 47.9809C8.04868 47.9818 7.9456 47.9827 7.83941 47.9836C7.6723 47.9842 7.6723 47.9842 7.50182 47.9848C7.38724 47.9853 7.27267 47.9859 7.15462 47.9864C6.91197 47.9873 6.66933 47.9879 6.42668 47.9883C6.0558 47.9892 5.68498 47.9921 5.31411 47.995C5.07843 47.9956 4.84274 47.9961 4.60705 47.9965C4.49622 47.9977 4.38538 47.9988 4.27118 48C3.65234 47.9983 3.17943 47.9815 2.7006 47.5447C2.32338 47.0603 2.2822 46.7227 2.28649 46.1273C2.28568 45.9794 2.2847 45.8315 2.28356 45.6835C2.28203 45.4532 2.28131 45.2231 2.28375 44.9928C2.29093 44.1987 2.2686 43.495 1.96407 42.754C1.34098 41.2326 1.43871 39.6097 1.44885 37.9929C1.451 37.6358 1.4497 37.279 1.44501 36.9219C1.39577 33.1661 1.39577 33.1661 2.30019 31.4019C2.38666 31.2166 2.43746 31.0419 2.4802 30.8424C2.40783 30.8389 2.33547 30.8354 2.2609 30.8318C1.51779 30.7849 0.914412 30.7347 0.333983 30.2283C-0.0912503 29.7258 0.019361 29.0808 0.0146727 28.4512C0.0131328 28.3 0.0105922 28.1488 0.00699719 27.9977C-0.016014 27.0242 -0.0233588 26.1829 0.67961 25.4254C1.25045 24.8805 1.85973 24.7189 2.62604 24.7124C2.69988 24.7108 2.77372 24.7091 2.8498 24.7073C3.08332 24.7023 3.31683 24.6991 3.55039 24.696C3.70969 24.6929 3.86899 24.6896 4.02828 24.6863C4.41674 24.6784 4.80518 24.6721 5.19368 24.6667C5.26932 24.5118 5.26932 24.5118 5.34648 24.3537C5.53576 23.9666 5.72632 23.5801 5.91726 23.1939C5.99935 23.0273 6.08111 22.8606 6.16251 22.6937C7.32166 20.3189 7.32166 20.3189 8.46857 19.7075C8.52006 19.6772 8.57156 19.6469 8.62461 19.6157C9.35541 19.2322 10.1703 19.2071 10.9774 19.1344C11.1399 19.1189 11.3024 19.1033 11.4649 19.0877C13.1509 18.9296 14.8377 18.8272 16.5296 18.7643Z" fill="white"/>
<path d="M28.0707 18.7226C28.1894 18.7236 28.3082 18.7246 28.4305 18.7256C28.5583 18.7291 28.686 18.7328 28.8137 18.7365C28.946 18.7387 29.0782 18.7408 29.2105 18.7427C29.5949 18.7492 29.9791 18.7601 30.3635 18.7715C30.4594 18.7738 30.5553 18.776 30.6541 18.7783C32.1083 18.8127 33.554 18.961 34.9998 19.1122C35.276 19.141 35.5522 19.1686 35.8284 19.1959C37.2977 19.3466 38.3655 19.6834 39.346 20.8301C39.5573 21.1572 39.7304 21.4982 39.9016 21.8477C39.9488 21.941 39.996 22.0344 40.0446 22.1306C40.1874 22.4138 40.3282 22.698 40.4688 22.9822C40.5551 23.154 40.6414 23.3256 40.728 23.4972C40.9238 23.8862 41.1179 24.2761 41.3109 24.6665C41.4052 24.6674 41.4996 24.6682 41.5967 24.6691C41.9508 24.6729 42.3047 24.6791 42.6587 24.6859C42.8112 24.6885 42.9636 24.6905 43.1161 24.6918C44.9822 24.709 44.9822 24.709 45.7463 25.3116C45.7937 25.3708 45.8411 25.4301 45.8899 25.4911C45.939 25.5496 45.9881 25.6081 46.0387 25.6684C46.3821 26.203 46.5014 26.6631 46.5043 27.2952C46.5053 27.3654 46.5062 27.4357 46.5072 27.508C46.5086 27.6555 46.5093 27.803 46.5092 27.9505C46.5098 28.1749 46.5149 28.3989 46.5202 28.6231C46.5335 29.8209 46.5335 29.8209 46.1966 30.231C45.7697 30.6268 45.3132 30.6995 44.7496 30.7603C44.6799 30.7683 44.6101 30.7764 44.5383 30.7848C44.3671 30.8045 44.1958 30.8234 44.0244 30.8421C44.1451 31.1911 44.266 31.5401 44.387 31.889C44.4211 31.9877 44.4553 32.0864 44.4904 32.1881C44.5402 32.3315 44.5402 32.3315 44.5909 32.4778C44.6365 32.6094 44.6365 32.6094 44.683 32.7436C44.7664 32.9895 44.7664 32.9895 44.8702 33.1969C44.9856 33.5373 44.9899 33.8588 44.9917 34.2142C44.9928 34.2886 44.9939 34.3631 44.995 34.4399C44.9982 34.6861 45 34.9323 45.0014 35.1786C45.0024 35.3058 45.0024 35.3058 45.0034 35.4357C45.0067 35.8863 45.0089 36.3369 45.0102 36.7876C45.0114 37.1568 45.0147 37.5258 45.0198 37.895C45.0689 41.4965 45.0689 41.4965 44.4533 42.9722C44.1683 43.6777 44.2256 44.4453 44.2408 45.1935C44.2438 45.4206 44.2457 45.6475 44.2455 45.8745C44.2455 46.0134 44.2474 46.1523 44.2514 46.291C44.2536 46.8065 44.1195 47.0824 43.8373 47.4977C43.4289 47.8762 43.1337 47.9768 42.5848 47.9806C42.4817 47.9815 42.3786 47.9824 42.2724 47.9833C42.1053 47.9839 42.1053 47.9839 41.9348 47.9845C41.8203 47.9851 41.7057 47.9856 41.5877 47.9862C41.345 47.987 41.1024 47.9877 40.8597 47.988C40.4888 47.9889 40.118 47.9918 39.7471 47.9948C39.5115 47.9954 39.2758 47.9959 39.0401 47.9962C38.9292 47.9974 38.8184 47.9986 38.7042 47.9997C38.0854 47.9981 37.6125 47.9812 37.1336 47.5445C36.8298 47.1542 36.7138 46.8958 36.717 46.4059C36.7173 46.3224 36.7176 46.2389 36.7179 46.1528C36.7191 46.0224 36.7191 46.0224 36.7203 45.8894C36.7207 45.8015 36.7211 45.7135 36.7215 45.6228C36.7226 45.4056 36.7242 45.1885 36.7261 44.9713C36.5533 44.9722 36.5533 44.9722 36.3769 44.9732C35.292 44.9789 34.2071 44.9831 33.1222 44.9858C32.5644 44.9873 32.0066 44.9893 31.4488 44.9925C30.9106 44.9955 30.3725 44.9972 29.8344 44.9979C29.6289 44.9984 29.4234 44.9995 29.2179 45.001C28.9305 45.003 28.6431 45.0033 28.3557 45.0032C28.2278 45.0047 28.2278 45.0047 28.0973 45.0062C27.521 45.0034 27.521 45.0034 27.2245 44.8399C27.0659 44.6656 27.0213 44.5605 26.9892 44.328C26.9731 44.2357 26.9731 44.2357 26.9566 44.1416C27.0044 43.8929 27.1094 43.7488 27.2914 43.5751C27.6752 43.3491 28.1504 43.4116 28.5822 43.4166C28.6956 43.4161 28.809 43.4156 28.9258 43.415C29.2361 43.4141 29.5463 43.4153 29.8566 43.4175C30.1817 43.4194 30.5068 43.4188 30.8319 43.4186C31.3778 43.4186 31.9236 43.4204 32.4695 43.4234C33.1002 43.4269 33.7308 43.4277 34.3614 43.4271C34.9687 43.4265 35.5759 43.4275 36.1832 43.4293C36.4413 43.4301 36.6995 43.4303 36.9576 43.4302C37.3183 43.4301 37.6789 43.4323 38.0395 43.4349C38.1465 43.4346 38.2534 43.4343 38.3636 43.434C38.5112 43.4356 38.5112 43.4356 38.6617 43.4373C38.7469 43.4376 38.8322 43.438 38.92 43.4383C39.2144 43.4825 39.39 43.5759 39.6267 43.7549C39.7364 44.1249 39.7582 44.3227 39.6033 44.6789C39.4396 44.8777 39.4396 44.8777 39.1589 44.9713C38.9972 44.9777 38.8353 44.9792 38.6735 44.9771C38.5249 44.9752 38.3763 44.9733 38.2232 44.9713C38.2232 45.4653 38.2232 45.9594 38.2232 46.4684C39.7053 46.4684 41.1874 46.4684 42.7145 46.4684C42.6889 45.479 42.6889 45.479 42.6555 44.4898C42.638 43.6905 42.7389 43.0717 43.0376 42.3305C43.5614 40.9637 43.4852 39.4941 43.4805 38.0516C43.4796 37.7229 43.4829 37.3947 43.4901 37.066C43.5412 34.7319 43.2637 32.7774 42.2466 30.655C42.2157 30.6241 42.1849 30.5932 42.1531 30.5614C42.1719 30.2277 42.1914 29.9845 42.387 29.708C42.72 29.4577 43.0392 29.4245 43.4455 29.3684C43.5186 29.3567 43.5918 29.345 43.6671 29.333C44.1027 29.2667 44.5197 29.2397 44.9601 29.2514C44.958 28.8381 44.9507 28.4249 44.9426 28.0116C44.942 27.8943 44.9415 27.7769 44.9409 27.656C44.9382 27.5432 44.9355 27.4304 44.9327 27.3142C44.9305 27.1584 44.9305 27.1584 44.9282 26.9994C44.8873 26.711 44.8873 26.711 44.6646 26.5046C44.3587 26.3276 44.1723 26.3007 43.8208 26.2937C43.6585 26.2892 43.6585 26.2892 43.4928 26.2846C43.3807 26.2833 43.2686 26.2819 43.1531 26.2806C43.0391 26.2778 42.9252 26.275 42.8078 26.2722C42.5272 26.2656 42.2466 26.2606 41.9659 26.2572C41.9408 26.346 41.9157 26.4347 41.8899 26.5262C41.7788 26.8186 41.7788 26.8186 41.4981 27.0058C41.2291 27.0467 41.2291 27.0467 40.9367 27.0058C40.4286 26.6081 40.203 26.0597 39.9279 25.4885C39.8777 25.3867 39.8276 25.2848 39.7759 25.1799C39.6161 24.8552 39.4575 24.5299 39.2992 24.2045C39.1408 23.8794 38.9822 23.5545 38.8225 23.2301C38.7234 23.0285 38.6249 22.8266 38.5273 22.6243C38.0707 21.6709 38.0707 21.6709 37.229 21.0816C37.1583 21.053 37.0877 21.0244 37.0148 20.9949C36.5968 20.8423 36.2022 20.7873 35.7615 20.7457C35.6816 20.738 35.6017 20.7303 35.5193 20.7225C35.253 20.6973 34.9866 20.673 34.7202 20.6488C34.6289 20.6403 34.5376 20.6318 34.4435 20.6231C33.2906 20.5173 32.1403 20.4413 30.983 20.4061C30.8171 20.4009 30.8171 20.4009 30.6478 20.3956C30.1055 20.3793 29.5633 20.3663 29.0208 20.3573C28.8222 20.3523 28.6235 20.3473 28.4248 20.3421C28.3342 20.3417 28.2435 20.3412 28.1501 20.3407C27.7207 20.3278 27.5231 20.3145 27.1725 20.0477C26.995 19.8008 26.995 19.8008 26.9365 19.5201C27.0658 18.8997 27.4785 18.7122 28.0707 18.7226Z" fill="white"/>
<path d="M14.5507 0.0579554C15.0041 0.4175 15.0041 0.4175 15.0538 0.789911C15.0366 0.943055 15.0366 0.943055 15.0189 1.09929C15.01 1.18782 15.01 1.18782 15.0008 1.27813C14.9864 1.41558 14.9708 1.55289 14.9541 1.69008C14.9213 1.95966 14.892 2.22952 14.8628 2.49951C14.7915 3.15007 14.7151 3.79998 14.6384 4.44992C14.6118 4.67793 14.5852 4.90595 14.5586 5.13397C14.4939 5.6877 14.4289 6.24138 14.3636 6.79503C14.4773 6.79356 14.5911 6.79209 14.7083 6.79057C15.1312 6.78549 15.554 6.78227 15.9769 6.77961C16.1598 6.7782 16.3427 6.77628 16.5255 6.77385C16.7887 6.77044 17.0518 6.76885 17.315 6.76762C17.3965 6.76617 17.478 6.76472 17.562 6.76323C18.0073 6.7631 18.3077 6.78232 18.6677 7.07574C18.8062 7.35278 18.7983 7.51402 18.7613 7.8243C18.6175 8.10721 18.4331 8.3576 18.2466 8.6138C18.1926 8.69031 18.1386 8.76682 18.083 8.84565C17.966 9.01124 17.8486 9.17646 17.7307 9.34135C17.4761 9.69868 17.2262 10.0591 16.9762 10.4196C16.7848 10.6955 16.5929 10.9711 16.4009 11.2466C16.1101 11.6643 15.8209 12.083 15.5332 12.5028C15.0507 13.2066 14.5631 13.9067 14.0754 14.6068C13.7014 15.1438 13.3296 15.6822 12.96 16.2223C11.8119 17.8958 11.8119 17.8958 11.5565 18.0235C11.2631 18.049 11.0531 18.047 10.7787 17.9358C10.4339 17.5143 10.5194 16.866 10.5667 16.3501C10.5894 16.1442 10.6131 15.9385 10.6377 15.7328C10.65 15.6232 10.6624 15.5136 10.6751 15.4006C10.7147 15.0525 10.7555 14.7046 10.7963 14.3567C10.823 14.1219 10.8497 13.887 10.8763 13.6522C10.9254 13.2221 10.9746 12.792 11.025 12.362C11.0401 12.2331 11.0401 12.2331 11.0555 12.1015C11.0912 11.8285 11.1355 11.5577 11.1823 11.2864C11.0074 11.2901 11.0074 11.2901 10.8289 11.2938C10.3956 11.3023 9.96231 11.3077 9.52893 11.3121C9.34151 11.3145 9.1541 11.3177 8.9667 11.3217C8.69702 11.3274 8.42746 11.33 8.15773 11.3321C8.03242 11.3357 8.03242 11.3357 7.90456 11.3394C7.48414 11.3396 7.309 11.33 6.96572 11.0659C6.78455 10.8186 6.78455 10.8186 6.72314 10.558C6.81261 10.1197 7.03869 9.82557 7.29917 9.46764C7.35319 9.39113 7.40721 9.31462 7.46287 9.23579C7.57981 9.0702 7.69726 8.90498 7.81517 8.74009C8.0697 8.38276 8.31962 8.0223 8.56965 7.66181C8.76104 7.3859 8.95295 7.11035 9.14495 6.83487C9.43576 6.41718 9.7249 5.99841 10.0127 5.57861C10.4951 4.87485 10.9827 4.17472 11.4705 3.47465C11.8444 2.93763 12.2162 2.39923 12.5858 1.85919C13.876 -0.0214245 13.876 -0.0214245 14.5507 0.0579554Z" fill="white"/>
<path d="M23.2524 0C23.6369 0.080104 23.759 0.218996 24.0009 0.526334C24.0467 0.807111 24.0637 1.03441 24.0593 1.31472C24.0599 1.39427 24.0605 1.47382 24.0612 1.55578C24.0627 1.82361 24.0609 2.09132 24.0591 2.35915C24.0595 2.55259 24.0601 2.74602 24.0609 2.93946C24.0625 3.472 24.0612 4.00451 24.0594 4.53705C24.0579 5.11099 24.0592 5.68491 24.0601 6.25885C24.0614 7.31852 24.0605 8.37818 24.0586 9.43786C24.0569 10.4167 24.0561 11.3956 24.0563 12.3745C24.0563 12.4394 24.0563 12.5043 24.0563 12.5711C24.0563 12.8345 24.0564 13.0979 24.0564 13.3613C24.0569 15.8331 24.0548 18.3048 24.0514 20.7765C24.0484 22.9733 24.0472 25.17 24.0478 27.3668C24.0479 27.5078 24.0479 27.6489 24.0479 27.7899C24.0479 27.8596 24.048 27.9294 24.048 28.0012C24.0481 28.3522 24.0482 28.7032 24.0482 29.0543C24.0483 29.1235 24.0483 29.1927 24.0483 29.2641C24.0487 31.0988 24.0478 32.9335 24.0464 34.7682C24.0463 34.8335 24.0463 34.8987 24.0462 34.966C24.0462 35.0311 24.0461 35.0962 24.0461 35.1633C24.046 35.2284 24.046 35.2934 24.0459 35.3604C24.0458 35.4913 24.0457 35.6222 24.0456 35.7532C24.045 36.6667 24.0448 37.5801 24.0449 38.4936C24.0451 39.6707 24.0443 40.8479 24.0419 42.025C24.0408 42.5928 24.0402 43.1606 24.0407 43.7284C24.0412 44.2477 24.0404 44.7671 24.0385 45.2864C24.0381 45.4747 24.0381 45.6631 24.0387 45.8514C24.0393 46.1065 24.0383 46.3616 24.0368 46.6168C24.0374 46.6906 24.038 46.7645 24.0386 46.8406C24.034 47.2626 23.9836 47.5382 23.7202 47.873C23.4574 48.0044 23.2629 47.9899 22.9717 47.9666C22.6783 47.8 22.6123 47.7305 22.5039 47.4052C22.4946 47.1493 22.4906 46.8957 22.491 46.6398C22.4908 46.5605 22.4905 46.4811 22.4903 46.3994C22.4896 46.1312 22.4895 45.863 22.4895 45.5948C22.4891 45.4016 22.4887 45.2083 22.4882 45.015C22.4871 44.4821 22.4866 43.9491 22.4861 43.4162C22.4856 42.8421 22.4845 42.268 22.4835 41.694C22.4813 40.3724 22.4799 39.0509 22.4788 37.7293C22.4784 37.2722 22.478 36.8152 22.4775 36.3581C22.4752 33.9286 22.4731 31.4991 22.4719 29.0696C22.4717 28.5067 22.4714 27.9438 22.4711 27.3809C22.4711 27.311 22.471 27.241 22.471 27.169C22.4699 24.9004 22.467 22.6318 22.4631 20.3633C22.4591 18.0319 22.4566 15.7004 22.4561 13.369C22.456 13.0399 22.4559 12.7109 22.4558 12.3818C22.4558 12.317 22.4558 12.2523 22.4558 12.1855C22.4554 11.142 22.4535 10.0985 22.4511 9.05497C22.4486 8.00671 22.4479 6.95845 22.4489 5.91018C22.4494 5.34198 22.4491 4.7738 22.4468 4.2056C22.4447 3.6859 22.4448 3.16625 22.4466 2.64656C22.4468 2.45809 22.4463 2.26963 22.4449 2.08117C22.4431 1.8258 22.4442 1.57061 22.446 1.31524C22.4448 1.24134 22.4436 1.16744 22.4424 1.0913C22.4483 0.716257 22.489 0.545176 22.7238 0.246756C22.9717 0.0584816 22.9717 0.0584816 23.2524 0Z" fill="white"/>
<path d="M34.0132 0.0585146C34.3736 0.37524 34.6423 0.734575 34.9021 1.13458C34.9613 1.22484 34.9613 1.22484 35.0218 1.31692C35.9426 2.72881 36.8118 4.17072 37.634 5.64209C37.7415 5.83408 37.8503 6.02521 37.9595 6.21626C38.7485 7.62076 39.6009 9.2847 39.7208 10.9127C39.7281 10.9992 39.7353 11.0857 39.7428 11.1748C39.8128 12.7378 39.1942 14.174 38.1828 15.3456C37.0897 16.4976 35.6542 17.1868 34.0691 17.2978C32.369 17.3335 30.9562 16.8498 29.6623 15.7316C28.5878 14.701 27.8542 13.3116 27.7149 11.8151C27.7091 11.5113 27.7206 11.2156 27.7441 10.9127C27.7497 10.8269 27.7552 10.7412 27.7609 10.6528C27.8718 9.68875 28.2967 8.80024 28.6798 7.91843C28.709 7.85074 28.7382 7.78304 28.7683 7.71329C29.7829 5.3896 31.1819 3.22837 32.5746 1.11703C32.63 1.03246 32.6854 0.947894 32.7425 0.860763C32.7944 0.782858 32.8464 0.704954 32.8999 0.624689C32.9455 0.555854 32.9912 0.487018 33.0382 0.416097C33.3207 0.0536463 33.5745 -0.00289984 34.0132 0.0585146ZM33.6389 2.21064C33.5273 2.34285 33.5273 2.34285 33.4211 2.52059C33.3778 2.58919 33.3345 2.65779 33.2898 2.72847C33.2429 2.80461 33.196 2.88075 33.1477 2.9592C33.0983 3.03848 33.049 3.11775 32.9982 3.19943C30.0493 7.49487 30.0493 7.49487 29.3465 12.4157C29.7097 13.7038 30.4699 14.6376 31.6345 15.2904C32.7581 15.854 33.9344 15.9394 35.1448 15.5938C36.3103 15.1818 37.1983 14.4471 37.7559 13.3397C37.9819 12.8467 38.1699 12.3893 38.2237 11.8484C38.2335 11.7687 38.2433 11.6889 38.2533 11.6068C38.4367 8.75484 35.8905 5.42244 34.4174 3.15296C34.3311 3.01761 34.247 2.88086 34.1645 2.74314C34.1232 2.6744 34.082 2.60566 34.0395 2.53484C34.0029 2.4726 33.9663 2.41035 33.9286 2.34622C33.8947 2.30147 33.8609 2.25673 33.826 2.21064C33.7643 2.21064 33.7025 2.21064 33.6389 2.21064Z" fill="white"/>
<path d="M13.0537 3.80029C13.0846 3.80029 13.1155 3.80029 13.1473 3.80029C13.1054 4.73242 13.0497 5.65654 12.9202 6.58123C12.8597 7.05365 12.8258 7.54847 12.9601 8.01096C13.307 8.24219 13.5825 8.23066 13.9846 8.23685C14.0931 8.23957 14.0931 8.23957 14.2037 8.24234C14.4344 8.24793 14.6651 8.25227 14.8958 8.25659C15.0523 8.26016 15.2088 8.26381 15.3653 8.26755C15.7488 8.27654 16.1322 8.2844 16.5157 8.29168C16.3651 8.68981 16.1655 9.00971 15.9134 9.35019C15.8279 9.4678 15.7425 9.5855 15.6572 9.70327C15.6132 9.76392 15.5692 9.82456 15.5239 9.88703C15.3159 10.1768 15.1146 10.4709 14.9134 10.7654C14.4063 11.5066 13.8933 12.2437 13.3795 12.9802C13.2879 13.1117 13.2879 13.1117 13.1944 13.2458C13.1371 13.328 13.0799 13.4101 13.0209 13.4948C12.8915 13.6826 12.7654 13.8719 12.6411 14.0631C12.592 14.1347 12.5429 14.2064 12.4923 14.2802C12.4614 14.2802 12.4305 14.2802 12.3987 14.2802C12.447 13.3698 12.5181 12.4651 12.6176 11.5589C12.7442 10.7315 12.7442 10.7315 12.4923 9.97594C12.155 9.86351 11.8399 9.86084 11.4883 9.85277C11.3829 9.84985 11.3829 9.84985 11.2755 9.84688C11.0515 9.84076 10.8274 9.83525 10.6034 9.82974C10.4514 9.8257 10.2994 9.82162 10.1474 9.8175C9.77505 9.80748 9.40267 9.798 9.03027 9.7888C9.18091 9.39067 9.3805 9.07077 9.63262 8.73029C9.71814 8.61268 9.80354 8.49498 9.88883 8.37721C9.93281 8.31656 9.97679 8.25592 10.0221 8.19345C10.2301 7.9037 10.4315 7.60953 10.6326 7.31503C11.1397 6.57384 11.6527 5.83678 12.1665 5.10025C12.2581 4.9688 12.2581 4.9688 12.3516 4.83469C12.4089 4.75251 12.4661 4.67034 12.5251 4.58568C12.6545 4.39787 12.7806 4.20858 12.9049 4.01741C12.954 3.94576 13.0031 3.87411 13.0537 3.80029Z" fill="#FF595A"/>
<path d="M39.6209 28.7562C39.7506 29.0386 39.7588 29.2261 39.7203 29.534C39.5868 29.8011 39.4882 29.8878 39.213 30.0037C38.7581 30.1283 38.3055 30.1789 37.8372 30.2299C37.7321 30.2416 37.6271 30.2533 37.5188 30.2653C35.2253 30.5131 32.9293 30.7024 30.622 30.7437C30.3758 30.7484 30.1299 30.7541 29.8838 30.7612C29.5585 30.7704 29.2331 30.7772 28.9077 30.7821C28.7248 30.7854 28.542 30.7909 28.3591 30.7964C27.4436 30.8047 27.4436 30.8047 27.154 30.5318C26.9569 30.2228 26.9201 30.0807 26.995 29.7211C27.1886 29.4431 27.3445 29.2788 27.6828 29.2059C27.9628 29.1824 28.24 29.1739 28.521 29.17C28.6255 29.1667 28.73 29.1634 28.8377 29.16C29.1728 29.15 29.5078 29.1431 29.843 29.1363C30.0624 29.1304 30.2817 29.1244 30.5011 29.1181C30.9352 29.1058 31.3693 29.0941 31.8035 29.0829C33.5533 29.0363 35.2713 28.9001 37.0093 28.6924C37.29 28.6591 37.5707 28.6269 37.8515 28.5946C37.9358 28.5842 38.0201 28.5738 38.107 28.5631C39.2494 28.4327 39.2494 28.4327 39.6209 28.7562Z" fill="white"/>
<path d="M7.77856 28.5266C7.88749 28.537 7.99641 28.5473 8.10863 28.5579C8.62409 28.6136 9.13943 28.6701 9.65456 28.7287C11.0569 28.8872 12.4571 29.0126 13.8667 29.0822C13.9415 29.0859 14.0162 29.0896 14.0932 29.0934C14.9336 29.1339 15.7738 29.1625 16.6149 29.1802C16.7288 29.1827 16.7288 29.1827 16.8449 29.1853C17.2062 29.1933 17.5674 29.1999 17.9288 29.2035C18.0575 29.2058 18.1862 29.2081 18.3149 29.2105C18.4821 29.2124 18.4821 29.2124 18.6528 29.2143C18.9775 29.2555 19.1558 29.3379 19.4165 29.5325C19.5479 29.7954 19.5333 29.9899 19.51 30.2811C19.3435 30.5745 19.274 30.6405 18.9486 30.7489C18.7974 30.7578 18.6458 30.7612 18.4943 30.7614C18.3544 30.7617 18.3544 30.7617 18.2117 30.762C18.1095 30.7616 18.0072 30.7611 17.9018 30.7606C17.7934 30.7602 17.6849 30.7597 17.5731 30.7593C17.2207 30.7569 16.8683 30.7532 16.5159 30.7489C16.4047 30.7478 16.2934 30.7466 16.1789 30.7454C14.5307 30.7234 12.8947 30.6177 11.2526 30.4799C11.1145 30.4685 11.1145 30.4685 10.9735 30.4569C10.3562 30.4055 9.73987 30.3475 9.12397 30.2811C9.03587 30.2716 8.94777 30.2622 8.857 30.2524C8.59909 30.2234 8.34183 30.1911 8.08449 30.1575C8.00735 30.1489 7.93022 30.1402 7.85074 30.1312C7.357 30.0616 7.10109 29.9444 6.78477 29.5325C6.70839 29.1659 6.75649 29.0203 6.94266 28.6962C7.29515 28.4768 7.37957 28.4875 7.77856 28.5266Z" fill="white"/>
<path d="M40.1887 33.2766C40.4752 33.4696 40.4752 33.4696 40.6565 33.7444C40.6565 34.0661 40.6481 34.2878 40.4492 34.5486C40.2314 34.7202 40.029 34.7778 39.7629 34.8549C39.6608 34.8856 39.5587 34.9164 39.4535 34.9481C39.2391 35.0108 39.0247 35.0732 38.8102 35.1352C37.914 35.4004 37.914 35.4004 37.281 36.0588C37.1675 36.3369 37.1308 36.6054 37.0892 36.9025C37.0735 37.012 37.0579 37.1215 37.0417 37.2343C37.0304 37.3178 37.019 37.4013 37.0073 37.4873C37.0614 37.4866 37.1155 37.486 37.1712 37.4854C37.7343 37.4792 38.2974 37.4749 38.8606 37.4718C39.0707 37.4704 39.2808 37.4685 39.4909 37.4661C39.793 37.4627 40.0952 37.4611 40.3974 37.4599C40.4911 37.4584 40.5849 37.457 40.6815 37.4555C41.5052 37.4553 41.5052 37.4553 41.8729 37.768C42.0043 38.0308 41.9898 38.2254 41.9665 38.5165C41.7999 38.81 41.7304 38.8759 41.4051 38.9844C41.2487 38.9944 41.0921 38.9992 40.9355 39.001C40.8399 39.0022 40.7443 39.0034 40.6458 39.0046C40.5426 39.0053 40.4394 39.006 40.333 39.0067C40.2268 39.0074 40.1205 39.0082 40.011 39.009C39.786 39.0103 39.561 39.0113 39.3359 39.012C38.9921 39.0136 38.6485 39.0177 38.3047 39.0219C38.0861 39.0228 37.8674 39.0236 37.6488 39.0242C37.4948 39.0267 37.4948 39.0267 37.3377 39.0292C36.6026 39.0271 36.3068 38.9032 35.7617 38.4171C35.3522 37.9469 35.4782 37.2286 35.5103 36.6451C35.6402 35.6567 36.0485 34.8755 36.8261 34.2415C37.3211 33.9201 37.8649 33.7447 38.4226 33.5632C38.5548 33.5201 38.5548 33.5201 38.6898 33.4761C39.2067 33.3184 39.6481 33.2273 40.1887 33.2766Z" fill="white"/>
<path d="M7.0648 33.2757C7.42997 33.3665 7.78095 33.488 8.13499 33.6149C8.2733 33.6614 8.2733 33.6614 8.41441 33.7088C9.39536 34.0533 10.1376 34.4839 10.6204 35.4278C10.7334 35.7044 10.8244 35.9813 10.9011 36.2699C10.9182 36.3265 10.9354 36.3831 10.953 36.4413C11.0778 37.0488 11.0991 37.7298 10.8368 38.2934C10.381 38.7615 10.0605 38.9921 9.40076 39.0015C9.25694 39.0038 9.25694 39.0038 9.11022 39.0061C8.67267 39.0102 8.23514 39.0141 7.79759 39.0162C7.5667 39.0178 7.33582 39.0203 7.10496 39.0239C6.7721 39.029 6.43935 39.0311 6.10646 39.0324C6.00333 39.0346 5.90019 39.0367 5.79394 39.0389C5.07911 39.0369 5.07911 39.0369 4.70728 38.764C4.53846 38.5156 4.53846 38.5156 4.47998 38.2349C4.56191 37.8416 4.68342 37.7267 5.0063 37.4863C5.34954 37.4216 5.68624 37.4319 6.03446 37.4407C6.13348 37.4413 6.23251 37.442 6.33454 37.4427C6.65015 37.4453 6.96561 37.4511 7.28118 37.4571C7.49542 37.4594 7.70967 37.4616 7.92391 37.4635C8.44852 37.4686 8.97304 37.4765 9.49758 37.4863C9.47048 37.2905 9.44254 37.0947 9.41424 36.899C9.39877 36.7899 9.3833 36.6809 9.36737 36.5686C9.27512 36.0846 9.08431 35.8259 8.70407 35.5246C8.23049 35.2164 7.66313 35.1231 7.122 34.987C6.65412 34.8629 6.28523 34.7613 5.94198 34.3985C5.83672 34.0769 5.83672 34.0769 5.84842 33.7435C6.17444 33.2492 6.51043 33.2069 7.0648 33.2757Z" fill="white"/>
<path d="M28.414 39.676C28.5057 39.676 28.5974 39.676 28.6919 39.676C28.8854 39.6765 29.0788 39.6781 29.2723 39.6808C29.568 39.6847 29.8636 39.6847 30.1593 39.684C30.3475 39.685 30.5358 39.6862 30.724 39.6877C30.8122 39.6877 30.9004 39.6877 30.9913 39.6877C31.7866 39.702 31.7866 39.702 32.1421 40.0122C32.2518 40.3823 32.2736 40.5801 32.1188 40.9363C31.955 41.1351 31.955 41.1351 31.6743 41.2287C31.5371 41.2381 31.3994 41.2425 31.2619 41.2437C31.1373 41.2451 31.1373 41.2451 31.0101 41.2465C30.9207 41.2469 30.8312 41.2473 30.739 41.2477C30.6468 41.2482 30.5546 41.2487 30.4597 41.2493C30.2647 41.2502 30.0697 41.2508 29.8747 41.2511C29.5764 41.2521 29.278 41.255 28.9797 41.2579C28.7903 41.2585 28.6009 41.259 28.4115 41.2594C28.3222 41.2605 28.2329 41.2617 28.1409 41.2629C28.0575 41.2626 27.9742 41.2623 27.8883 41.262C27.8152 41.2624 27.742 41.2627 27.6667 41.2631C27.4102 41.2196 27.2809 41.1209 27.0895 40.948C27.016 40.7732 27.016 40.7732 26.99 40.5854C26.9793 40.5239 26.9686 40.4623 26.9575 40.399C27.1034 39.6406 27.8007 39.6653 28.414 39.676Z" fill="white"/>
<path d="M15.6875 39.676C15.7792 39.676 15.8709 39.676 15.9653 39.676C16.1588 39.6765 16.3523 39.6781 16.5457 39.6808C16.8415 39.6847 17.137 39.6847 17.4327 39.684C17.621 39.685 17.8092 39.6862 17.9974 39.6877C18.0857 39.6877 18.1739 39.6877 18.2648 39.6877C19.06 39.702 19.06 39.702 19.4156 40.0122C19.5252 40.3823 19.547 40.5801 19.3922 40.9363C19.2284 41.1351 19.2284 41.1351 18.9477 41.2287C18.8105 41.2381 18.6729 41.2425 18.5353 41.2437C18.4107 41.2451 18.4107 41.2451 18.2836 41.2465C18.1941 41.2469 18.1046 41.2473 18.0124 41.2477C17.9203 41.2482 17.8281 41.2487 17.7331 41.2493C17.5381 41.2502 17.3432 41.2508 17.1482 41.2511C16.8498 41.2521 16.5515 41.255 16.2531 41.2579C16.0637 41.2585 15.8743 41.259 15.6849 41.2594C15.5956 41.2605 15.5063 41.2617 15.4143 41.2629C15.331 41.2626 15.2476 41.2623 15.1617 41.262C15.0886 41.2624 15.0155 41.2627 14.9401 41.2631C14.6836 41.2196 14.5544 41.1209 14.3629 40.948C14.2894 40.7732 14.2894 40.7732 14.2635 40.5854C14.2528 40.5239 14.242 40.4623 14.231 40.399C14.3768 39.6406 15.0741 39.6653 15.6875 39.676Z" fill="white"/>
</svg>
