<svg width="48" height="48" viewBox="0 0 48 48" fill="none" xmlns="http://www.w3.org/2000/svg">
<g clip-path="url(#clip0_5_32061)">
<path d="M40.3274 42.3278H6.45997C5.34184 42.3278 4.42969 41.4206 4.42969 40.3021V32.0584C4.42969 30.9428 5.3389 30.0327 6.45997 30.0327H40.3274C41.4456 30.0327 42.3577 30.9399 42.3577 32.0584V40.3021C42.3577 41.4177 41.4485 42.3278 40.3274 42.3278ZM6.45997 31.0602C5.90973 31.0602 5.45954 31.5065 5.45954 32.0584V40.3021C5.45954 40.8511 5.90679 41.3002 6.45997 41.3002H40.3274C40.8777 41.3002 41.3279 40.854 41.3279 40.3021V32.0584C41.3279 31.5094 40.8806 31.0602 40.3274 31.0602H6.45997Z" fill="white" stroke="white"/>
<path d="M7.67086 31.0609C7.57964 31.0609 7.48842 31.0374 7.40604 30.9875C7.16181 30.8407 7.08531 30.5237 7.23243 30.2829L12.5494 21.4873C12.6436 21.3317 12.8113 21.2378 12.9908 21.2378H23.3953C23.6807 21.2378 23.9102 21.4668 23.9102 21.7516C23.9102 22.0363 23.6807 22.2653 23.3953 22.2653H13.2821L8.11516 30.8143C8.01806 30.9728 7.8474 31.0638 7.6738 31.0638L7.67086 31.0609Z" fill="white" stroke="white"/>
<path d="M39.1138 31.0604C38.9402 31.0604 38.7695 30.9724 38.6724 30.8109L33.5055 22.2619H23.3924C23.107 22.2619 22.8774 22.0329 22.8774 21.7481C22.8774 21.4634 23.107 21.2344 23.3924 21.2344H33.7968C33.9763 21.2344 34.144 21.3283 34.2382 21.4839L39.5552 30.2795C39.7023 30.5232 39.6229 30.8373 39.3816 30.9841C39.2992 31.034 39.208 31.0575 39.1168 31.0575L39.1138 31.0604Z" fill="white" stroke="white"/>
<path d="M27.0668 36.6945H19.7195C19.4341 36.6945 19.2046 36.4655 19.2046 36.1808C19.2046 35.896 19.4341 35.667 19.7195 35.667H27.0668C27.3522 35.667 27.5817 35.896 27.5817 36.1808C27.5817 36.4655 27.3522 36.6945 27.0668 36.6945Z" fill="white" stroke="white"/>
<path d="M11.9052 36.6945H9.27469C8.98928 36.6945 8.75977 36.4655 8.75977 36.1808C8.75977 35.896 8.98928 35.667 9.27469 35.667H11.9052C12.1906 35.667 12.4202 35.896 12.4202 36.1808C12.4202 36.4655 12.1906 36.6945 11.9052 36.6945Z" fill="white" stroke="white"/>
<path d="M37.5107 36.6945H34.8802C34.5947 36.6945 34.3652 36.4655 34.3652 36.1808C34.3652 35.896 34.5947 35.667 34.8802 35.667H37.5107C37.7961 35.667 38.0256 35.896 38.0256 36.1808C38.0256 36.4655 37.7961 36.6945 37.5107 36.6945Z" fill="white" stroke="white"/>
<path d="M10.5896 48.0002C8.87714 48.0002 7.48242 46.6087 7.48242 44.9001V41.8116C7.48242 41.5268 7.71193 41.2979 7.99735 41.2979C8.28276 41.2979 8.51227 41.5268 8.51227 41.8116V44.9001C8.51227 46.0421 9.44503 46.9727 10.5896 46.9727C11.7342 46.9727 12.667 46.0421 12.667 44.9001V41.8116C12.667 41.5268 12.8965 41.2979 13.1819 41.2979C13.4673 41.2979 13.6968 41.5268 13.6968 41.8116V44.9001C13.6968 46.6087 12.3021 48.0002 10.5896 48.0002Z" fill="white" stroke="white"/>
<path d="M36.1951 48.0002C34.4826 48.0002 33.0879 46.6087 33.0879 44.9001V41.8116C33.0879 41.5268 33.3174 41.2979 33.6028 41.2979C33.8882 41.2979 34.1177 41.5268 34.1177 41.8116V44.9001C34.1177 46.0421 35.0505 46.9727 36.1951 46.9727C37.3397 46.9727 38.2725 46.0421 38.2725 44.9001V41.8116C38.2725 41.5268 38.502 41.2979 38.7874 41.2979C39.0728 41.2979 39.3023 41.5268 39.3023 41.8116V44.9001C39.3023 46.6087 37.9076 48.0002 36.1951 48.0002Z" fill="white" stroke="white"/>
<path d="M14.5708 1.35742H31.7144C31.9165 1.35749 32.1028 1.43475 32.2339 1.56055C32.3635 1.68502 32.4281 1.84521 32.4282 2.00293V8.04883C32.4281 12.3201 30.5622 15.1311 28.5005 16.96C26.4133 18.8114 24.1233 19.6518 23.3745 19.8906L23.3677 19.8936C23.2222 19.941 23.063 19.941 22.9175 19.8936L22.9116 19.8916L22.562 19.7725C21.5941 19.4262 19.6123 18.5802 17.7856 16.96C15.7236 15.131 13.857 12.32 13.8569 8.04883V2.00293C13.857 1.84521 13.9216 1.68501 14.0513 1.56055C14.1823 1.43475 14.3687 1.35753 14.5708 1.35742ZM27.4282 5.11719C27.2495 5.1172 27.0715 5.14244 26.8999 5.19238L26.731 5.25098C26.5641 5.31734 26.4067 5.40702 26.2651 5.51855L26.1294 5.63672L21.4282 10.1504L20.1558 8.92871C19.8484 8.63364 19.4516 8.45745 19.0356 8.41797L18.8569 8.40918C18.4371 8.40918 18.0262 8.54872 17.6948 8.80957L17.5581 8.92871C17.2495 9.22498 17.0535 9.62056 17.0093 10.0479L16.9995 10.2324L17.0093 10.417C17.0535 10.8442 17.2495 11.2399 17.5581 11.5361L20.1294 14.0049V14.0039C20.3035 14.1712 20.5077 14.3021 20.73 14.3906C20.9524 14.4791 21.1898 14.5244 21.4282 14.5244C21.6667 14.5244 21.904 14.4791 22.1265 14.3906C22.3486 14.3022 22.553 14.172 22.7271 14.0049L28.7271 8.24414C28.9013 8.07684 29.0425 7.87633 29.1392 7.65234C29.2359 7.42816 29.2856 7.18567 29.2856 6.94043C29.2856 6.75649 29.2576 6.57447 29.2026 6.40039L29.1392 6.22949L29.0581 6.06641C28.9696 5.90741 28.8579 5.76231 28.7271 5.63672C28.5965 5.51149 28.4488 5.40699 28.2896 5.3252L28.1265 5.25098L27.9565 5.19238C27.785 5.14247 27.6069 5.11719 27.4282 5.11719Z" stroke="white" stroke-width="2"/>
</g>
<defs>
<clipPath id="clip0_5_32061">
<rect width="48" height="48" fill="white"/>
</clipPath>
</defs>
</svg>
