<svg width="47" height="48" viewBox="0 0 47 48" fill="none" xmlns="http://www.w3.org/2000/svg">
<g clip-path="url(#clip0_5_32042)">
<path d="M32.457 43.4201H14.5463C14.2646 43.4201 14.0381 43.1911 14.0381 42.9063C14.0381 42.6216 14.2646 42.3926 14.5463 42.3926H32.457C32.7388 42.3926 32.9653 42.6216 32.9653 42.9063C32.9653 43.1911 32.7388 43.4201 32.457 43.4201Z" fill="white" stroke="white"/>
<path d="M44.9728 43.4195H41.5167C41.235 43.4195 41.0085 43.1905 41.0085 42.9057C41.0085 42.621 41.235 42.392 41.5167 42.392H44.9728C45.5304 42.392 45.9835 41.934 45.9835 41.3703V37.2456C45.9835 34.0602 43.4161 31.468 40.2621 31.468H1.0165V41.3703C1.0165 41.934 1.46957 42.392 2.02719 42.392H5.48328C5.765 42.392 5.99153 42.621 5.99153 42.9057C5.99153 43.1905 5.765 43.4195 5.48328 43.4195H2.02719C0.90904 43.4195 0 42.5006 0 41.3703V30.9542C0 30.6694 0.226534 30.4404 0.508249 30.4404H40.265C43.9795 30.4404 47.0029 33.4936 47.0029 37.2456V41.3703C47.0029 42.5006 46.0939 43.4195 44.9757 43.4195H44.9728Z" fill="white" stroke="white"/>
<path d="M38.4239 31.4681C38.2874 31.4681 38.148 31.4123 38.0493 31.3007L31.1952 23.7235C31.0064 23.5151 31.0209 23.1892 31.2271 22.9984C31.4333 22.8075 31.7557 22.8222 31.9445 23.0306L38.7986 30.6079C38.9873 30.8163 38.9728 31.1422 38.7666 31.333C38.6679 31.424 38.5459 31.4681 38.4239 31.4681Z" fill="white" stroke="white"/>
<path d="M0.508086 31.468C0.438383 31.468 0.36868 31.4533 0.301882 31.4239C0.0463049 31.3094 -0.0698664 31.007 0.0434006 30.7458L4.46953 20.6232C4.55085 20.4382 4.73382 20.3179 4.93421 20.3179H26.9951C27.2769 20.3179 27.5034 20.5469 27.5034 20.8316C27.5034 21.1164 27.2769 21.3454 26.9951 21.3454H5.2653L0.972771 31.1597C0.888547 31.3505 0.702673 31.465 0.508086 31.465V31.468Z" fill="white" stroke="white"/>
<path d="M17.7026 31.4694C17.4209 31.4694 17.1943 31.2404 17.1943 30.9557V20.8331C17.1943 20.5483 17.4209 20.3193 17.7026 20.3193C17.9843 20.3193 18.2108 20.5483 18.2108 20.8331V30.9557C18.2108 31.2404 17.9843 31.4694 17.7026 31.4694Z" fill="white" stroke="white"/>
<path d="M34.6931 24.3259C28.0568 24.3259 22.6606 18.8683 22.6606 12.1629C22.6606 5.45761 28.0597 0 34.6931 0C41.3265 0 46.7255 5.45761 46.7255 12.1629C46.7255 18.8683 41.3265 24.3259 34.6931 24.3259ZM34.6931 1.02752C28.6173 1.02752 23.6771 6.02422 23.6771 12.1629C23.6771 18.3017 28.6202 23.2983 34.6931 23.2983C40.7659 23.2983 45.709 18.3017 45.709 12.1629C45.709 6.02422 40.7688 1.02752 34.6931 1.02752Z" fill="white" stroke="white"/>
<path d="M37.239 15.246C37.1083 15.246 36.9776 15.1961 36.8788 15.0963L34.3376 12.5275C34.2417 12.4306 34.1895 12.3014 34.1895 12.1634V5.92782C34.1895 5.64305 34.416 5.41406 34.6977 5.41406C34.9794 5.41406 35.206 5.64305 35.206 5.92782V11.952L37.5991 14.3711C37.7966 14.5708 37.7966 14.8966 37.5991 15.0963C37.5003 15.1961 37.3696 15.246 37.239 15.246Z" fill="white" stroke="white"/>
<path d="M21.1929 14.9142H12.6572C12.3755 14.9142 12.1489 14.6853 12.1489 14.4005C12.1489 14.1157 12.3755 13.8867 12.6572 13.8867H21.1929C21.4746 13.8867 21.7011 14.1157 21.7011 14.4005C21.7011 14.6853 21.4746 14.9142 21.1929 14.9142Z" fill="white" stroke="white"/>
<path d="M23.9434 8.48162H16.9208C16.6391 8.48162 16.4126 8.25263 16.4126 7.96786C16.4126 7.68309 16.6391 7.4541 16.9208 7.4541H23.9434C24.2251 7.4541 24.4517 7.68309 24.4517 7.96786C24.4517 8.25263 24.2251 8.48162 23.9434 8.48162Z" fill="white" stroke="white"/>
<path d="M10.016 48.0001C7.23658 48.0001 4.97705 45.7161 4.97705 42.9066C4.97705 40.097 7.23658 37.813 10.016 37.813C12.7954 37.813 15.0549 40.097 15.0549 42.9066C15.0549 45.7161 12.7954 48.0001 10.016 48.0001ZM10.016 38.8405C7.79711 38.8405 5.99355 40.6636 5.99355 42.9066C5.99355 45.1495 7.79711 46.9726 10.016 46.9726C12.2349 46.9726 14.0384 45.1495 14.0384 42.9066C14.0384 40.6636 12.2349 38.8405 10.016 38.8405Z" fill="white" stroke="white"/>
<path d="M36.9867 48.0001C34.2073 48.0001 31.9478 45.7161 31.9478 42.9066C31.9478 40.097 34.2073 37.813 36.9867 37.813C39.7661 37.813 42.0256 40.097 42.0256 42.9066C42.0256 45.7161 39.7661 48.0001 36.9867 48.0001ZM36.9867 38.8405C34.7678 38.8405 32.9643 40.6636 32.9643 42.9066C32.9643 45.1495 34.7678 46.9726 36.9867 46.9726C39.2056 46.9726 41.0091 45.1495 41.0091 42.9066C41.0091 40.6636 39.2056 38.8405 36.9867 38.8405Z" fill="white" stroke="white"/>
<path d="M23.5007 37.4426H20.7446C20.4629 37.4426 20.2363 37.2136 20.2363 36.9288C20.2363 36.644 20.4629 36.415 20.7446 36.415H23.5007C23.7825 36.415 24.009 36.644 24.009 36.9288C24.009 37.2136 23.7825 37.4426 23.5007 37.4426Z" fill="white" stroke="white"/>
</g>
<defs>
<clipPath id="clip0_5_32042">
<rect width="47" height="48" fill="white"/>
</clipPath>
</defs>
</svg>
