<svg width="302" height="24" viewBox="0 0 302 24" fill="none" xmlns="http://www.w3.org/2000/svg">
<line x1="8" y1="11.5" x2="139" y2="11.5" stroke="#DFE3E8" stroke-dasharray="2 2"/>
<rect x="162.5" y="0.5" width="23" height="23" rx="11.5" transform="rotate(90 162.5 0.5)" stroke="#DFE3E8"/>
<g opacity="0.2">
<path d="M153.977 5.97699C154.029 5.92469 154.091 5.8832 154.16 5.85489C154.228 5.82658 154.301 5.81201 154.375 5.81201C154.449 5.81201 154.522 5.82658 154.59 5.85489C154.659 5.8832 154.721 5.92469 154.773 5.97699L157.023 8.22699C157.102 8.30565 157.155 8.40592 157.177 8.51509C157.199 8.62427 157.188 8.73744 157.145 8.84027C157.103 8.94311 157.03 9.03099 156.938 9.0928C156.845 9.1546 156.736 9.18754 156.625 9.18745L154.938 9.18745L154.938 17.625C154.938 17.7741 154.878 17.9172 154.773 18.0227C154.667 18.1282 154.524 18.1875 154.375 18.1875C154.226 18.1875 154.083 18.1282 153.977 18.0227C153.872 17.9172 153.813 17.7741 153.813 17.625L153.813 9.18745L152.125 9.18745C152.014 9.18754 151.905 9.1546 151.812 9.0928C151.72 9.03099 151.648 8.94311 151.605 8.84027C151.562 8.73744 151.551 8.62427 151.573 8.51509C151.595 8.40592 151.648 8.30565 151.727 8.22698L153.977 5.97699ZM148.023 18.0229L150.273 15.7729C150.352 15.6943 150.405 15.594 150.427 15.4848C150.449 15.3756 150.438 15.2625 150.395 15.1596C150.353 15.0568 150.28 14.9689 150.188 14.9071C150.095 14.8453 149.986 14.8124 149.875 14.8125L148.188 14.8125L148.188 6.37495C148.188 6.22577 148.128 6.0827 148.023 5.97721C147.917 5.87172 147.774 5.81245 147.625 5.81245C147.476 5.81245 147.333 5.87172 147.227 5.97721C147.122 6.0827 147.063 6.22577 147.063 6.37495L147.063 14.8125L145.375 14.8125C145.264 14.8124 145.155 14.8453 145.062 14.9071C144.97 14.9689 144.898 15.0568 144.855 15.1596C144.812 15.2625 144.801 15.3756 144.823 15.4848C144.845 15.594 144.898 15.6943 144.977 15.7729L147.227 18.0229C147.279 18.0752 147.341 18.1167 147.41 18.145C147.478 18.1733 147.551 18.1879 147.625 18.1879C147.699 18.1879 147.772 18.1733 147.84 18.145C147.909 18.1167 147.971 18.0752 148.023 18.0229Z" fill="#161C24"/>
</g>
<line x1="163" y1="11.5" x2="294" y2="11.5" stroke="#DFE3E8" stroke-dasharray="4 4"/>
</svg>
