<svg width="16" height="16" viewBox="0 0 16 16" fill="none" xmlns="http://www.w3.org/2000/svg">
<g opacity="0.8">
<path d="M3.85354 1.85378L1.85354 3.85378C1.80708 3.90024 1.75193 3.93709 1.69124 3.96223C1.63054 3.98737 1.56549 4.00031 1.49979 4.00031C1.43409 4.00031 1.36904 3.98737 1.30834 3.96223C1.24765 3.93709 1.19249 3.90024 1.14604 3.85378C1.05222 3.75996 0.999512 3.63272 0.999512 3.50003C0.999512 3.36735 1.05222 3.2401 1.14604 3.14628L3.14604 1.14628C3.19249 1.09983 3.24764 1.06298 3.30834 1.03784C3.36904 1.0127 3.43409 0.999756 3.49979 0.999756C3.56549 0.999756 3.63054 1.0127 3.69124 1.03784C3.75193 1.06298 3.80708 1.09983 3.85354 1.14628C3.89999 1.19274 3.93685 1.24789 3.96199 1.30859C3.98713 1.36928 4.00007 1.43434 4.00007 1.50003C4.00007 1.56573 3.98713 1.63079 3.96199 1.69148C3.93685 1.75218 3.89999 1.80733 3.85354 1.85378ZM14.8535 3.14628L12.8535 1.14628C12.7597 1.05246 12.6325 0.999756 12.4998 0.999756C12.3671 0.999756 12.2399 1.05246 12.146 1.14628C12.0522 1.2401 11.9995 1.36735 11.9995 1.50003C11.9995 1.63272 12.0522 1.75996 12.146 1.85378L14.146 3.85378C14.1925 3.90024 14.2476 3.93709 14.3083 3.96223C14.369 3.98737 14.4341 4.00031 14.4998 4.00031C14.5655 4.00031 14.6305 3.98737 14.6912 3.96223C14.7519 3.93709 14.8071 3.90024 14.8535 3.85378C14.9 3.80733 14.9368 3.75218 14.962 3.69148C14.9871 3.63079 15.0001 3.56573 15.0001 3.50003C15.0001 3.43434 14.9871 3.36928 14.962 3.30859C14.9368 3.24789 14.9 3.19274 14.8535 3.14628ZM13.9998 8.00003C13.9998 9.18672 13.6479 10.3468 12.9886 11.3335C12.3293 12.3202 11.3922 13.0892 10.2959 13.5433C9.19953 13.9974 7.99313 14.1163 6.82925 13.8847C5.66536 13.6532 4.59626 13.0818 3.75715 12.2427C2.91803 11.4036 2.34659 10.3345 2.11508 9.17058C1.88357 8.00669 2.00239 6.80029 2.45651 5.70393C2.91064 4.60758 3.67967 3.6705 4.66637 3.01122C5.65306 2.35193 6.8131 2.00003 7.99979 2.00003C9.59053 2.00185 11.1156 2.63458 12.2404 3.7594C13.3652 4.88423 13.998 6.40929 13.9998 8.00003ZM11.9998 8.00003C11.9998 7.86743 11.9471 7.74025 11.8533 7.64648C11.7596 7.55271 11.6324 7.50003 11.4998 7.50003H8.49979V4.50003C8.49979 4.36743 8.44711 4.24025 8.35334 4.14648C8.25958 4.05271 8.1324 4.00003 7.99979 4.00003C7.86718 4.00003 7.74 4.05271 7.64624 4.14648C7.55247 4.24025 7.49979 4.36743 7.49979 4.50003V8.00003C7.49979 8.13264 7.55247 8.25982 7.64624 8.35359C7.74 8.44736 7.86718 8.50003 7.99979 8.50003H11.4998C11.6324 8.50003 11.7596 8.44736 11.8533 8.35359C11.9471 8.25982 11.9998 8.13264 11.9998 8.00003Z" fill="#FF595A"/>
</g>
</svg>
