<svg width="104" height="40" viewBox="0 0 104 40" fill="none" xmlns="http://www.w3.org/2000/svg">
<path fill-rule="evenodd" clip-rule="evenodd" d="M26.4632 2.02906C17.7077 4.41772 6.99594 9.62762 2.33638 20.9662C0.969096 24.2963 0.118474 28.1567 1.33312e-05 32.6307C1.33312e-05 32.6307 2.49879 24.3095 13.2921 15.0159C18.0253 10.9391 24.3531 6.6784 32.762 2.84885C34.9164 1.86832 37.2054 0.914106 39.6408 -1.33341e-05C39.6408 -1.33341e-05 33.723 0.046096 26.4632 2.02905V2.02906Z" fill="#FF595A"/>
<path fill-rule="evenodd" clip-rule="evenodd" d="M29.4268 30.3793V33.5555C28.171 34.4072 26.7639 34.7701 24.7548 34.7701C22.7622 34.7701 21.8333 33.9831 21.8333 32.2979C21.8333 31.7417 21.8333 30.0308 25.3928 30.0308C26.8143 30.0308 28.1653 30.1457 29.4268 30.3792V30.3793ZM25.6227 17.3809C23.2415 17.3809 20.5728 17.722 17.684 18.4015L17.4032 18.4625V23.457L17.8568 23.3506C20.6873 22.6879 23.2993 22.3494 25.6227 22.3494C29.4269 22.3494 29.4269 24.224 29.4269 24.8347V26.0032C28.0845 25.7821 26.7297 25.6674 25.3929 25.6674C18.9294 25.6674 15.6504 27.922 15.6504 32.367C15.6504 34.6588 16.6494 39.9996 25.8576 39.9996C25.9471 39.9996 34.4985 39.9353 35.6046 34.0369L35.6078 24.7362C35.6078 19.8558 32.2503 17.3809 25.6227 17.3809V17.3809Z" fill="#FF595A"/>
<path fill-rule="evenodd" clip-rule="evenodd" d="M97.1139 25.9484V26.4011C97.1139 28.5901 96.0321 29.9765 93.7079 29.9765C92.2857 29.9765 90.9406 29.6533 89.6998 29.0253V23.1786C90.8774 22.7242 91.8282 22.5578 93.196 22.5578C96.7573 22.5578 97.1139 24.5922 97.1139 25.9484ZM92.9692 17.5078C86.0824 17.5078 83.5156 19.3283 83.5156 19.3283V39.4652H89.7V33.7885C91.2463 34.3754 93.2133 34.6832 94.4935 34.6832C102.195 34.6832 103.235 30.1906 103.235 25.8008C103.235 20.8226 100.214 17.5078 92.9692 17.5078H92.9692Z" fill="#FF595A"/>
<path fill-rule="evenodd" clip-rule="evenodd" d="M73.6077 30.379V33.5552C72.3525 34.4069 70.9453 34.7698 68.9364 34.7698C66.9436 34.7698 66.016 33.9828 66.016 32.2976C66.016 31.7414 66.016 30.0305 69.5748 30.0305C70.9955 30.0305 72.3467 30.1454 73.6077 30.3789V30.379ZM69.8052 17.3809C67.4222 17.3809 64.754 17.722 61.8653 18.4015L61.5844 18.4625V23.457L62.0391 23.3506C64.8675 22.6879 67.4813 22.3494 69.8052 22.3494C73.6078 22.3494 73.6078 24.224 73.6078 24.8347V26.0032C72.2636 25.7821 70.9104 25.6674 69.5749 25.6674C63.112 25.6674 59.8325 27.922 59.8325 32.367C59.8325 34.6588 60.8309 39.9996 70.0381 39.9996C70.1304 39.9996 78.6795 39.9353 79.7855 34.0369L79.7887 24.7362C79.7887 19.8558 76.4311 17.3809 69.8052 17.3809V17.3809Z" fill="#FF595A"/>
<path fill-rule="evenodd" clip-rule="evenodd" d="M49.9843 26.0958H46.4859C44.5103 26.0958 44.2844 25.0941 44.2844 24.3369C44.2844 23.1047 45.648 22.4761 48.3373 22.4761C51.0868 22.4761 53.6705 22.9435 56.0115 23.8665L56.5128 24.0634V18.8236L56.2669 18.7397C53.8404 17.9215 51.2272 17.5094 48.4784 17.5094C41.8684 17.5094 38.5116 19.8769 38.5116 24.5406C38.5116 29.0132 40.8505 31.2786 45.4593 31.2786H49.3642C50.747 31.2786 51.3604 31.8177 51.3604 33.0368C51.3604 33.497 51.3604 34.8974 48.2085 34.8974C45.1362 34.8974 42.384 34.4307 40.0438 33.5082L39.5358 33.3122V38.5502L39.7853 38.6324C42.2126 39.4515 44.9799 39.8681 48.0087 39.8681C54.3374 39.8681 57.5414 37.5049 57.5414 32.8352C57.5414 28.3661 55.0006 26.0958 49.9843 26.0958H49.9843Z" fill="#FF595A"/>
</svg>
