<svg width="24" height="24" viewBox="0 0 24 24" fill="none" xmlns="http://www.w3.org/2000/svg">
<path d="M9.6001 10.3937C9.6001 9.75713 9.85295 9.14668 10.303 8.6966C10.7531 8.24651 11.3636 7.99365 12.0001 7.99365C12.6366 7.99365 13.2471 8.24651 13.6972 8.6966C14.1472 9.14668 14.4001 9.75713 14.4001 10.3937C14.4001 11.0302 14.1472 11.6406 13.6972 12.0907C13.2471 12.5408 12.6366 12.7937 12.0001 12.7937C11.3636 12.7937 10.7531 12.5408 10.303 12.0907C9.85295 11.6406 9.6001 11.0302 9.6001 10.3937Z" fill="white"/>
<path fill-rule="evenodd" clip-rule="evenodd" d="M1.6001 10.3936C1.60179 7.63646 2.69825 4.99282 4.64845 3.04383C6.59864 1.09483 9.24295 -5.22062e-07 12.0001 0C17.7425 0 22.4001 4.6544 22.4001 10.3936C22.4001 14.672 20.2593 18.0624 17.9649 20.3536C16.9492 21.3706 15.8127 22.2594 14.5809 23C14.0657 23.304 13.5841 23.544 13.1649 23.7072C12.7697 23.864 12.3553 23.9856 12.0001 23.9856C11.6449 23.9856 11.2305 23.864 10.8353 23.7072C10.346 23.5078 9.87265 23.2714 9.4193 23C8.18747 22.2594 7.051 21.3706 6.0353 20.3536C3.7409 18.0624 1.6001 14.672 1.6001 10.3936ZM12.0001 6.3952C10.9392 6.3952 9.92182 6.81663 9.17167 7.56677C8.42152 8.31692 8.0001 9.33433 8.0001 10.3952C8.0001 11.4561 8.42152 12.4735 9.17167 13.2236C9.92182 13.9738 10.9392 14.3952 12.0001 14.3952C13.061 14.3952 14.0784 13.9738 14.8285 13.2236C15.5787 12.4735 16.0001 11.4561 16.0001 10.3952C16.0001 9.33433 15.5787 8.31692 14.8285 7.56677C14.0784 6.81663 13.061 6.3952 12.0001 6.3952Z" fill="white"/>
</svg>
