<svg width="49" height="48" viewBox="0 0 49 48" fill="none" xmlns="http://www.w3.org/2000/svg">
<path d="M20.5291 5.14659C20.6254 5.14611 20.7218 5.14563 20.8211 5.14514C21.1387 5.14384 21.4564 5.14392 21.774 5.14414C21.9951 5.14378 22.2163 5.14337 22.4374 5.14292C22.9004 5.14222 23.3634 5.14225 23.8264 5.14274C24.4199 5.14329 25.0134 5.1417 25.6069 5.13952C26.0634 5.13814 26.5198 5.13806 26.9762 5.13835C27.1951 5.1383 27.4139 5.13781 27.6328 5.13686C27.9385 5.13571 28.2442 5.13634 28.55 5.13743C28.6404 5.13671 28.7309 5.13599 28.8241 5.13525C29.6205 5.14153 29.6205 5.14153 29.9768 5.45392C30.0868 5.82509 30.1086 6.0235 29.9533 6.3807C29.7891 6.58013 29.7891 6.58013 29.5075 6.67398C29.3746 6.68258 29.2414 6.68608 29.1082 6.68631C28.9861 6.68687 28.9861 6.68687 28.8614 6.68745C28.7278 6.68737 28.7278 6.68737 28.5915 6.6873C28.4975 6.68762 28.4034 6.68795 28.3066 6.68828C28.1021 6.68898 27.8976 6.68948 27.6931 6.68981C27.3692 6.69049 27.0453 6.69196 26.7214 6.69369C25.8004 6.69862 24.8794 6.70312 23.9584 6.70457C23.3952 6.70552 22.832 6.70828 22.2688 6.7122C22.0543 6.71336 21.8399 6.71384 21.6254 6.71363C21.3249 6.71341 21.0244 6.71549 20.7238 6.71809C20.6357 6.71747 20.5476 6.71685 20.4568 6.71621C19.7898 6.72564 19.2917 6.88437 18.7858 7.32764C18.7353 7.38874 18.6847 7.44983 18.6326 7.51278C18.5806 7.57363 18.5286 7.63448 18.475 7.69718C18.1045 8.2348 18.0837 8.76173 18.1516 9.39566C18.3196 10.0675 18.7087 10.5147 19.2778 10.8973C19.5973 11.0443 19.8485 11.1085 20.1994 11.1092C20.2878 11.1099 20.3762 11.1105 20.4673 11.1112C20.5632 11.1109 20.659 11.1107 20.7578 11.1104C20.8596 11.1109 20.9615 11.1114 21.0664 11.1119C21.2873 11.1129 21.5081 11.1134 21.729 11.1136C22.0785 11.1139 22.4279 11.1155 22.7774 11.1174C23.6452 11.122 24.513 11.1249 25.3809 11.1269C26.1144 11.1286 26.8478 11.1314 27.5813 11.1358C27.813 11.1369 28.0447 11.1374 28.2764 11.1374C28.6002 11.1374 28.9239 11.1391 29.2476 11.1412C29.3435 11.1408 29.4394 11.1404 29.5381 11.1399C30.3623 11.1484 30.3623 11.1484 30.7276 11.4604C30.8391 11.684 30.8391 11.684 30.9153 11.9414C31.4316 13.4942 32.516 14.5512 33.9611 15.2852C35.628 16.0308 37.2918 16.2629 39.0985 16.3522C39.2104 16.3589 39.3224 16.3656 39.4378 16.3725C39.5382 16.3777 39.6387 16.3829 39.7422 16.3883C40.0536 16.4403 40.2382 16.5243 40.4881 16.716C40.5981 17.0872 40.6199 17.2856 40.4646 17.6428C40.3004 17.8422 40.3004 17.8422 40.0188 17.9361C36.8938 18.1422 33.6726 17.3901 31.2562 15.349C30.4347 14.5895 30.0196 13.7985 29.5075 12.7743C26.4724 12.7433 23.4373 12.7124 20.3102 12.6804C20.3102 13.0831 20.3102 13.4857 20.3102 13.9005C20.5096 13.9063 20.7089 13.9121 20.9143 13.9181C21.7132 13.9769 22.2408 14.1905 22.7855 14.7804C23.1835 15.2528 23.331 15.7326 23.3475 16.3406C23.3596 16.6779 23.4032 16.9531 23.5011 17.2791C23.7675 17.4971 24.0132 17.5958 24.3344 17.7165C24.9192 17.9675 25.267 18.4433 25.5257 19.0105C25.7055 19.5046 25.7034 19.9845 25.7037 20.5056C25.705 20.661 25.705 20.661 25.7064 20.8196C25.7085 21.1587 25.7079 21.4977 25.7066 21.8368C25.7064 21.9535 25.7062 22.0702 25.706 22.1904C25.6955 25.231 25.4008 28.2036 24.815 31.1867C24.7923 31.3031 24.7923 31.3031 24.7692 31.4219C24.2657 33.9608 24.2657 33.9608 23.3134 34.6416C22.0853 35.436 20.5026 35.0966 19.1198 34.9598C18.9553 34.9438 18.7908 34.9279 18.6262 34.912C18.2843 34.8787 17.9424 34.8448 17.6005 34.8107C17.1641 34.7671 16.7274 34.7256 16.2907 34.6845C15.9521 34.6524 15.6135 34.6188 15.275 34.585C15.1141 34.5691 14.9531 34.5536 14.792 34.5387C13.6201 34.4295 12.6818 34.2525 11.8636 33.3276C11.5289 32.7899 11.2903 32.2623 11.2869 31.6236C11.2863 31.5472 11.2857 31.4708 11.2851 31.392C11.285 31.3096 11.2849 31.2272 11.2847 31.1423C11.2843 31.056 11.2839 30.9697 11.2835 30.8807C11.2826 30.5995 11.2826 30.3182 11.2829 30.037C11.283 29.9409 11.2831 29.8448 11.2832 29.7458C11.2862 28.2413 11.3153 26.7526 11.4882 25.2565C11.4953 25.1952 11.5024 25.134 11.5097 25.0709C11.6947 23.4874 11.9303 21.9122 12.2393 20.3481C12.266 20.2129 12.2922 20.0777 12.3179 19.9423C12.5265 18.8563 12.8148 17.7477 13.7205 17.035C14.1391 16.7707 14.6122 16.5375 15.1125 16.5195C15.1863 16.4915 15.2601 16.4634 15.3361 16.4345C15.4516 16.1751 15.5345 15.9425 15.6118 15.6719C15.9661 14.5685 15.9661 14.5685 16.4623 14.1821C16.5186 14.1352 16.5748 14.0884 16.6328 14.0402C17.3073 13.573 18.0209 13.6797 18.8086 13.7128C18.8086 13.2482 18.8086 12.7837 18.8086 12.305C18.6227 12.2431 18.4369 12.1812 18.2455 12.1173C17.3768 11.5268 16.7838 10.6359 16.58 9.59986C16.4476 8.46542 16.6308 7.58004 17.2952 6.63879C17.7683 6.05704 18.3021 5.64553 18.9963 5.36007C19.0732 5.32797 19.1502 5.29587 19.2295 5.26279C19.6679 5.14263 20.0765 5.14543 20.5291 5.14659Z" fill="white"/>
<path d="M40.8401 32.4829C41.8799 33.0943 42.4525 33.8712 42.8344 35.0168C42.9192 36.1388 42.8249 37.221 42.0667 38.1149C41.4615 38.7767 40.8012 39.2259 40.0072 39.6331C39.8063 39.739 39.6055 39.8451 39.4048 39.9513C39.2531 40.0313 39.2531 40.0313 39.0982 40.1128C38.636 40.3593 38.1806 40.6174 37.7254 40.8766C37.5464 40.9783 37.3674 41.08 37.1883 41.1817C37.0987 41.2326 37.009 41.2835 36.9166 41.336C36.4383 41.6069 35.9586 41.8753 35.4789 42.1436C35.3333 42.2251 35.3333 42.2251 35.1848 42.3081C34.9876 42.4184 34.7904 42.5288 34.5932 42.6391C34.2899 42.8087 33.9867 42.9786 33.6836 43.1485C32.7581 43.6672 31.8324 44.1852 30.9046 44.6997C30.3994 44.98 29.8951 45.262 29.3911 45.5445C29.1881 45.6582 28.985 45.7719 28.7818 45.8855C28.3293 46.1387 27.8771 46.3924 27.4264 46.6488C26.046 47.4316 24.8036 48.0073 23.1885 47.9961C23.0454 47.9955 23.0454 47.9955 22.8995 47.9949C21.4952 47.9764 20.0956 47.8466 18.6969 47.7296C18.3794 47.7032 18.0618 47.6775 17.7442 47.6518C15.8113 47.4954 13.8791 47.3315 11.9479 47.1551C10.664 47.0379 9.37919 46.9343 8.09357 46.8374C7.98827 46.8293 7.98827 46.8293 7.88084 46.8211C7.69336 46.8068 7.50587 46.7928 7.31838 46.7787C6.98548 46.7484 6.65722 46.7025 6.32649 46.6543C4.63776 46.5058 3.30491 47.0247 1.77812 47.6916C0.985905 48.0304 0.985905 48.0304 0.507747 47.9683C0.290717 47.8744 0.290717 47.8744 0.132344 47.6867C0.0411027 47.4297 -0.0132892 47.2052 0.0384935 46.9359C0.353044 46.5754 0.632133 46.3818 1.07562 46.2082C1.18499 46.165 1.29436 46.1218 1.40705 46.0772C1.58034 46.0116 1.58034 46.0116 1.75713 45.9446C1.81635 45.9219 1.87557 45.8993 1.93658 45.8759C3.10501 45.4295 4.19918 45.0336 5.46107 45.0421C5.53863 45.0425 5.61619 45.0428 5.69609 45.0431C6.53538 45.0521 7.36627 45.1238 8.2013 45.2033C8.36948 45.2187 8.53767 45.234 8.70587 45.2493C9.06193 45.2816 9.41794 45.3145 9.77393 45.3477C10.3346 45.3999 10.8954 45.4509 11.4562 45.5015C11.5504 45.5101 11.6447 45.5186 11.7418 45.5274C11.9329 45.5446 12.124 45.5619 12.3152 45.5791C12.6033 45.6052 12.8913 45.6313 13.1794 45.6574C14.8673 45.8105 16.5556 45.9597 18.2445 46.1014C18.5304 46.1255 18.8163 46.15 19.1021 46.1749C20.396 46.2878 21.6875 46.3928 22.9872 46.3992C23.0767 46.3999 23.1662 46.4006 23.2584 46.4013C24.6087 46.3911 25.7606 45.7876 26.9209 45.1469C27.0671 45.0669 27.0671 45.0669 27.2162 44.9853C27.9176 44.6002 28.6135 44.2058 29.307 43.8067C29.9726 43.4239 30.6427 43.0496 31.3142 42.6774C32.1403 42.2196 32.9657 41.7607 33.7896 41.299C33.8856 41.2452 33.9816 41.1913 34.0805 41.1359C34.2739 41.0275 34.4673 40.919 34.6607 40.8106C35.0506 40.592 35.4407 40.3736 35.8307 40.1552C36.0253 40.0462 36.2199 39.9372 36.4145 39.8281C36.9192 39.5453 37.4242 39.2632 37.93 38.9824C38.0342 38.9244 38.1384 38.8664 38.2458 38.8066C38.443 38.6969 38.6404 38.5873 38.8379 38.4781C39.3006 38.2203 39.7583 37.9556 40.2095 37.678C40.2921 37.6272 40.3747 37.5764 40.4597 37.5241C40.8741 37.2154 41.0786 36.8117 41.2389 36.3307C41.3264 35.6038 41.2585 35.0702 40.8426 34.4596C40.5904 34.1669 40.3752 34.0433 40.0189 33.8906C39.9337 33.85 39.8485 33.8093 39.7608 33.7674C38.6997 33.543 37.8798 34.0289 36.9863 34.53C36.8518 34.6036 36.7172 34.6772 36.5825 34.7505C36.2526 34.9306 35.9237 35.1126 35.5951 35.2952C35.2729 35.4739 34.9491 35.6498 34.6254 35.8259C34.466 35.9128 34.3067 35.9998 34.1475 36.0871C33.3307 36.5346 32.5078 36.9703 31.6849 37.4064C30.4242 38.0746 29.1673 38.7495 27.9121 39.4278C27.9272 39.4994 27.9423 39.571 27.9579 39.6448C28.1734 40.775 27.931 41.7226 27.3296 42.6789C26.8445 43.3172 26.0635 43.8313 25.2649 43.9682C25.0424 43.9814 24.8239 43.9815 24.601 43.9759C24.5143 43.9748 24.4276 43.9737 24.3383 43.9725C22.9581 43.939 21.5819 43.7801 20.2095 43.6391C19.9029 43.6079 19.5963 43.578 19.2896 43.5481C18.9921 43.519 18.6947 43.4892 18.3973 43.4592C18.2564 43.445 18.1154 43.431 17.9744 43.4172C17.7784 43.3979 17.5826 43.3777 17.3868 43.3573C17.2759 43.3461 17.165 43.3348 17.0507 43.3232C16.6762 43.2652 16.3316 43.1785 16.0048 42.9824C15.8631 42.7463 15.8561 42.5178 15.8435 42.2466C15.9322 41.9428 16.1064 41.848 16.3685 41.6802C16.6813 41.6559 16.6813 41.6559 17.0497 41.689C17.1181 41.6947 17.1866 41.7004 17.2571 41.7062C17.493 41.7265 17.7284 41.7502 17.964 41.7741C18.1454 41.7914 18.3268 41.8086 18.5083 41.8258C19.1054 41.8835 19.7019 41.9459 20.2985 42.0087C20.6052 42.0407 20.9119 42.0725 21.2186 42.1043C21.4075 42.124 21.5965 42.1437 21.7855 42.1636C23.8762 42.5291 23.8762 42.5291 25.8056 42.0153C26.0344 41.7668 26.1724 41.5169 26.3167 41.211C26.3477 41.149 26.3786 41.0871 26.4105 41.0233C26.492 40.4079 26.4112 39.9459 26.0806 39.4194C25.646 38.8602 25.0277 38.7186 24.3542 38.6272C24.22 38.6141 24.0857 38.6017 23.9514 38.5898C23.878 38.5827 23.8047 38.5757 23.7291 38.5685C23.5714 38.5534 23.4136 38.5385 23.2558 38.524C22.8296 38.4845 22.4036 38.4428 21.9776 38.4013C21.8479 38.3888 21.8479 38.3888 21.7157 38.3759C20.949 38.3011 20.1838 38.2154 19.4187 38.1256C17.7402 37.9296 16.0601 37.7499 14.3797 37.5719C13.3827 37.4662 12.3859 37.3599 11.39 37.2436C8.45652 36.903 6.2355 36.969 3.46258 38.0468C3.39174 38.0743 3.32091 38.1017 3.24793 38.13C2.88785 38.2697 2.52829 38.4105 2.16938 38.5532C2.03442 38.606 1.89945 38.6588 1.76447 38.7115C1.67216 38.7488 1.67216 38.7488 1.578 38.7869C1.1339 38.9589 0.740227 39.0591 0.290717 38.8647C0.0880572 38.6245 0.0531073 38.4307 0 38.1264C0.0610438 37.8089 0.256852 37.6419 0.507747 37.457C0.849236 37.2885 1.20318 37.1603 1.561 37.031C1.6639 36.9927 1.76681 36.9545 1.87283 36.9151C2.09041 36.8345 2.30822 36.7545 2.52625 36.6752C2.85693 36.5547 3.18683 36.4323 3.51665 36.3095C3.72893 36.2312 3.94126 36.1529 4.15363 36.0749C4.25104 36.0388 4.34845 36.0027 4.44881 35.9655C5.47285 35.5942 6.41702 35.3427 7.51135 35.3603C7.66297 35.3617 7.66297 35.3617 7.81765 35.3631C8.95404 35.3822 10.0778 35.497 11.2067 35.621C11.4415 35.6459 11.6762 35.6707 11.911 35.6954C12.6354 35.7722 13.3595 35.8513 14.0836 35.9311C14.3111 35.9561 14.5387 35.9812 14.7663 36.0062C16.2371 36.1677 17.7078 36.3302 19.1782 36.4951C19.2547 36.5037 19.3313 36.5123 19.4102 36.5211C19.7901 36.5637 20.1699 36.6065 20.5497 36.6496C21.2433 36.7281 21.9369 36.8042 22.6315 36.8722C22.9493 36.9033 23.267 36.9353 23.5847 36.9674C23.7343 36.9821 23.884 36.9964 24.0337 37.0102C25.9306 37.1843 25.9306 37.1843 26.6276 37.8148C26.8543 38.048 26.8543 38.048 27.0998 38.0007C27.3652 37.9214 27.5903 37.8186 27.8355 37.6897C27.976 37.6164 27.976 37.6164 28.1193 37.5415C28.2193 37.4885 28.3194 37.4354 28.4225 37.3807C28.5274 37.3256 28.6323 37.2704 28.7405 37.2136C29.4753 36.8262 30.2056 36.4308 30.9337 36.0307C31.7703 35.5718 32.6135 35.1254 33.4569 34.6788C34.2786 34.2436 35.0978 33.8043 35.9129 33.3568C39.0582 31.6316 39.0582 31.6316 40.8401 32.4829Z" fill="white"/>
<path d="M15.7417 18.0476C15.8139 18.0524 15.886 18.0571 15.9604 18.062C17.0642 18.1396 18.1655 18.2516 19.2665 18.3609C19.5912 18.3931 19.916 18.4246 20.2407 18.4558C20.5555 18.4862 20.8703 18.5174 21.185 18.5484C21.3576 18.565 21.3576 18.565 21.5337 18.5819C23.5622 18.7857 23.5622 18.7857 24.0281 19.333C24.2292 19.7823 24.1971 20.217 24.193 20.7037C24.1931 20.8638 24.1931 20.8638 24.1931 21.027C24.1929 21.2538 24.192 21.4805 24.1904 21.7072C24.1883 22.0464 24.1885 22.3856 24.1891 22.7248C24.1869 24.7189 24.03 26.6678 23.7072 28.6348C23.695 28.7106 23.6828 28.7865 23.6702 28.8646C23.5183 29.8042 23.3579 30.7417 23.1617 31.6733C23.1447 31.7561 23.1277 31.839 23.1101 31.9244C22.9788 32.5129 22.8142 33.1216 22.3347 33.5151C21.1567 33.8457 19.7393 33.5155 18.5454 33.386C18.1519 33.3439 17.7583 33.3022 17.3646 33.2607C17.2193 33.245 17.2193 33.245 17.071 33.2291C16.5649 33.1757 16.0592 33.1289 15.5516 33.0923C15.4495 33.0848 15.3474 33.0772 15.2422 33.0695C15.0479 33.0555 14.8537 33.0426 14.6593 33.0309C14.0995 32.9908 13.6433 32.9233 13.2117 32.5296C12.8394 32.0514 12.7889 31.714 12.7905 31.1252C12.7904 31.0557 12.7902 30.9862 12.7901 30.9146C12.7899 30.6884 12.7905 30.4623 12.7912 30.2362C12.7914 30.159 12.7916 30.0818 12.7918 30.0023C12.7995 27.1432 13.0373 24.3174 13.5538 21.5022C13.5745 21.3878 13.5952 21.2735 13.6165 21.1557C13.6827 20.7974 13.7525 20.44 13.8236 20.0827C13.8443 19.9719 13.8649 19.8611 13.8862 19.747C14.0348 19.0319 14.2275 18.5275 14.8427 18.1059C15.1459 17.9973 15.4262 18.0239 15.7417 18.0476Z" fill="#FF595A"/>
<path d="M36.6153 1.97495C37.3373 2.21686 38.0682 2.4272 38.7997 2.63802C39.0288 2.70542 39.2578 2.77343 39.4867 2.84149C39.5929 2.873 39.6992 2.90452 39.8086 2.93699C40.0234 3.00077 40.2383 3.06456 40.4531 3.12836C40.6585 3.18929 40.8639 3.25009 41.0694 3.31074C41.226 3.357 41.3824 3.40357 41.5387 3.45078C41.8441 3.54166 42.1367 3.6059 42.454 3.63519C42.5265 3.6422 42.5989 3.64922 42.6736 3.65645C42.727 3.66105 42.7803 3.66564 42.8353 3.67038C42.843 3.59876 42.8508 3.52714 42.8587 3.45335C42.9454 3.14267 43.0331 3.08433 43.3045 2.91957C43.5069 2.88382 43.5069 2.88382 43.7274 2.88314C43.8104 2.88225 43.8934 2.88137 43.9789 2.88045C44.0679 2.88102 44.1569 2.88159 44.2485 2.88218C44.3406 2.88191 44.4327 2.88164 44.5276 2.88136C44.7222 2.88117 44.9168 2.88169 45.1115 2.88287C45.4089 2.88437 45.7062 2.88288 46.0037 2.88108C46.1929 2.88127 46.3821 2.88163 46.5713 2.88218C46.6601 2.88161 46.7489 2.88104 46.8404 2.88045C47.6406 2.88898 47.6406 2.88898 47.9971 3.20113C48.107 3.57229 48.1289 3.7707 47.9736 4.1279C47.8094 4.32734 47.8094 4.32734 47.5278 4.42119C47.2851 4.42915 47.045 4.43207 46.8023 4.43035C46.7319 4.43022 46.6614 4.43009 46.5889 4.42995C46.3642 4.42943 46.1395 4.42825 45.9148 4.42705C45.7623 4.42658 45.6099 4.42615 45.4574 4.42577C45.0839 4.42474 44.7104 4.42312 44.3369 4.42119C44.3404 6.62144 44.346 8.82168 44.3541 11.0219C44.3579 12.0436 44.3609 13.0652 44.3623 14.0868C44.3635 14.9775 44.3661 15.8681 44.3702 16.7587C44.3723 17.2301 44.3738 17.7015 44.3737 18.173C44.3736 18.6171 44.3753 19.0611 44.3783 19.5052C44.3791 19.6679 44.3793 19.8305 44.3787 19.9931C44.3727 21.3237 44.3727 21.3237 44.9905 22.4725C45.0516 22.5219 45.1127 22.5714 45.1757 22.6224C45.2365 22.6736 45.2974 22.7247 45.3601 22.7775C45.8741 23.123 46.3755 23.1308 46.9757 23.1424C47.3907 23.1585 47.6713 23.2082 47.9971 23.4729C48.107 23.8441 48.1289 24.0425 47.9736 24.3997C47.8094 24.5991 47.8094 24.5991 47.5278 24.693C46.2285 24.7863 45.1685 24.6646 44.1246 23.8087C43.5111 23.2517 43.1991 22.6646 42.9291 21.8775C42.9291 21.8155 42.9291 21.7536 42.9291 21.6898C41.8547 21.6503 41.0179 21.9059 40.0261 22.2983C37.5028 23.2945 34.9935 23.5899 32.324 23.0975C32.1928 23.0741 32.0617 23.0506 31.9305 23.0273C31.5613 22.9612 31.1927 22.8928 30.8242 22.823C30.6752 22.795 30.526 22.7676 30.3767 22.7407C30.1644 22.7023 29.9527 22.6616 29.7409 22.6202C29.6771 22.6091 29.6134 22.5981 29.5477 22.5867C29.0944 22.4945 28.8588 22.3293 28.57 21.9713C28.5113 21.6898 28.5113 21.6898 28.57 21.4082C28.7635 21.1384 28.7635 21.1384 29.0392 20.9389C29.48 20.9107 29.8726 20.96 30.3022 21.0555C30.4144 21.0801 30.5266 21.1046 30.6422 21.1299C30.7578 21.156 30.8734 21.182 30.9925 21.2088C31.3336 21.2841 31.6748 21.3593 32.0161 21.4339C32.2005 21.4747 32.3847 21.5168 32.5683 21.5612C33.2528 21.7185 33.929 21.7221 34.6292 21.7191C34.6915 21.7189 34.7537 21.7187 34.8178 21.7186C36.5011 21.7108 38.0809 21.4324 39.6238 20.7417C39.7022 20.7075 39.7807 20.6733 39.8615 20.638C40.0104 20.5721 40.1583 20.5035 40.3044 20.4313C41.1842 20.0422 41.7551 20.1881 42.8353 20.1881C42.8353 15.2328 42.8353 10.2775 42.8353 5.172C42.4636 5.172 42.092 5.172 41.7091 5.172C41.3406 5.08254 41.3406 5.08254 41.0228 4.96083C40.9026 4.91683 40.7822 4.87322 40.6617 4.82995C40.6018 4.80822 40.5419 4.78649 40.4802 4.7641C40.1978 4.66721 39.9101 4.59468 39.6209 4.5209C39.0748 4.37982 38.5388 4.2186 38.002 4.04578C37.4729 3.87558 36.9447 3.71571 36.4065 3.57653C35.888 3.4422 35.3792 3.2893 34.8697 3.12487C34.0677 2.86632 33.2587 2.63844 32.4464 2.4146C31.7409 2.21898 31.0419 2.00801 30.346 1.78071C29.8029 1.60427 29.3263 1.50088 28.7552 1.49222C28.6427 1.49043 28.5302 1.48865 28.4143 1.48681C28.2928 1.4855 28.1713 1.48419 28.0461 1.48285C27.9834 1.48213 27.9207 1.48141 27.8561 1.48067C27.3804 1.4754 26.9047 1.47253 26.429 1.47075C26.3595 1.47047 26.2899 1.47019 26.2182 1.46989C24.2689 1.46332 22.4041 1.49784 20.5056 1.99949C20.1283 2.09818 19.748 2.17832 19.3664 2.25856C19.1052 2.31367 18.8446 2.37122 18.584 2.42942C18.0038 2.55764 17.4214 2.67454 16.8386 2.79053C16.7398 2.81038 16.641 2.83022 16.5392 2.85067C16.1194 2.93457 15.6999 3.01692 15.278 3.08895C14.4767 3.23058 13.9035 3.39564 13.3368 3.99299C12.9221 4.62272 12.855 5.07656 12.8595 5.81722C12.8592 5.91508 12.859 6.01294 12.8587 6.11376C12.8585 6.32011 12.859 6.52647 12.8602 6.73282C12.8617 7.04795 12.8602 7.36298 12.8584 7.67811C12.8586 7.87901 12.859 8.07991 12.8595 8.28081C12.8589 8.37467 12.8584 8.46854 12.8578 8.56525C12.8668 9.46395 13.24 9.97978 13.7709 10.674C13.8231 10.7444 13.8753 10.8148 13.9291 10.8874C14.2853 11.3551 14.6198 11.7473 15.212 11.8999C15.3704 11.9196 15.5287 11.9391 15.6871 11.9586C15.9655 12.0429 16.0434 12.1459 16.1817 12.3985C16.2144 12.6645 16.1738 12.8962 16.0878 13.1493C15.8256 13.4116 15.5779 13.4513 15.2197 13.4719C14.4215 13.4415 13.7629 13.0084 13.1785 12.4924C12.916 12.1993 12.683 11.8889 12.4511 11.5715C12.3602 11.4516 12.3602 11.4516 12.2674 11.3293C11.6141 10.4485 11.2851 9.69777 11.2923 8.59902C11.2924 8.52248 11.2925 8.44593 11.2927 8.36707C11.2932 8.12323 11.2944 7.87941 11.2956 7.63558C11.296 7.47 11.2965 7.30441 11.2969 7.13883C11.2979 6.73349 11.2995 6.32815 11.3014 5.9228C11.0783 5.92848 10.8557 5.93666 10.6328 5.94627C10.5703 5.9476 10.5079 5.94893 10.4436 5.9503C9.87018 5.97841 9.52118 6.18439 9.13811 6.60176C8.90067 6.93865 8.68103 7.28264 8.46832 7.63558C8.42604 7.70248 8.38376 7.76938 8.34019 7.83831C8.05624 8.31086 7.8698 8.7416 7.92282 9.30143C8.02623 9.64074 8.18054 9.94408 8.34514 10.2575C8.44071 10.4466 8.53627 10.6356 8.63183 10.8247C8.68382 10.9259 8.73581 11.027 8.78938 11.1313C8.9367 11.4234 9.07857 11.7171 9.21791 12.013C9.33779 12.2674 9.45945 12.5209 9.58131 12.7743C9.64031 12.8978 9.69866 13.0217 9.75632 13.1458C10.1187 13.9233 10.4739 14.4652 11.2076 14.9325C11.3491 15.0372 11.4899 15.1426 11.6299 15.2492C11.6909 15.2945 11.7519 15.3397 11.8147 15.3863C11.9584 15.4956 11.9584 15.4956 12.0522 15.5894C12.0992 15.9963 12.0938 16.186 11.8587 16.528C11.583 16.7157 11.583 16.7157 11.2728 16.7025C10.8973 16.6151 10.6715 16.4902 10.3571 16.2699C10.219 16.1748 10.219 16.1748 10.0781 16.0778C9.56203 15.6943 9.1992 15.4051 8.88698 14.8357C8.85611 14.7797 8.82525 14.7238 8.79344 14.6661C8.3898 13.9257 8.01327 13.1706 7.63764 12.4157C7.51098 12.1614 7.38351 11.9075 7.25596 11.6536C7.17441 11.4903 7.0929 11.3271 7.01144 11.1638C6.9737 11.0887 6.93597 11.0136 6.89709 10.9363C6.41701 9.96801 6.19174 8.9376 6.51102 7.87681C6.65091 7.58574 6.81001 7.321 6.98431 7.04901C7.06474 6.91553 7.14501 6.78196 7.22517 6.64831C7.79735 5.7118 8.33981 4.88211 9.41123 4.48791C10.0602 4.34101 10.7323 4.34178 11.3953 4.32734C11.4448 4.21846 11.4448 4.21846 11.4954 4.10737C11.9895 3.06501 12.5107 2.40457 13.5539 1.88721C13.9068 1.76682 14.2631 1.69007 14.6284 1.61666C14.8461 1.5699 15.0638 1.52306 15.2814 1.47616C15.3969 1.45181 15.5124 1.42746 15.6314 1.40237C16.0045 1.32184 16.3759 1.23583 16.7472 1.14786C24.0002 -0.563277 29.5294 -0.420127 36.6153 1.97495Z" fill="white"/>
<path d="M19.2192 20.9861C19.4563 21.0107 19.6935 21.033 19.9308 21.0553C20.0828 21.0711 20.2348 21.0869 20.3868 21.103C20.4571 21.1092 20.5274 21.1155 20.5999 21.122C21.0454 21.1724 21.3145 21.2697 21.6252 21.5972C21.6839 21.9198 21.6839 21.9198 21.6252 22.2541C21.4309 22.5096 21.4309 22.5096 21.156 22.7234C20.8958 22.752 20.7071 22.7517 20.4521 22.7234C20.3815 22.7173 20.311 22.7112 20.2383 22.705C20.076 22.6905 19.9138 22.6747 19.7517 22.658C19.4237 22.6252 19.0954 22.5987 18.7668 22.572C18.5211 22.5503 18.2753 22.5284 18.0296 22.5063C17.9104 22.4965 17.7912 22.4866 17.6685 22.4765C17.5557 22.4654 17.443 22.4543 17.3268 22.4429C17.226 22.4337 17.1252 22.4244 17.0213 22.4149C16.6884 22.3342 16.5185 22.2118 16.2757 21.9726C16.1702 21.6499 16.1702 21.6499 16.1819 21.3156C16.7113 20.427 18.331 20.8923 19.2192 20.9861Z" fill="white"/>
<path d="M19.1546 24.9167C19.2689 24.9285 19.3832 24.9403 19.5009 24.9525C19.6096 24.9646 19.7183 24.9768 19.8303 24.9893C19.9273 25.0001 20.0243 25.0109 20.1242 25.022C20.4895 25.0836 20.8325 25.1672 21.1431 25.3742C21.3074 25.6298 21.2903 25.8044 21.2487 26.1016C21.0941 26.3521 21.0941 26.3521 20.8733 26.5708C20.6106 26.6222 20.6106 26.6222 20.3021 26.61C20.1854 26.6057 20.0687 26.6014 19.9484 26.597C19.8187 26.5888 19.689 26.58 19.5594 26.5708C19.4914 26.5662 19.4235 26.5615 19.3535 26.5567C18.9138 26.5248 18.4756 26.4834 18.0374 26.4362C17.8086 26.4121 17.5796 26.3911 17.3506 26.3701C17.2038 26.3547 17.057 26.3391 16.9103 26.3234C16.8424 26.3176 16.7746 26.3118 16.7047 26.3058C16.3611 26.2653 16.201 26.2152 15.9504 25.9708C15.7713 25.6688 15.7465 25.5084 15.8053 25.1631C16.412 24.3423 18.2685 24.825 19.1546 24.9167Z" fill="white"/>
<path d="M18.2055 15.1838C18.2664 15.1847 18.3274 15.1855 18.3902 15.1864C19.1601 15.2052 19.9238 15.3011 20.6866 15.4009C20.8059 15.415 20.9252 15.4292 21.0481 15.4438C21.3436 15.4947 21.3436 15.4947 21.6134 15.6589C21.8399 16.0054 21.8485 16.1858 21.8722 16.5931C21.8826 16.7588 21.8826 16.7588 21.8932 16.9279C21.8976 17.0124 21.9021 17.0969 21.9067 17.184C21.3341 17.1324 20.7614 17.0806 20.1888 17.0288C19.9943 17.0112 19.7998 16.9936 19.6053 16.9761C19.3245 16.9508 19.0438 16.9254 18.7631 16.8999C18.6771 16.8922 18.5911 16.8845 18.5026 16.8765C17.9784 16.8289 17.4555 16.7745 16.9326 16.7148C16.986 16.1805 17.1041 15.7776 17.4198 15.3396C17.6774 15.1477 17.8878 15.1794 18.2055 15.1838Z" fill="#FF595A"/>
<path d="M21.0032 29.2689C21.3274 29.5468 21.5021 29.7355 21.5608 30.1682C21.5907 30.8109 21.4287 31.1343 21.0091 31.621C20.619 31.9433 20.0346 31.8632 19.5603 31.8263C19.1712 31.6856 18.9755 31.4529 18.7842 31.0843C18.6524 30.7066 18.6509 30.3415 18.7156 29.9493C18.9045 29.5784 19.1073 29.3179 19.4664 29.1047C20.0021 28.9351 20.5107 29.0135 21.0032 29.2689Z" fill="white"/>
</svg>
