<svg width="334" height="62" viewBox="0 0 334 62" fill="none" xmlns="http://www.w3.org/2000/svg">
<rect x="0.5" y="1.15137" width="161" height="59.2291" rx="8.5" fill="white"/>
<rect x="0.5" y="1.15137" width="161" height="59.2291" rx="8.5" stroke="#B5B2B2"/>
<rect x="0.5" y="1.15137" width="161" height="59.2291" rx="8.5" stroke="white" stroke-opacity="0.7"/>
<path d="M37.6754 31.6482C37.707 29.1881 39.0231 26.8602 41.1109 25.5716C39.7938 23.6832 37.5877 22.4859 35.2924 22.4138C32.8444 22.1559 30.4711 23.8844 29.2237 23.8844C27.9521 23.8844 26.0314 22.4394 23.9631 22.4822C21.2672 22.5696 18.754 24.1083 17.4424 26.4744C14.6229 31.3749 16.726 38.5769 19.4268 42.5381C20.778 44.4778 22.3573 46.6444 24.4236 46.5676C26.4457 46.4834 27.2009 45.2731 29.6418 45.2731C32.06 45.2731 32.7685 46.5676 34.8768 46.5187C37.0466 46.4834 38.4137 44.5704 39.7176 42.6124C40.6884 41.2303 41.4355 39.7028 41.9311 38.0865C39.3812 37.0038 37.6784 34.4276 37.6754 31.6482Z" fill="#161C24"/>
<path d="M33.6931 19.8088C34.8762 18.383 35.459 16.5504 35.3179 14.7002C33.5104 14.8908 31.8408 15.758 30.6418 17.1291C29.4693 18.4687 28.8591 20.269 28.9745 22.0485C30.7826 22.0672 32.5601 21.2235 33.6931 19.8088Z" fill="#161C24"/>
<path d="M109.799 29.1078V32.089H107.938V34.044H109.799V40.6869C109.799 42.9552 110.822 43.8625 113.393 43.8625C113.845 43.8625 114.275 43.8085 114.652 43.7437V41.8102C114.329 41.8426 114.125 41.8642 113.77 41.8642C112.618 41.8642 112.113 41.3241 112.113 40.0928V34.044H114.652V32.089H112.113V29.1078H109.799Z" fill="#090909"/>
<path d="M121.203 44.0245C124.624 44.0245 126.722 41.7238 126.722 37.9109C126.722 34.1196 124.613 31.8081 121.203 31.8081C117.781 31.8081 115.672 34.1196 115.672 37.9109C115.672 41.7238 117.77 44.0245 121.203 44.0245ZM121.203 41.9614C119.191 41.9614 118.061 40.4816 118.061 37.9109C118.061 35.3618 119.191 33.8712 121.203 33.8712C123.204 33.8712 124.344 35.3618 124.344 37.9109C124.344 40.4708 123.204 41.9614 121.203 41.9614Z" fill="#090909"/>
<path d="M128.517 43.7977H130.831V36.8524C130.831 35.1998 132.068 34.0872 133.822 34.0872C134.231 34.0872 134.919 34.1628 135.113 34.2276V31.9377C134.865 31.8729 134.424 31.8405 134.08 31.8405C132.552 31.8405 131.25 32.683 130.917 33.8388H130.745V32.035H128.517V43.7977Z" fill="#090909"/>
<path d="M140.857 33.7848C142.567 33.7848 143.686 34.9837 143.74 36.8308H137.823C137.952 34.9945 139.146 33.7848 140.857 33.7848ZM143.729 40.6221C143.299 41.5402 142.341 42.0478 140.943 42.0478C139.092 42.0478 137.898 40.7409 137.823 38.6778V38.5482H146.097V37.7381C146.097 34.044 144.128 31.8081 140.867 31.8081C137.564 31.8081 135.466 34.1952 135.466 37.9541C135.466 41.713 137.521 44.0245 140.878 44.0245C143.557 44.0245 145.429 42.7283 145.957 40.6221H143.729Z" fill="#090909"/>
<path d="M94.6294 39.4539C94.8078 42.3423 97.2055 44.1895 100.774 44.1895C104.588 44.1895 106.974 42.2527 106.974 39.1628C106.974 36.7334 105.614 35.39 102.313 34.6175L100.54 34.1809C98.4433 33.6883 97.5958 33.0278 97.5958 31.8746C97.5958 30.4193 98.9117 29.4677 100.886 29.4677C102.759 29.4677 104.053 30.3969 104.287 31.8858H106.718C106.573 29.1654 104.186 27.251 100.919 27.251C97.4062 27.251 95.0643 29.1654 95.0643 32.0426C95.0643 34.416 96.3914 35.8266 99.302 36.5095L101.376 37.0133C103.506 37.5171 104.443 38.256 104.443 39.4875C104.443 40.9205 102.971 41.9616 100.964 41.9616C98.8113 41.9616 97.317 40.9876 97.1051 39.4539H94.6294Z" fill="#090909"/>
<path d="M70.6663 31.8405C69.0739 31.8405 67.6967 32.6398 66.9866 33.9792H66.8144V32.035H64.5872V47.7078H66.9005V42.0154H67.0834C67.6967 43.2576 69.0201 43.9921 70.6878 43.9921C73.6466 43.9921 75.5295 41.6482 75.5295 37.9109C75.5295 34.1736 73.6466 31.8405 70.6663 31.8405ZM70.01 41.9074C68.0733 41.9074 66.8575 40.3736 66.8575 37.9217C66.8575 35.459 68.0733 33.9252 70.0207 33.9252C71.9789 33.9252 73.1517 35.4266 73.1517 37.9109C73.1517 40.406 71.9789 41.9074 70.01 41.9074Z" fill="#090909"/>
<path d="M83.624 31.8405C82.0317 31.8405 80.6545 32.6398 79.9443 33.9792H79.7722V32.035H77.545V47.7078H79.8583V42.0154H80.0412C80.6545 43.2576 81.9779 43.9921 83.6456 43.9921C86.6044 43.9921 88.4873 41.6482 88.4873 37.9109C88.4873 34.1736 86.6044 31.8405 83.624 31.8405ZM82.9677 41.9074C81.031 41.9074 79.8152 40.3736 79.8152 37.9217C79.8152 35.459 81.031 33.9252 82.9785 33.9252C84.9367 33.9252 86.1095 35.4266 86.1095 37.9109C86.1095 40.406 84.9367 41.9074 82.9677 41.9074Z" fill="#090909"/>
<path d="M60.4368 43.7977H63.091L57.2809 27.6428H54.5933L48.7832 43.7977H51.3481L52.8313 39.5099H58.9648L60.4368 43.7977ZM55.8088 30.576H55.9984L58.3291 37.4051H53.467L55.8088 30.576Z" fill="#090909"/>
<path d="M48.7168 16.2488V22.6344H51.0134C52.9088 22.6344 54.0064 21.4617 54.0064 19.4216C54.0064 17.4126 52.9 16.2488 51.0134 16.2488H48.7168ZM49.7042 17.1515H50.9032C52.2212 17.1515 53.0014 17.9923 53.0014 19.4349C53.0014 20.8997 52.2344 21.7316 50.9032 21.7316H49.7042V17.1515Z" fill="#090909"/>
<path d="M57.368 22.7273C58.7697 22.7273 59.6293 21.7847 59.6293 20.2226C59.6293 18.6694 58.7653 17.7224 57.368 17.7224C55.9662 17.7224 55.1023 18.6694 55.1023 20.2226C55.1023 21.7847 55.9618 22.7273 57.368 22.7273ZM57.368 21.8821C56.5437 21.8821 56.0808 21.2758 56.0808 20.2226C56.0808 19.1783 56.5437 18.5676 57.368 18.5676C58.1879 18.5676 58.6551 19.1783 58.6551 20.2226C58.6551 21.2714 58.1879 21.8821 57.368 21.8821Z" fill="#090909"/>
<path d="M66.9492 17.8153H66.0015L65.1464 21.4927H65.0714L64.084 17.8153H63.176L62.1886 21.4927H62.1181L61.2585 17.8153H60.2975L61.6199 22.6344H62.5941L63.5815 19.0853H63.6565L64.6483 22.6344H65.6312L66.9492 17.8153Z" fill="#090909"/>
<path d="M68.0407 22.6344H68.9884V19.8155C68.9884 19.0632 69.4336 18.5941 70.1345 18.5941C70.8354 18.5941 71.1704 18.9791 71.1704 19.7535V22.6344H72.1181V19.5146C72.1181 18.3684 71.5274 17.7224 70.4563 17.7224C69.7333 17.7224 69.2573 18.0454 69.0237 18.5809H68.9531V17.8153H68.0407V22.6344Z" fill="#090909"/>
<path d="M73.6106 22.6344H74.5584V15.9346H73.6106V22.6344Z" fill="#090909"/>
<path d="M78.1227 22.7273C79.5244 22.7273 80.384 21.7847 80.384 20.2226C80.384 18.6694 79.52 17.7224 78.1227 17.7224C76.7209 17.7224 75.857 18.6694 75.857 20.2226C75.857 21.7847 76.7165 22.7273 78.1227 22.7273ZM78.1227 21.8821C77.2984 21.8821 76.8355 21.2758 76.8355 20.2226C76.8355 19.1783 77.2984 18.5676 78.1227 18.5676C78.9426 18.5676 79.4098 19.1783 79.4098 20.2226C79.4098 21.2714 78.9426 21.8821 78.1227 21.8821Z" fill="#090909"/>
<path d="M83.2078 21.913C82.692 21.913 82.3174 21.6608 82.3174 21.2271C82.3174 20.8023 82.6171 20.5766 83.2783 20.5324L84.4508 20.4571V20.8598C84.4508 21.4573 83.9219 21.913 83.2078 21.913ZM82.9653 22.714C83.5957 22.714 84.1202 22.4397 84.4068 21.9573H84.4817V22.6344H85.3942V19.342C85.3942 18.3242 84.7153 17.7224 83.5119 17.7224C82.4231 17.7224 81.6473 18.2534 81.5504 19.0809H82.4672C82.573 18.7402 82.9389 18.5455 83.4678 18.5455C84.1158 18.5455 84.4508 18.8331 84.4508 19.342V19.758L83.1505 19.8332C82.0088 19.904 81.3652 20.404 81.3652 21.2714C81.3652 22.152 82.0397 22.714 82.9653 22.714Z" fill="#090909"/>
<path d="M88.6102 22.714C89.2715 22.714 89.8313 22.3998 90.1178 21.8732H90.1927V22.6344H91.1008V15.9346H90.1531V18.5809H90.0825C89.8225 18.0498 89.267 17.7356 88.6102 17.7356C87.398 17.7356 86.6178 18.7003 86.6178 20.2226C86.6178 21.7493 87.3892 22.714 88.6102 22.714ZM88.8791 18.5897C89.6726 18.5897 90.1707 19.2225 90.1707 20.227C90.1707 21.236 89.677 21.8599 88.8791 21.8599C88.0769 21.8599 87.5964 21.2448 87.5964 20.2226C87.5964 19.2092 88.0813 18.5897 88.8791 18.5897Z" fill="#090909"/>
<path d="M97.2464 22.7273C98.6482 22.7273 99.5078 21.7847 99.5078 20.2226C99.5078 18.6694 98.6438 17.7224 97.2464 17.7224C95.8447 17.7224 94.9807 18.6694 94.9807 20.2226C94.9807 21.7847 95.8403 22.7273 97.2464 22.7273ZM97.2464 21.8821C96.4221 21.8821 95.9593 21.2758 95.9593 20.2226C95.9593 19.1783 96.4221 18.5676 97.2464 18.5676C98.0663 18.5676 98.5336 19.1783 98.5336 20.2226C98.5336 21.2714 98.0663 21.8821 97.2464 21.8821Z" fill="#090909"/>
<path d="M100.762 22.6344H101.71V19.8155C101.71 19.0632 102.155 18.5941 102.856 18.5941C103.557 18.5941 103.892 18.9791 103.892 19.7535V22.6344H104.84V19.5146C104.84 18.3684 104.249 17.7224 103.178 17.7224C102.455 17.7224 101.979 18.0454 101.745 18.5809H101.675V17.8153H100.762V22.6344Z" fill="#090909"/>
<path d="M109.205 16.6161V17.8374H108.442V18.6384H109.205V21.3599C109.205 22.2892 109.623 22.6609 110.677 22.6609C110.862 22.6609 111.038 22.6388 111.193 22.6122V21.8201C111.06 21.8334 110.977 21.8422 110.831 21.8422C110.359 21.8422 110.152 21.621 110.152 21.1165V18.6384H111.193V17.8374H110.152V16.6161H109.205Z" fill="#090909"/>
<path d="M112.465 22.6344H113.412V19.8199C113.412 19.0898 113.844 18.5986 114.62 18.5986C115.29 18.5986 115.647 18.988 115.647 19.758V22.6344H116.595V19.5234C116.595 18.3773 115.965 17.7268 114.942 17.7268C114.219 17.7268 113.712 18.0498 113.479 18.5897H113.404V15.9346H112.465V22.6344Z" fill="#090909"/>
<path d="M120.014 18.5322C120.715 18.5322 121.173 19.0234 121.195 19.7801H118.771C118.824 19.0278 119.313 18.5322 120.014 18.5322ZM121.191 21.3333C121.014 21.7095 120.622 21.9175 120.049 21.9175C119.291 21.9175 118.802 21.382 118.771 20.5368V20.4837H122.161V20.1518C122.161 18.6384 121.354 17.7224 120.018 17.7224C118.665 17.7224 117.805 18.7003 117.805 20.2403C117.805 21.7803 118.647 22.7273 120.023 22.7273C121.12 22.7273 121.887 22.1963 122.103 21.3333H121.191Z" fill="#090909"/>
<rect x="172.5" y="0.5" width="161" height="60.5322" rx="8.5" fill="white"/>
<rect x="172.5" y="0.5" width="161" height="60.5322" rx="8.5" stroke="#B5B2B2"/>
<rect x="172.5" y="0.5" width="161" height="60.5322" rx="8.5" stroke="white" stroke-opacity="0.7"/>
<g filter="url(#filter0_ii_0_201)">
<path d="M203.623 30.79V31.0371L189.054 45.6621C188.739 45.3248 188.543 44.793 188.543 44.0801V17.748C188.543 17.0354 188.74 16.5023 189.055 16.165L203.623 30.79Z" fill="#161C24" stroke="white" stroke-width="0.25"/>
<path d="M208.694 25.9941L214.498 29.3037C215.303 29.7633 215.678 30.3518 215.678 30.9141C215.678 31.4413 215.349 31.9915 214.644 32.4375L214.498 32.5254L208.694 35.835L208.666 35.8506L203.873 31.0352V30.791L208.666 25.9775L208.694 25.9941Z" fill="#161C24" stroke="white" stroke-width="0.25"/>
<g filter="url(#filter1_i_0_201)">
<path d="M208.757 35.9433L203.747 30.9141L188.967 45.753C189.512 46.3341 190.415 46.4055 191.431 45.8269L208.757 35.9433Z" fill="#161C24"/>
</g>
<path d="M208.553 35.915L191.369 45.7178C190.437 46.2482 189.644 46.1984 189.145 45.751L203.747 31.0908L208.553 35.915Z" stroke="white" stroke-width="0.25"/>
<path d="M189.145 16.0771C189.644 15.6301 190.438 15.5803 191.369 16.1113L208.553 25.9121L203.747 30.7373L189.145 16.0771Z" fill="#161C24" stroke="white" stroke-width="0.25"/>
</g>
<path d="M253.023 32.3544C250.389 32.3544 248.241 34.3574 248.241 37.116C248.241 39.8579 250.389 41.8776 253.023 41.8776C255.659 41.8776 257.806 39.8579 257.806 37.116C257.805 34.3574 255.658 32.3544 253.023 32.3544ZM253.023 40.0034C251.579 40.0034 250.335 38.8133 250.335 37.1171C250.335 35.403 251.58 34.2308 253.023 34.2308C254.467 34.2308 255.712 35.403 255.712 37.1171C255.712 38.8122 254.467 40.0034 253.023 40.0034ZM242.59 32.3544C239.956 32.3544 237.808 34.3574 237.808 37.116C237.808 39.8579 239.956 41.8776 242.59 41.8776C245.226 41.8776 247.373 39.8579 247.373 37.116C247.373 34.3574 245.226 32.3544 242.59 32.3544ZM242.59 40.0034C241.146 40.0034 239.902 38.8133 239.902 37.1171C239.902 35.403 241.147 34.2308 242.59 34.2308C244.034 34.2308 245.278 35.403 245.278 37.1171C245.28 38.8122 244.034 40.0034 242.59 40.0034ZM230.181 33.8166V35.8363H235.018C234.873 36.9727 234.495 37.8023 233.917 38.3789C233.213 39.082 232.112 39.8579 230.181 39.8579C227.204 39.8579 224.876 37.4586 224.876 34.4827C224.876 31.5069 227.204 29.1076 230.181 29.1076C231.787 29.1076 232.96 29.7391 233.826 30.5508L235.252 29.1255C234.042 27.9712 232.437 27.0879 230.181 27.0879C226.103 27.0879 222.674 30.4063 222.674 34.4827C222.674 38.5592 226.103 41.8776 230.181 41.8776C232.382 41.8776 234.043 41.1555 235.342 39.803C236.677 38.4685 237.092 36.592 237.092 35.0772C237.092 34.6093 237.057 34.176 236.984 33.8155L230.181 33.8166ZM280.933 35.3851C280.536 34.3215 279.327 32.3544 276.854 32.3544C274.4 32.3544 272.36 34.2846 272.36 37.116C272.36 39.7851 274.382 41.8776 277.089 41.8776C279.272 41.8776 280.535 40.5431 281.059 39.7672L279.435 38.6845C278.894 39.4783 278.154 40.0012 277.089 40.0012C276.024 40.0012 275.266 39.5142 274.779 38.558L281.149 35.9248L280.933 35.3851ZM274.436 36.9727C274.382 35.1321 275.862 34.195 276.927 34.195C277.757 34.195 278.461 34.6104 278.696 35.2049L274.436 36.9727ZM269.258 41.5899H271.35V27.5939H269.258V41.5899ZM265.828 33.4191H265.756C265.287 32.8593 264.384 32.3544 263.248 32.3544C260.865 32.3544 258.682 34.4469 258.682 37.135C258.682 39.8041 260.865 41.8787 263.248 41.8787C264.385 41.8787 265.287 41.3738 265.756 40.7972H265.828V41.4824C265.828 43.3039 264.853 44.278 263.284 44.278C262.002 44.278 261.208 43.3588 260.883 42.5829L259.061 43.3409C259.584 44.6027 260.973 46.1544 263.284 46.1544C265.738 46.1544 267.814 44.7113 267.814 41.1935V32.6444H265.829L265.828 33.4191ZM263.428 40.0034C261.984 40.0034 260.776 38.7943 260.776 37.135C260.776 35.4568 261.984 34.2308 263.428 34.2308C264.853 34.2308 265.972 35.4568 265.972 37.135C265.972 38.7943 264.853 40.0034 263.428 40.0034ZM290.739 27.5939H285.73V41.5899H287.82V36.2875H290.738C293.054 36.2875 295.332 34.6115 295.332 31.9413C295.332 29.2711 293.055 27.5939 290.739 27.5939ZM290.792 34.3394H287.82V29.542H290.792C292.355 29.542 293.242 30.8351 293.242 31.9413C293.242 33.025 292.355 34.3394 290.792 34.3394ZM303.71 32.3298C302.197 32.3298 300.63 32.9959 299.981 34.4727L301.836 35.2463C302.233 34.4727 302.972 34.2196 303.746 34.2196C304.827 34.2196 305.926 34.8679 305.944 36.0199V36.1644C305.565 35.9483 304.754 35.6247 303.764 35.6247C301.764 35.6247 299.728 36.723 299.728 38.7752C299.728 40.6483 301.368 41.8541 303.205 41.8541C304.61 41.8541 305.385 41.2238 305.871 40.4848H305.943V41.5652H307.961V36.1991C307.962 33.7158 306.105 32.3298 303.71 32.3298ZM303.457 40.0001C302.774 40.0001 301.818 39.6575 301.818 38.8111C301.818 37.7307 303.008 37.3164 304.035 37.3164C304.952 37.3164 305.386 37.5146 305.944 37.7844C305.781 39.082 304.664 40.0001 303.457 40.0001ZM315.311 32.6354L312.915 38.7036H312.844L310.357 32.6354H308.106L311.835 41.1163L309.708 45.8342H311.888L317.636 32.6354H315.311ZM296.486 41.5899H298.575V27.5939H296.486V41.5899Z" fill="#090909"/>
<path d="M229.92 19.3159C229.92 20.2371 229.642 20.9704 229.086 21.5178C228.455 22.1686 227.631 22.494 226.619 22.494C225.65 22.494 224.825 22.1642 224.148 21.5046C223.47 20.8439 223.131 20.0261 223.131 19.0499C223.131 18.0726 223.47 17.2547 224.148 16.5952C224.825 15.9345 225.65 15.6047 226.619 15.6047C227.1 15.6047 227.56 15.697 227.997 15.8806C228.435 16.0653 228.785 16.3104 229.047 16.6171L228.457 17.1976C228.013 16.6754 227.4 16.4149 226.618 16.4149C225.911 16.4149 225.3 16.6589 224.784 17.147C224.268 17.6351 224.011 18.2694 224.011 19.0488C224.011 19.8282 224.268 20.4625 224.784 20.9506C225.3 21.4387 225.911 21.6827 226.618 21.6827C227.368 21.6827 227.994 21.4376 228.494 20.9462C228.818 20.6263 229.006 20.1811 229.057 19.6105H226.618V18.8179H229.871C229.905 18.9905 229.92 19.1565 229.92 19.3159Z" fill="#090909"/>
<path d="M235.079 16.5611H232.021V18.652H234.779V19.4446H232.021V21.5355H235.079V22.3468H231.159V15.751H235.079V16.5611Z" fill="#090909"/>
<path d="M238.717 22.3468H237.854V16.5611H235.979V15.751H240.593V16.5611H238.717V22.3468Z" fill="#090909"/>
<path d="M243.931 22.3468V15.751H244.794V22.3468H243.931Z" fill="#090909"/>
<path d="M248.621 22.3468H247.758V16.5611H245.882V15.751H250.496V16.5611H248.621V22.3468Z" fill="#090909"/>
<path d="M259.231 21.4948C258.571 22.161 257.75 22.4941 256.769 22.4941C255.787 22.4941 254.967 22.161 254.308 21.4948C253.648 20.8286 253.319 20.0129 253.319 19.0488C253.319 18.0848 253.648 17.2691 254.308 16.6029C254.967 15.9367 255.787 15.6025 256.769 15.6025C257.745 15.6025 258.564 15.9378 259.227 16.6073C259.889 17.2768 260.22 18.0903 260.22 19.0488C260.22 20.0129 259.89 20.8286 259.231 21.4948ZM254.945 20.9418C255.442 21.4365 256.049 21.6828 256.769 21.6828C257.489 21.6828 258.097 21.4354 258.593 20.9418C259.09 20.4472 259.34 19.8162 259.34 19.0488C259.34 18.2815 259.09 17.6505 258.593 17.1558C258.097 16.6612 257.489 16.4149 256.769 16.4149C256.049 16.4149 255.442 16.6623 254.945 17.1558C254.449 17.6505 254.199 18.2815 254.199 19.0488C254.199 19.8162 254.449 20.4472 254.945 20.9418Z" fill="#090909"/>
<path d="M261.431 22.3468V15.751H262.481L265.745 20.8814H265.781L265.745 19.6106V15.751H266.607V22.3468H265.706L262.292 16.9668H262.255L262.292 18.2376V22.3468H261.431Z" fill="#090909"/>
<path d="M229.92 19.3159C229.92 20.2371 229.642 20.9704 229.086 21.5178C228.455 22.1686 227.631 22.494 226.619 22.494C225.65 22.494 224.825 22.1642 224.148 21.5046C223.47 20.8439 223.131 20.0261 223.131 19.0499C223.131 18.0726 223.47 17.2547 224.148 16.5952C224.825 15.9345 225.65 15.6047 226.619 15.6047C227.1 15.6047 227.56 15.697 227.997 15.8806C228.435 16.0653 228.785 16.3104 229.047 16.6171L228.457 17.1976C228.013 16.6754 227.4 16.4149 226.618 16.4149C225.911 16.4149 225.3 16.6589 224.784 17.147C224.268 17.6351 224.011 18.2694 224.011 19.0488C224.011 19.8282 224.268 20.4625 224.784 20.9506C225.3 21.4387 225.911 21.6827 226.618 21.6827C227.368 21.6827 227.994 21.4376 228.494 20.9462C228.818 20.6263 229.006 20.1811 229.057 19.6105H226.618V18.8179H229.871C229.905 18.9905 229.92 19.1565 229.92 19.3159Z" stroke="#090909" stroke-width="0.204511" stroke-miterlimit="10"/>
<path d="M235.079 16.5611H232.021V18.652H234.779V19.4446H232.021V21.5355H235.079V22.3468H231.159V15.751H235.079V16.5611Z" stroke="#090909" stroke-width="0.204511" stroke-miterlimit="10"/>
<path d="M238.717 22.3468H237.854V16.5611H235.979V15.751H240.593V16.5611H238.717V22.3468Z" stroke="#090909" stroke-width="0.204511" stroke-miterlimit="10"/>
<path d="M243.931 22.3468V15.751H244.794V22.3468H243.931Z" stroke="#090909" stroke-width="0.204511" stroke-miterlimit="10"/>
<path d="M248.621 22.3468H247.758V16.5611H245.882V15.751H250.496V16.5611H248.621V22.3468Z" stroke="#090909" stroke-width="0.204511" stroke-miterlimit="10"/>
<path d="M259.231 21.4948C258.571 22.161 257.75 22.4941 256.769 22.4941C255.787 22.4941 254.967 22.161 254.308 21.4948C253.648 20.8286 253.319 20.0129 253.319 19.0488C253.319 18.0848 253.648 17.2691 254.308 16.6029C254.967 15.9367 255.787 15.6025 256.769 15.6025C257.745 15.6025 258.564 15.9378 259.227 16.6073C259.889 17.2768 260.22 18.0903 260.22 19.0488C260.22 20.0129 259.89 20.8286 259.231 21.4948ZM254.945 20.9418C255.442 21.4365 256.049 21.6828 256.769 21.6828C257.489 21.6828 258.097 21.4354 258.593 20.9418C259.09 20.4472 259.34 19.8162 259.34 19.0488C259.34 18.2815 259.09 17.6505 258.593 17.1558C258.097 16.6612 257.489 16.4149 256.769 16.4149C256.049 16.4149 255.442 16.6623 254.945 17.1558C254.449 17.6505 254.199 18.2815 254.199 19.0488C254.199 19.8162 254.449 20.4472 254.945 20.9418Z" stroke="#090909" stroke-width="0.204511" stroke-miterlimit="10"/>
<path d="M261.431 22.3468V15.751H262.481L265.745 20.8814H265.781L265.745 19.6106V15.751H266.607V22.3468H265.706L262.292 16.9668H262.255L262.292 18.2376V22.3468H261.431Z" stroke="#090909" stroke-width="0.204511" stroke-miterlimit="10"/>
<defs>
<filter id="filter0_ii_0_201" x="188.418" y="15.6025" width="27.3843" height="30.624" filterUnits="userSpaceOnUse" color-interpolation-filters="sRGB">
<feFlood flood-opacity="0" result="BackgroundImageFix"/>
<feBlend mode="normal" in="SourceGraphic" in2="BackgroundImageFix" result="shape"/>
<feColorMatrix in="SourceAlpha" type="matrix" values="0 0 0 0 0 0 0 0 0 0 0 0 0 0 0 0 0 0 127 0" result="hardAlpha"/>
<feOffset dy="-0.795"/>
<feComposite in2="hardAlpha" operator="arithmetic" k2="-1" k3="1"/>
<feColorMatrix type="matrix" values="0 0 0 0 0 0 0 0 0 0 0 0 0 0 0 0 0 0 0.12 0"/>
<feBlend mode="normal" in2="shape" result="effect1_innerShadow_0_201"/>
<feColorMatrix in="SourceAlpha" type="matrix" values="0 0 0 0 0 0 0 0 0 0 0 0 0 0 0 0 0 0 127 0" result="hardAlpha"/>
<feOffset dy="0.795"/>
<feComposite in2="hardAlpha" operator="arithmetic" k2="-1" k3="1"/>
<feColorMatrix type="matrix" values="0 0 0 0 1 0 0 0 0 1 0 0 0 0 1 0 0 0 0.25 0"/>
<feBlend mode="normal" in2="effect1_innerShadow_0_201" result="effect2_innerShadow_0_201"/>
</filter>
<filter id="filter1_i_0_201" x="188.967" y="30.9141" width="19.79" height="15.3125" filterUnits="userSpaceOnUse" color-interpolation-filters="sRGB">
<feFlood flood-opacity="0" result="BackgroundImageFix"/>
<feBlend mode="normal" in="SourceGraphic" in2="BackgroundImageFix" result="shape"/>
<feColorMatrix in="SourceAlpha" type="matrix" values="0 0 0 0 0 0 0 0 0 0 0 0 0 0 0 0 0 0 127 0" result="hardAlpha"/>
<feOffset dy="-0.795"/>
<feComposite in2="hardAlpha" operator="arithmetic" k2="-1" k3="1"/>
<feColorMatrix type="matrix" values="0 0 0 0 0 0 0 0 0 0 0 0 0 0 0 0 0 0 0.08 0"/>
<feBlend mode="normal" in2="shape" result="effect1_innerShadow_0_201"/>
</filter>
</defs>
</svg>
