<svg width="163" height="63" viewBox="0 0 163 63" fill="none" xmlns="http://www.w3.org/2000/svg">
<path fill-rule="evenodd" clip-rule="evenodd" d="M41.6786 3.19578C27.8891 6.95793 11.0184 15.1635 3.67972 33.0219C1.52629 38.2667 0.186593 44.347 2.09961e-05 51.3934C2.09961e-05 51.3934 3.93552 38.2876 20.9346 23.6502C28.3893 17.2291 38.3553 10.5185 51.5991 4.48694C54.9921 2.94261 58.5972 1.43972 62.4329 -2.10013e-05C62.4329 -2.10013e-05 53.1125 0.0726014 41.6786 3.19576V3.19578Z" fill="white"/>
<path fill-rule="evenodd" clip-rule="evenodd" d="M46.3443 47.8503V52.8529C44.3664 54.1943 42.1504 54.7659 38.9861 54.7659C35.8478 54.7659 34.3849 53.5263 34.3849 50.8721C34.3849 49.9961 34.3849 47.3014 39.991 47.3014C42.2298 47.3014 44.3576 47.4824 46.3443 47.8503V47.8503ZM40.3529 27.3753C36.6025 27.3753 32.3994 27.9125 27.8496 28.9829L27.4074 29.0788V36.9453L28.1217 36.7776C32.5797 35.7338 36.6935 35.2007 40.3529 35.2007C46.3443 35.2007 46.3443 38.1533 46.3443 39.1151V40.9556C44.2301 40.6073 42.0964 40.4266 39.9909 40.4266C29.8111 40.4266 24.6468 43.9776 24.6468 50.9785C24.6468 54.5881 26.2202 62.9999 40.7228 62.9999C40.8638 62.9999 54.3319 62.8986 56.0739 53.6086L56.0791 38.9599C56.0791 31.2733 50.7912 27.3753 40.3529 27.3753V27.3753Z" fill="white"/>
<path fill-rule="evenodd" clip-rule="evenodd" d="M152.946 40.8681V41.5811C152.946 45.0288 151.242 47.2124 147.582 47.2124C145.342 47.2124 143.223 46.7034 141.269 45.7142V36.5056C143.124 35.7899 144.621 35.5279 146.776 35.5279C152.385 35.5279 152.946 38.7322 152.946 40.8681ZM146.424 27.5773C135.578 27.5773 131.535 30.4447 131.535 30.4447V62.1603H141.276V53.2195C143.711 54.1439 146.809 54.6287 148.825 54.6287C160.954 54.6287 162.593 47.5528 162.593 40.6388C162.593 32.7981 157.834 27.5773 146.424 27.5773H146.424Z" fill="white"/>
<path fill-rule="evenodd" clip-rule="evenodd" d="M115.885 47.8503V52.8529C113.908 54.1943 111.691 54.7659 108.527 54.7659C105.389 54.7659 103.928 53.5263 103.928 50.8721C103.928 49.9961 103.928 47.3014 109.533 47.3014C111.77 47.3014 113.898 47.4824 115.885 47.8503V47.8503ZM109.892 27.3753C106.139 27.3753 101.937 27.9125 97.3874 28.9829L96.945 29.0788V36.9453L97.6611 36.7776C102.116 35.7338 106.232 35.2007 109.892 35.2007C115.881 35.2007 115.881 38.1533 115.881 39.1151V40.9556C113.764 40.6073 111.633 40.4266 109.53 40.4266C99.3508 40.4266 94.1858 43.9776 94.1858 50.9785C94.1858 54.5881 95.7582 62.9999 110.259 62.9999C110.405 62.9999 123.869 62.8986 125.611 53.6086L125.616 38.9599C125.616 31.2733 120.328 27.3753 109.892 27.3753V27.3753Z" fill="white"/>
<path fill-rule="evenodd" clip-rule="evenodd" d="M78.7244 41.1065H73.2146C70.103 41.1065 69.7473 39.5289 69.7473 38.3362C69.7473 36.3955 71.8949 35.4054 76.1304 35.4054C80.4609 35.4054 84.53 36.1415 88.217 37.5953L89.0066 37.9054V29.6527L88.6194 29.5207C84.7977 28.2318 80.6819 27.5829 76.3527 27.5829C65.9421 27.5829 60.6553 31.3117 60.6553 38.657C60.6553 45.7014 64.339 49.2694 71.5976 49.2694H77.7478C79.9256 49.2694 80.8917 50.1184 80.8917 52.0385C80.8917 52.7633 80.8917 54.9691 75.9275 54.9691C71.0888 54.9691 66.7542 54.234 63.0685 52.781L62.2684 52.4724V60.7222L62.6613 60.8516C66.4842 62.1418 70.8426 62.7978 75.6129 62.7978C85.5804 62.7978 90.6266 59.0759 90.6266 51.7211C90.6266 44.6822 86.6249 41.1065 78.7244 41.1065H78.7244Z" fill="white"/>
</svg>
